<?xml version="1.0" ?><svg data-name="Layer 1" id="Layer_1" viewBox="0 0 200 200" xmlns="http://www.w3.org/2000/svg"><defs><style>.cls-1{fill:#37474f;}</style></defs><title/><path class="cls-1" d="M100,33.52a76.82,76.82,0,0,0-76.73,76.73,2,2,0,0,0,4,0A72.8,72.8,0,0,1,98,37.57V53.34a2,2,0,0,0,4,0V37.57a72.8,72.8,0,0,1,70.74,72.68,2,2,0,0,0,4,0A76.82,76.82,0,0,0,100,33.52Z"/><path class="cls-1" d="M105.94,123.49a15.51,15.51,0,1,0,6,4.45l40.56-63.1Z"/><path class="cls-1" d="M100,16.17A94.09,94.09,0,0,0,36.64,179.8h0a4,4,0,0,0,2.69,1.06H160.67a4,4,0,0,0,2.68-1.06h0A94.08,94.08,0,0,0,100,16.17Zm59.09,156.68H40.92a86.08,86.08,0,1,1,118.17,0Z"/></svg>