<?xml version="1.0" ?><!DOCTYPE svg  PUBLIC '-//W3C//DTD SVG 1.1//EN'  'http://www.w3.org/Graphics/SVG/1.1/DTD/svg11.dtd'><svg enable-background="new 0 0 64 64" height="64px" id="icons" version="1.1" viewBox="0 0 64 64" width="64px" xml:space="preserve" xmlns="http://www.w3.org/2000/svg" xmlns:xlink="http://www.w3.org/1999/xlink"><g><path d="M63,54.998h-1.998V34.006c0-1.626-1.303-2.947-2.918-2.992c-0.015,0-0.026-0.008-0.041-0.008H45v-5.98c0-0.553-0.447-1-1-1   s-1,0.447-1,1v5.98H29.021c-1.654,0-3,1.346-3,3v20.992h-1.998c-0.553,0-1,0.447-1,1v1.998c0,1.654,1.346,3,3,3H61   c1.654,0,3-1.346,3-3v-1.998C64,55.445,63.553,54.998,63,54.998z M28.021,34.006c0-0.552,0.448-1,1-1h28.98c0.552,0,1,0.448,1,1   v20.992h-30.98V34.006z M61,58.996H26.023c-0.552,0-1-0.448-1-1v-0.998H62v0.998C62,58.548,61.552,58.996,61,58.996z"/><path d="M30,17.02c-0.018,0-0.032,0.009-0.05,0.01C29.444,9.213,22.942,3.004,15,3.004c-4.007,0-7.773,1.561-10.606,4.394   C1.56,10.23-0.001,13.997,0,18.004c-0.001,4.006,1.56,7.772,4.394,10.606c2.833,2.833,6.6,4.394,10.606,4.394   c7.932,0,14.428-6.192,14.949-13.994c0.018,0,0.033,0.01,0.051,0.01h4.991c0.553,0,1-0.447,1-1s-0.447-1-1-1H30z M15,31.004   c-3.473,0-6.736-1.353-9.192-3.809C3.352,24.74,2,21.476,2,18.004c0-3.473,1.352-6.737,3.808-9.192   C8.263,6.356,11.527,5.004,15,5.004c7.168,0,13,5.832,13,13S22.168,31.004,15,31.004z"/><path d="M23.778,12.762c0.391-0.391,0.391-1.023,0-1.414l-2.121-2.121c-0.391-0.391-1.023-0.391-1.414,0l-1.605,1.604   c-3.718-2.411-7.543-1.912-7.729-1.888c-0.04,0.006-0.072,0.029-0.11,0.039C10.732,9,10.67,9.02,10.608,9.05   c-0.063,0.031-0.116,0.07-0.17,0.113c-0.03,0.024-0.067,0.035-0.096,0.063c-0.017,0.017-0.022,0.04-0.038,0.058   c-0.046,0.053-0.08,0.11-0.114,0.172c-0.03,0.055-0.061,0.106-0.079,0.164c-0.021,0.06-0.027,0.12-0.036,0.183   c-0.009,0.068-0.017,0.134-0.012,0.202c0.002,0.023-0.008,0.046-0.004,0.07c0.006,0.041,0.029,0.073,0.04,0.111   c0.017,0.064,0.035,0.126,0.065,0.187c0.032,0.064,0.071,0.119,0.116,0.175c0.023,0.029,0.034,0.065,0.062,0.093l4.242,4.242   l-7.302,7.301c0,0,0,0,0,0.001c-0.001,0-0.001,0-0.001,0c-0.972,0.973-0.972,2.559,0.002,3.537c0.473,0.472,1.1,0.731,1.767,0.731   c0.002,0,0.003,0,0.005,0c0.665-0.001,1.291-0.262,1.762-0.733c0.001,0,0.001,0,0.002-0.001l7.302-7.301l4.243,4.242   c0.027,0.027,0.064,0.039,0.094,0.063c0.055,0.044,0.109,0.083,0.173,0.114c0.062,0.031,0.123,0.05,0.188,0.067   c0.039,0.01,0.07,0.033,0.111,0.039c0.047,0.007,0.095,0.01,0.141,0.01c0.001,0,0.001,0,0.001,0l0,0c0.001,0,0.001,0,0.001,0   c0.127,0,0.249-0.026,0.363-0.071c0.028-0.011,0.053-0.033,0.08-0.048c0.085-0.043,0.165-0.091,0.234-0.155   c0.009-0.008,0.021-0.011,0.028-0.019c0.024-0.024,0.034-0.058,0.056-0.084c0.051-0.063,0.098-0.126,0.133-0.2   c0.024-0.051,0.037-0.102,0.053-0.155c0.012-0.043,0.035-0.08,0.042-0.126c0.026-0.188,0.522-4.012-1.889-7.729L23.778,12.762z    M20.95,11.348l0.707,0.707l-0.723,0.723c-0.113-0.123-0.217-0.248-0.338-0.369s-0.246-0.225-0.369-0.338L20.95,11.348z    M13.532,11.002c1.601,0.239,3.763,0.932,5.65,2.82c0.367,0.367,0.681,0.746,0.964,1.127c0.005,0.005,0.007,0.013,0.012,0.018   c0.001,0.001,0.003,0.001,0.004,0.003c1.169,1.584,1.66,3.228,1.85,4.51L13.532,11.002z M9.405,24.305   C9.405,24.305,9.405,24.306,9.405,24.305c-0.001,0.002-0.002,0.002-0.002,0.002c-0.126,0.127-0.274,0.146-0.352,0.146   c0,0,0,0-0.001,0c-0.077,0-0.227-0.02-0.352-0.145c-0.196-0.197-0.196-0.516-0.001-0.712l7.301-7.3l0.708,0.707L9.405,24.305z"/><path d="M39.833,15.27c-0.348,0.524-0.603,1.115-0.731,1.752h-1.103c-0.553,0-1,0.447-1,1s0.447,1,1,1h1.103   c0.13,0.638,0.384,1.229,0.731,1.754l-0.783,0.783c-0.391,0.391-0.391,1.023,0,1.414c0.195,0.195,0.451,0.293,0.707,0.293   s0.512-0.098,0.707-0.293l0.784-0.784c0.79,0.524,1.734,0.833,2.752,0.833s1.962-0.309,2.753-0.833l0.784,0.784   c0.195,0.195,0.451,0.293,0.707,0.293s0.512-0.098,0.707-0.293c0.391-0.391,0.391-1.024,0-1.414l-0.784-0.784   c0.348-0.524,0.603-1.115,0.731-1.753h1.103c0.553,0,1-0.447,1-1s-0.447-1-1-1h-1.103c-0.129-0.637-0.384-1.228-0.73-1.752   l0.783-0.783c0.391-0.39,0.391-1.023,0-1.414s-1.023-0.391-1.414,0L47,13.609v-0.607c0-1.654-1.346-3-3-3s-3,1.346-3,3v0.604   l-0.535-0.536c-0.391-0.391-1.024-0.39-1.415-0.001c-0.391,0.391-0.391,1.023-0.001,1.415L39.833,15.27z M41,18.021   c0-1.654,1.346-3,3-3s3,1.346,3,3s-1.346,3-3,3S41,19.676,41,18.021z M44,12.002c0.552,0,1,0.448,1,1v0.121   c-0.323-0.066-0.657-0.102-1-0.102s-0.677,0.035-1,0.102v-0.121C43,12.45,43.448,12.002,44,12.002z"/><path d="M56,34.998H31c-0.553,0-1,0.447-1,1v6c0,0.553,0.447,1,1,1h25c0.553,0,1-0.447,1-1v-6C57,35.445,56.553,34.998,56,34.998z    M55,40.998H32v-4h23V40.998z"/><path d="M36,39.998h15c0.553,0,1-0.447,1-1s-0.447-1-1-1H36c-0.553,0-1,0.447-1,1S35.447,39.998,36,39.998z"/><path d="M42,43.998H31c-0.553,0-1,0.447-1,1v4.998c0,0.553,0.447,1,1,1h11c0.553,0,1-0.447,1-1v-4.998   C43,44.445,42.553,43.998,42,43.998z M41,48.996h-9v-2.998h9V48.996z"/><path d="M42,51.998H31c-0.553,0-1,0.447-1,1s0.447,1,1,1h11c0.553,0,1-0.447,1-1S42.553,51.998,42,51.998z"/><path d="M56,43.998H45c-0.553,0-1,0.447-1,1v4.998c0,0.553,0.447,1,1,1h11c0.553,0,1-0.447,1-1v-4.998   C57,44.445,56.553,43.998,56,43.998z M55,48.996h-9v-2.998h9V48.996z"/><path d="M56,51.998H45c-0.553,0-1,0.447-1,1s0.447,1,1,1h11c0.553,0,1-0.447,1-1S56.553,51.998,56,51.998z"/></g></svg>