<?xml version="1.0" ?><!DOCTYPE svg  PUBLIC '-//W3C//DTD SVG 1.1//EN'  'http://www.w3.org/Graphics/SVG/1.1/DTD/svg11.dtd'><svg enable-background="new 0 0 128 128" height="128px" version="1.1" viewBox="0 0 128 128" width="128px" xml:space="preserve" xmlns="http://www.w3.org/2000/svg" xmlns:xlink="http://www.w3.org/1999/xlink"><g><g id="Layer_1"><g><g><g/></g></g></g><g id="Layer_3"><g><path d="M57.997,4.155L57.997,4.155c3.037,0,5.589,1.663,5.934,3.867l1.39,8.901l0.484,3.092l3.091,0.386      c4.696,0.589,9.268,1.912,13.591,3.938l2.729,1.278l2.048-2.217l6.114-6.616c0.951-1.029,2.258-1.244,3.188-1.244      c1.755,0,3.609,0.769,5.084,2.105l4.82,4.377c1.546,1.402,2.515,3.288,2.591,5.046c0.033,0.782-0.097,1.899-0.914,2.783      l-6.022,6.52l-2.143,2.318l1.653,2.692c2.2,3.582,3.874,7.438,4.978,11.465c0.148,0.543,0.282,1.101,0.438,1.774l0.691,3.013      l3.07,0.199l8.821,0.573c1.205,0.08,2.077,0.81,2.596,1.406c1.158,1.333,1.762,3.374,1.614,5.459l-0.453,6.418      c-0.246,3.482-2.456,6.314-4.927,6.314c-0.068,0-0.138-0.002-0.206-0.008l-8.768-0.569l-3.055-0.199l-1.081,2.879      c-1.713,4.563-4.146,8.801-7.23,12.598l-1.981,2.438l1.799,2.577l4.99,7.15c0.639,0.915,0.614,1.981,0.482,2.717      c-0.314,1.745-1.554,3.511-3.315,4.723l-5.455,3.754c-1.419,0.977-3.049,1.515-4.592,1.515c-1.582,0-2.887-0.569-3.578-1.56      l-5.022-7.197l-1.744-2.5l-2.895,0.927c-0.531,0.169-1.231,0.39-1.933,0.583c-3.919,1.071-7.979,1.614-12.064,1.614      l-0.339-0.001l-3.082-0.021l-0.902,2.963l-2.572,8.455c-0.545,1.797-2.671,3.005-5.287,3.005c-0.824,0-1.659-0.123-2.481-0.366      l-6.341-1.87c-2.026-0.599-3.674-1.849-4.521-3.431c-0.381-0.71-0.758-1.803-0.395-2.995l2.609-8.578l0.905-2.973l-2.584-1.713      c-3.98-2.638-7.471-5.836-10.374-9.505l-1.913-2.418l-2.855,1.145l-8.436,3.382c-0.441,0.175-0.91,0.265-1.395,0.265      c-2.276,0-4.623-1.872-5.705-4.552l-2.411-5.967c-0.763-1.892-0.801-3.92-0.104-5.563c0.343-0.809,1.024-1.882,2.319-2.399      l8.54-3.424l2.85-1.142l-0.262-3.073c-0.398-4.678-0.056-9.352,1.017-13.89l0.722-3.052l-2.722-1.534l-7.998-4.51      c-1.196-0.674-1.717-1.807-1.943-2.638c-0.468-1.713-0.148-3.714,0.874-5.489l3.256-5.651c1.325-2.299,3.596-3.782,5.787-3.781      c0.725,0,1.395,0.169,1.987,0.503l8.001,4.51l2.653,1.495l2.209-2.1c3.363-3.196,7.219-5.854,11.46-7.902l2.771-1.339      l-0.475-3.051l-1.407-9.006c-0.247-1.584,0.619-2.865,1.158-3.488c1.09-1.26,2.774-2.151,4.627-2.443l6.577-1.036      C57.087,4.192,57.545,4.155,57.997,4.155 M57.997,0c-0.658,0-1.329,0.05-2.006,0.158l-6.578,1.037      c-5.873,0.926-10.006,5.708-9.229,10.682l1.405,9.005c-4.669,2.254-8.877,5.177-12.509,8.628c0,0-3.583-2.018-8-4.509      c-1.246-0.703-2.618-1.035-4.011-1.035c-3.546,0-7.234,2.155-9.365,5.854l-3.257,5.652C1.48,40.623,2.654,46.816,7.075,49.307      l7.997,4.51c-1.159,4.901-1.554,10.025-1.114,15.206c0,0-3.823,1.532-8.54,3.422c-4.716,1.89-6.737,7.885-4.514,13.388      l2.411,5.967c1.77,4.382,5.668,7.145,9.536,7.145c0.989,0,1.977-0.182,2.926-0.561L24.213,95      c3.218,4.068,7.06,7.557,11.334,10.39c0,0-1.169,3.839-2.609,8.579c-1.442,4.739,2.008,9.945,7.706,11.626l6.341,1.871      c1.228,0.363,2.457,0.534,3.646,0.534c4.336,0,8.129-2.28,9.243-5.945l2.571-8.455c0.122,0.001,0.245,0.001,0.368,0.001      c4.343,0,8.757-0.561,13.15-1.762c0.71-0.194,1.409-0.41,2.101-0.631c0,0,2.248,3.221,5.021,7.195      c1.535,2.197,4.127,3.33,6.965,3.33c2.291,0,4.741-0.736,6.929-2.241l5.455-3.754c4.899-3.371,6.638-9.308,3.882-13.257      l-4.991-7.148c3.361-4.137,6.029-8.784,7.897-13.759c0,0,3.925,0.255,8.768,0.57c0.158,0.011,0.315,0.015,0.473,0.015      c4.646,0,8.647-4.442,9.052-10.174l0.453-6.42c0.419-5.927-3.193-10.987-8.065-11.306l-8.823-0.573      c-0.148-0.646-0.302-1.298-0.48-1.944c-1.242-4.532-3.101-8.727-5.444-12.543c0,0,2.697-2.919,6.023-6.52      c3.327-3.599,2.458-9.753-1.937-13.742l-4.818-4.375c-2.325-2.109-5.182-3.179-7.857-3.179c-2.386,0-4.627,0.85-6.218,2.574      l-6.114,6.615c-4.647-2.178-9.645-3.647-14.827-4.294c0,0-0.623-3.984-1.391-8.899C67.337,3.03,63.044,0,57.997,0L57.997,0z" fill="white"/><path d="M62.923,31.242c-18.301,0-33.137,14.909-33.137,33.3c0,18.39,14.836,33.3,33.137,33.3      c18.3,0,33.137-14.91,33.137-33.3C96.06,46.151,81.223,31.242,62.923,31.242z M81.694,75.12      c-0.16-0.027-0.323-0.066-0.499-0.114l-10.169-6.474c-0.568-0.358-1.328-0.193-1.689,0.381      c-0.361,0.576-0.191,1.334,0.379,1.698l10.123,6.441c0.013,0.47-0.049,1.146-0.447,1.639c-0.403,0.498-1.133,0.767-2.17,0.79      l-6.807-3.845c-0.586-0.334-1.334-0.123-1.665,0.47c-0.332,0.591-0.12,1.343,0.466,1.674l6.164,3.481      c-0.121,0.423-0.364,1-0.859,1.388c-0.536,0.42-1.31,0.559-2.301,0.411l-3.589-2.176c-0.57-0.342-1.328-0.161-1.68,0.422      c-0.345,0.58-0.159,1.339,0.419,1.686l2.689,1.632c-0.271,0.552-0.713,1.245-1.27,1.48c-0.202,0.088-0.532,0.168-1.055-0.1      c-1.719-0.938-3.586-1.98-4.557-2.537c1.138-1.665,0.752-3.974-0.901-5.216c-0.46-0.342-0.983-0.551-1.522-0.657      c0.176-0.553,0.237-1.141,0.143-1.737c-0.162-0.998-0.7-1.888-1.517-2.495c-0.525-0.396-1.137-0.615-1.762-0.699      c0.532-1.526,0.047-3.303-1.334-4.341c-1.649-1.241-4.123-0.896-5.321,0.722l-1.833,2.467c-0.26-0.446-0.607-0.842-1.034-1.16      c-1.547-1.165-3.818-0.924-5.088,0.465c-2.889-1.937-5.894-6.277-5.924-6.32c-0.048-0.069-0.116-0.113-0.175-0.17l8.104-13.361      c2.158,2.239,5.379,2.837,7.776,2.932c-0.865,1.054-1.676,2.228-2.415,3.521c-0.602,1.066-1.361,2.683-0.945,4.6      c0.068,0.188,0.735,1.823,2.471,2.314c1.34,0.381,2.838-0.059,4.506-1.359l5.335-4.794c0.174-0.151,1.073-0.296,2.943,0.911      l3.745,2.408c4.286,2.751,8.717,5.596,13.11,8.777c1.244,0.898,2.951,2.126,2.742,3.433c-0.079,0.507-0.29,0.875-0.646,1.124      C83.168,75.163,82.462,75.271,81.694,75.12z M43.008,74.871l1.725-2.329c0.241-0.326,0.619-0.514,1.039-0.514      c0.306,0,0.604,0.1,0.861,0.298c0.313,0.23,0.516,0.565,0.568,0.936c0.051,0.348-0.032,0.684-0.229,0.952l-1.73,2.33      c-0.424,0.561-1.297,0.67-1.904,0.217c-0.309-0.23-0.51-0.562-0.563-0.937C42.725,75.479,42.805,75.144,43.008,74.871z       M47.297,78.088l5.629-7.574c0.237-0.328,0.618-0.51,1.041-0.51c0.307,0,0.603,0.095,0.854,0.286      c0.614,0.464,0.765,1.311,0.335,1.892l-5.623,7.58c-0.415,0.559-1.288,0.68-1.901,0.214c-0.312-0.23-0.512-0.562-0.566-0.936      C47.013,78.694,47.098,78.357,47.297,78.088z M51.688,81.379l4.33-5.827c0.239-0.328,0.62-0.514,1.04-0.514      c0.309,0,0.604,0.104,0.86,0.293c0.303,0.227,0.499,0.554,0.56,0.917c0.058,0.353-0.023,0.699-0.23,0.972l-4.32,5.827      c-0.425,0.564-1.301,0.673-1.901,0.222C51.408,82.811,51.261,81.962,51.688,81.379z M55.888,84.522c0.001,0,0.001,0,0.002-0.002      l0.398-0.538l2.63-3.539c0.241-0.324,0.618-0.511,1.041-0.511c0.308,0,0.604,0.1,0.856,0.29c0.615,0.458,0.761,1.31,0.335,1.893      l-3.033,4.083c-0.416,0.562-1.291,0.669-1.896,0.213c-0.313-0.235-0.513-0.57-0.569-0.943      C55.604,85.127,55.688,84.794,55.888,84.522z M84.651,69.601c-0.615-0.552-1.271-1.026-1.829-1.427      c-4.298-3.116-8.762-5.979-13.076-8.748l-3.736-2.403c-3.83-2.486-5.603-1.043-6.084-0.487l-5.078,4.548      c-0.924,0.716-1.734,1.033-2.271,0.882c-0.508-0.136-0.791-0.671-0.813-0.671h-0.001c-0.133-0.7,0.096-1.524,0.738-2.659      c1.614-2.822,5.147-7.671,10.701-8.432c2.542-0.347,5.468-0.044,9.215,0.948c1.087,0.286,2.151,0.627,3.324,1.097      c0.559,0.286,1.138,0.587,1.745,0.434l4.166-1.044c0.076-0.019,0.136-0.066,0.205-0.1L90.1,65.513L84.651,69.601z       M79.806,40.868l-2.647,2.705l3.418,5.796l-3.397,0.853c-0.108-0.048-0.223-0.114-0.323-0.165      c-0.179-0.093-0.334-0.166-0.419-0.195c-1.084-0.411-2.224-0.78-3.394-1.091c-4.065-1.077-7.294-1.403-10.174-0.998      c-2.73,0.372-5.319,1.606-7.628,3.594c-1.31,0.144-6.064,0.45-8.515-2.154c-0.135-0.142-0.298-0.232-0.471-0.297l4.356-7.182      l-1.663-2.72c4.147-2.302,8.909-3.615,13.974-3.615C69.218,35.398,75.047,37.431,79.806,40.868z M62.923,93.686      c-14.642,0-26.776-10.963-28.723-25.147l0.132,0.038l1.223-2.015c1,1.359,3.43,4.455,5.961,6.205l-0.47,0.634      c-0.591,0.797-0.837,1.785-0.694,2.783c0.15,1.021,0.693,1.932,1.522,2.548c0.681,0.513,1.483,0.782,2.322,0.782      c0.158,0,0.309-0.034,0.463-0.052c0.162,0.997,0.696,1.881,1.511,2.489c0.677,0.507,1.482,0.778,2.321,0.778      c0.189,0,0.368-0.036,0.552-0.063c0.139,0.986,0.654,1.926,1.519,2.573c0.679,0.512,1.479,0.781,2.323,0.781      c0.131,0,0.255-0.031,0.385-0.044c0.179,0.955,0.694,1.809,1.488,2.403c0.679,0.513,1.484,0.781,2.327,0.781      c1.2,0,2.291-0.547,2.995-1.495l1.646-2.219c0.762,0.456,2.179,1.263,4.877,2.738c0.671,0.336,1.276,0.455,1.805,0.455      c0.541,0,0.993-0.123,1.341-0.274c1.357-0.578,2.17-1.921,2.586-2.82c0.213,0.019,0.421,0.031,0.623,0.031      c1.2,0,2.227-0.332,3.067-0.986c1.033-0.812,1.505-1.908,1.724-2.703c1.544-0.128,2.749-0.661,3.544-1.646      c0.677-0.837,0.914-1.797,0.977-2.6c0.031,0.001,0.063,0.005,0.095,0.005c1.004,0,1.93-0.276,2.682-0.803      c0.896-0.632,1.471-1.585,1.656-2.75c0.154-0.976-0.065-1.838-0.481-2.601l5.134-3.855l0.333,0.563      C89.888,82.55,77.679,93.686,62.923,93.686z" fill="white"/></g></g></g></svg>