<svg width="796" height="187" viewBox="0 0 796 187" fill="none" xmlns="http://www.w3.org/2000/svg">
<g opacity="0.5" filter="url(#filter0_d_870_21)">
<path d="M285.54 121.3C285.144 120.508 284.807 119.597 284.53 118.567C284.253 117.538 284.015 116.448 283.817 115.3C282.906 116.29 281.856 117.221 280.668 118.092C279.48 118.964 278.153 119.736 276.688 120.409C275.262 121.043 273.677 121.538 271.934 121.894C270.192 122.291 268.31 122.488 266.29 122.488C263.003 122.488 259.972 122.013 257.2 121.063C254.467 120.112 252.11 118.785 250.13 117.082C248.149 115.379 246.605 113.359 245.496 111.022C244.387 108.646 243.832 106.071 243.832 103.299C243.832 96.5262 246.347 91.2983 251.378 87.6147C256.447 83.8915 263.993 82.0302 274.014 82.0302H283.223V78.2279C283.223 75.1383 282.213 72.7027 280.193 70.9206C278.173 69.0982 275.262 68.1877 271.459 68.1877C268.092 68.1877 265.637 68.9202 264.092 70.3858C262.547 71.8114 261.775 73.7326 261.775 76.1484H245.258C245.258 73.4155 245.852 70.8211 247.04 68.3657C248.268 65.9098 250.031 63.7517 252.328 61.8898C254.665 60.0285 257.497 58.563 260.824 57.4936C264.191 56.3846 268.033 55.8301 272.35 55.8301C276.232 55.8301 279.836 56.3054 283.163 57.2559C286.53 58.2065 289.442 59.6125 291.897 61.4738C294.353 63.3357 296.274 65.6921 297.66 68.5437C299.046 71.3558 299.739 74.6234 299.739 78.3466V105.913C299.739 109.359 299.958 112.211 300.394 114.468C300.829 116.726 301.463 118.666 302.294 120.29V121.3H285.54ZM269.795 109.715C271.459 109.715 273.004 109.517 274.429 109.121C275.856 108.725 277.143 108.21 278.292 107.576C279.44 106.943 280.43 106.23 281.262 105.438C282.094 104.606 282.748 103.774 283.223 102.943V91.8924H274.786C272.211 91.8924 270.013 92.1496 268.191 92.6645C266.369 93.1399 264.884 93.8328 263.735 94.744C262.587 95.615 261.735 96.6844 261.18 97.9523C260.626 99.1799 260.349 100.526 260.349 101.992C260.349 104.21 261.121 106.051 262.666 107.517C264.25 108.983 266.627 109.715 269.795 109.715Z" fill="white"/>
<path d="M364.626 55.8301C367.122 55.8301 369.419 56.0083 371.519 56.3648C373.657 56.6816 375.38 57.0381 376.687 57.4342L374.252 73.8908C372.073 73.3759 369.835 72.9995 367.538 72.7621C365.28 72.4845 363.122 72.3461 361.062 72.3461C356.427 72.3461 352.704 73.2374 349.892 75.0196C347.119 76.8018 345.04 79.3567 343.654 82.6836V121.3H327.137V57.0183H342.525L343.297 67.5337C345.911 63.8902 349.04 61.0386 352.685 58.9789C356.328 56.8797 360.309 55.8301 364.626 55.8301Z" fill="white"/>
<path d="M432.653 101.162L438.237 57.0205H453.387L441.861 121.302H427.365L418.928 80.4283L410.788 121.302H396.292L384.766 57.0205H399.856L405.441 101.341L413.521 57.0205H424.572L432.653 101.162Z" fill="white"/>
<path d="M495.813 122.488C490.862 122.488 486.366 121.677 482.326 120.053C478.286 118.429 474.82 116.231 471.929 113.458C469.038 110.646 466.8 107.359 465.215 103.596C463.671 99.7938 462.898 95.7343 462.898 91.417V89.0402C462.898 84.1295 463.671 79.6534 465.215 75.6137C466.76 71.5344 468.919 68.0288 471.692 65.0981C474.464 62.1674 477.752 59.89 481.554 58.2659C485.356 56.642 489.496 55.8301 493.971 55.8301C498.605 55.8301 502.725 56.6024 506.329 58.1471C509.973 59.6521 513.043 61.7909 515.538 64.5634C518.073 67.3358 519.994 70.6826 521.301 74.6036C522.608 78.4851 523.262 82.7825 523.262 87.496V94.506H479.653C479.97 96.6844 480.603 98.6848 481.554 100.507C482.544 102.289 483.792 103.833 485.297 105.141C486.802 106.448 488.525 107.458 490.466 108.171C492.407 108.884 494.526 109.24 496.823 109.24C498.447 109.24 500.051 109.082 501.636 108.765C503.26 108.448 504.804 107.992 506.27 107.398C507.735 106.765 509.102 105.992 510.369 105.082C511.637 104.17 512.746 103.101 513.696 101.873L521.955 110.785C520.925 112.25 519.579 113.696 517.915 115.122C516.291 116.508 514.35 117.756 512.092 118.865C509.874 119.934 507.398 120.805 504.665 121.478C501.933 122.152 498.982 122.488 495.813 122.488ZM493.853 69.1972C491.991 69.1972 490.287 69.534 488.743 70.2072C487.198 70.8408 485.832 71.7718 484.643 72.9995C483.495 74.2277 482.524 75.6928 481.732 77.3959C480.94 79.0989 480.346 81.0004 479.95 83.0996H507.042V81.7922C506.963 80.0496 506.626 78.4059 506.032 76.8611C505.438 75.3169 504.586 73.9898 503.477 72.8808C502.368 71.7322 501.002 70.8408 499.378 70.2072C497.794 69.534 495.952 69.1972 493.853 69.1972Z" fill="white"/>
<path d="M577.857 121.3C577.461 120.508 577.123 119.597 576.844 118.567C576.571 117.538 576.332 116.448 576.134 115.3C575.221 116.29 574.173 117.221 572.986 118.092C571.794 118.964 570.467 119.736 569.006 120.409C567.575 121.043 565.992 121.538 564.253 121.894C562.507 122.291 560.628 122.488 558.608 122.488C555.321 122.488 552.289 122.013 549.514 121.063C546.785 120.112 544.427 118.785 542.446 117.082C540.465 115.379 538.921 113.359 537.812 111.022C536.703 108.646 536.148 106.071 536.148 103.299C536.148 96.5262 538.663 91.2983 543.693 87.6147C548.763 83.8915 556.31 82.0302 566.33 82.0302H575.541V78.2279C575.541 75.1383 574.528 72.7027 572.509 70.9206C570.49 69.0982 567.575 68.1877 563.775 68.1877C560.406 68.1877 557.951 68.9202 556.409 70.3858C554.861 71.8114 554.093 73.7326 554.093 76.1484H537.574C537.574 73.4155 538.168 70.8211 539.356 68.3657C540.585 65.9098 542.347 63.7517 544.644 61.8898C546.983 60.0285 549.811 58.563 553.139 57.4936C556.508 56.3846 560.348 55.8301 564.666 55.8301C568.547 55.8301 572.154 56.3054 575.483 57.2559C578.846 58.2065 581.755 59.6125 584.211 61.4738C586.672 63.3357 588.592 65.6921 589.977 68.5437C591.362 71.3558 592.054 74.6234 592.054 78.3466V105.913C592.054 109.359 592.275 112.211 592.712 114.468C593.148 116.726 593.776 118.666 594.608 120.29V121.3H577.857ZM562.111 109.715C563.775 109.715 565.317 109.517 566.749 109.121C568.174 108.725 569.46 108.21 570.606 107.576C571.759 106.943 572.748 106.23 573.58 105.438C574.412 104.606 575.064 103.774 575.541 102.943V91.8924H567.104C564.526 91.8924 562.332 92.1496 560.505 92.6645C558.684 93.1399 557.2 93.8328 556.054 94.744C554.902 95.615 554.052 96.6844 553.5 97.9523C552.941 99.1799 552.668 100.526 552.668 101.992C552.668 104.21 553.436 106.051 554.983 107.517C556.566 108.983 558.946 109.715 562.111 109.715Z" fill="white"/>
<path d="M638.108 102.232L638.94 106.866L639.772 102.41L653.912 57.0205H671.141L646.72 121.302H631.213L606.676 57.0205H623.905L638.108 102.232Z" fill="white"/>
<path d="M715.041 122.488C710.089 122.488 705.592 121.677 701.554 120.053C697.51 118.429 694.047 116.231 691.156 113.458C688.264 110.646 686.024 107.359 684.441 103.596C682.899 99.7938 682.125 95.7343 682.125 91.417V89.0402C682.125 84.1295 682.899 79.6534 684.441 75.6137C685.989 71.5344 688.147 68.0288 690.917 65.0981C693.693 62.1674 696.98 59.89 700.78 58.2659C704.585 56.642 708.722 55.8301 713.197 55.8301C717.834 55.8301 721.948 56.6024 725.556 58.1471C729.198 59.6521 732.27 61.7909 734.766 64.5634C737.298 67.3358 739.218 70.6826 740.527 74.6036C741.836 78.4851 742.488 82.7825 742.488 87.496V94.506H698.877C699.197 96.6844 699.831 98.6848 700.78 100.507C701.769 102.289 703.02 103.833 704.521 105.141C706.028 106.448 707.75 107.458 709.694 108.171C711.631 108.884 713.749 109.24 716.048 109.24C717.671 109.24 719.277 109.082 720.86 108.765C722.483 108.448 724.031 107.992 725.497 107.398C726.964 106.765 728.325 105.992 729.594 105.082C730.862 104.17 731.973 103.101 732.922 101.873L741.179 110.785C740.149 112.25 738.805 113.696 737.14 115.122C735.517 116.508 733.574 117.756 731.316 118.865C729.099 119.934 726.626 120.805 723.891 121.478C721.157 122.152 718.207 122.488 715.041 122.488ZM713.08 69.1972C711.218 69.1972 709.513 69.534 707.972 70.2072C706.424 70.8408 705.056 71.7718 703.869 72.9995C702.723 74.2277 701.751 75.6928 700.96 77.3959C700.169 79.0989 699.569 81.0004 699.174 83.0996H726.265V81.7922C726.19 80.0496 725.852 78.4059 725.259 76.8611C724.665 75.3169 723.81 73.9898 722.704 72.8808C721.593 71.7322 720.226 70.8408 718.602 70.2072C717.02 69.534 715.175 69.1972 713.08 69.1972Z" fill="white"/>
<path d="M145.014 151.751C179.095 151.751 206.723 124.116 206.723 90.0254C206.723 55.9353 179.095 28.2998 145.014 28.2998C110.933 28.2998 83.3047 55.9353 83.3047 90.0254C83.3047 124.116 110.933 151.751 145.014 151.751Z" stroke="white" stroke-width="15.716"/>
<path d="M156.766 112.281C156.346 111.861 156.346 111.021 155.926 110.181C155.926 109.342 155.506 108.502 155.506 107.662C154.667 108.502 153.827 108.922 152.987 109.761C152.148 110.601 150.889 111.021 150.049 111.441C148.79 111.861 147.95 112.281 146.271 112.701C145.011 113.121 143.332 113.121 142.073 113.121C139.554 113.121 137.455 112.701 135.356 111.861C133.257 111.021 131.578 110.181 129.899 108.922C128.22 107.662 127.38 105.982 126.541 104.303C125.701 102.623 125.281 100.524 125.281 98.4241C125.281 93.3852 127.38 89.1862 131.158 86.6668C134.936 83.7275 140.814 82.4678 148.37 82.4678H155.506V79.5285C155.506 77.0091 154.667 75.3295 153.407 74.0698C151.728 72.8101 149.629 71.9702 146.691 71.9702C144.172 71.9702 142.493 72.3901 141.233 73.6499C139.974 74.9096 139.554 76.1693 139.554 77.8489H126.96C126.96 75.7494 127.38 73.6499 128.22 71.9702C129.059 70.2906 130.319 68.611 132.418 66.9314C134.097 65.6717 136.196 64.412 138.715 63.5722C141.233 62.7324 144.172 62.3125 147.53 62.3125C150.469 62.3125 152.987 62.7324 155.506 63.5722C158.025 64.412 160.124 65.2518 162.223 66.9314C163.902 68.1911 165.581 70.2906 166.421 72.3901C167.26 74.4897 168.1 77.0091 168.1 79.9484V100.943C168.1 103.463 168.1 105.562 168.52 107.242C168.94 108.922 169.359 110.601 169.779 111.441V112.281H156.766ZM144.592 103.463C145.851 103.463 147.11 103.463 147.95 103.043C149.209 102.623 150.049 102.203 150.889 101.783C151.728 101.363 152.568 100.943 152.987 100.104L154.667 98.4241V90.026H148.37C146.271 90.026 144.592 90.026 143.332 90.4459C142.073 90.8658 140.814 91.2857 139.974 92.1255C139.134 92.9653 138.295 93.3853 137.875 94.645C137.455 95.4848 137.455 96.7445 137.455 97.5843C137.455 99.2639 137.875 100.524 139.134 101.783C140.394 103.043 142.493 103.463 144.592 103.463V103.463Z" fill="white"/>
</g>
<defs>
<filter id="filter0_d_870_21" x="-3.63986" y="0.441406" width="803.354" height="193.749" filterUnits="userSpaceOnUse" color-interpolation-filters="sRGB">
<feFlood flood-opacity="0" result="BackgroundImageFix"/>
<feColorMatrix in="SourceAlpha" type="matrix" values="0 0 0 0 0 0 0 0 0 0 0 0 0 0 0 0 0 0 127 0" result="hardAlpha"/>
<feOffset dy="3.78048"/>
<feGaussianBlur stdDeviation="1.89024"/>
<feComposite in2="hardAlpha" operator="out"/>
<feColorMatrix type="matrix" values="0 0 0 0 0 0 0 0 0 0 0 0 0 0 0 0 0 0 0.25 0"/>
<feBlend mode="normal" in2="BackgroundImageFix" result="effect1_dropShadow_870_21"/>
<feBlend mode="normal" in="SourceGraphic" in2="effect1_dropShadow_870_21" result="shape"/>
</filter>
</defs>
</svg>
