<svg width="592" height="78" viewBox="0 0 592 78" fill="none" xmlns="http://www.w3.org/2000/svg">
<g clip-path="url(#clip0_2119_200)">
<path fill-rule="evenodd" clip-rule="evenodd" d="M580.42 54.1462C583.095 54.0063 585.724 54.871 587.788 56.5686L587.814 56.6492L590.334 53.7692C587.553 51.3804 583.959 50.1299 580.285 50.2705C578.577 50.2192 576.875 50.4557 575.247 50.9702C573.723 51.4464 572.357 52.3203 571.292 53.5002C570.178 54.7203 569.587 56.3222 569.639 57.9681C569.593 59.1664 569.894 60.3529 570.505 61.3864C571.12 62.3469 572.004 63.1057 573.051 63.5665C574.091 64.0838 575.181 64.4986 576.304 64.8046C577.558 65.1184 578.835 65.3432 580.121 65.4776C581.99 65.622 583.821 66.077 585.541 66.8234C586.12 67.0267 586.611 67.42 586.936 67.9384C587.263 68.4569 587.401 69.0698 587.329 69.6761C587.346 70.3396 587.162 70.9933 586.801 71.5505C586.436 72.108 585.914 72.5429 585.297 72.7984C583.847 73.4679 582.263 73.7995 580.664 73.7673C578.893 73.8647 577.125 73.5506 575.497 72.8498C573.87 72.1491 572.429 71.0805 571.292 69.7301L568.772 72.7445C570.21 74.4273 572.024 75.7502 574.07 76.606C576.12 77.4618 578.339 77.8261 580.555 77.6699C583.319 77.7742 586.054 77.0622 588.411 75.6245C589.407 75.0219 590.225 74.1707 590.788 73.1553C591.347 72.1399 591.631 70.9959 591.609 69.8378C591.669 68.7092 591.428 67.5845 590.902 66.5811C590.489 65.7313 589.898 64.9789 589.169 64.374C588.359 63.7605 587.441 63.3041 586.462 63.0282C585.503 62.7081 584.524 62.4474 583.534 62.2476C582.751 62.113 581.72 61.9783 580.474 61.844C576.14 61.3324 573.918 60.0405 573.918 57.9681C573.898 57.3698 574.056 56.7793 574.375 56.2711C574.693 55.763 575.158 55.3605 575.707 55.1151C577.165 54.3899 578.789 54.056 580.42 54.1462ZM562.569 72.7178L562.566 72.7204L559.67 70.0801C558.702 71.1919 557.448 72.0202 556.039 72.4755C554.526 73.0511 552.921 73.3519 551.3 73.3637C548.946 73.4229 546.647 72.6609 544.798 71.2106C543.926 70.5179 543.205 69.6535 542.683 68.6716C542.16 67.6898 541.847 66.6118 541.764 65.5046H564.168C564.538 63.4976 564.457 61.4343 563.932 59.4618C563.41 57.4889 562.454 55.6556 561.134 54.0925C559.819 52.7555 558.232 51.7114 556.481 51.0293C554.73 50.3472 552.853 50.0426 550.975 50.1359C549.164 50.0793 547.361 50.3888 545.677 51.0457C543.992 51.7028 542.456 52.6935 541.167 53.9578C539.896 55.2379 538.9 56.7618 538.236 58.4369C537.576 60.1117 537.263 61.9028 537.321 63.7011C537.238 65.5307 537.536 67.3577 538.199 69.067C538.862 70.7762 539.873 72.3308 541.167 73.633C542.502 74.8927 544.075 75.8734 545.797 76.5162C547.519 77.1589 549.354 77.4506 551.191 77.3742C553.369 77.3829 555.531 76.9809 557.557 76.1897C559.495 75.4732 561.22 74.2795 562.566 72.7204L562.623 72.7715L562.569 72.7178ZM559.859 61.9519C559.876 60.8624 559.658 59.7821 559.219 58.7837C558.78 57.7855 558.128 56.8924 557.313 56.1649C555.513 54.7327 553.249 54.0049 550.947 54.1195C548.708 54.0747 546.523 54.8076 544.772 56.1919C543.01 57.6089 541.879 59.6593 541.629 61.8979H559.859V61.9519ZM520.472 50.6742L520.477 50.7282H516.465V76.9166H520.825V62.3286C520.787 61.2833 520.968 60.2418 521.356 59.2691C521.74 58.2965 522.326 57.4137 523.072 56.6762C524.522 55.2721 526.468 54.4892 528.491 54.4961C530.136 54.4975 531.741 54.9951 533.096 55.9226L535.073 52.2084C533.322 50.8502 531.144 50.154 528.925 50.2436C527.289 50.1017 525.647 50.4391 524.203 51.2139C522.759 51.989 521.574 53.1675 520.796 54.6038L520.477 50.7282H520.5L520.472 50.6742ZM420.593 72.7195L420.596 72.7172L420.651 72.7709L420.593 72.7195ZM420.593 72.7195C419.253 74.2841 417.528 75.4789 415.585 76.1892C413.567 76.9801 411.414 77.382 409.247 77.3734C407.407 77.4595 405.57 77.1719 403.848 76.5285C402.123 75.8854 400.55 74.8999 399.223 73.6324C397.923 72.3331 396.91 70.7791 396.247 69.069C395.584 67.3591 395.288 65.5307 395.377 63.7005C395.314 61.9014 395.621 60.1086 396.284 58.4329C396.944 56.7569 397.946 55.2336 399.223 53.9573C400.509 52.6904 402.042 51.6979 403.73 51.0408C405.415 50.3837 407.217 50.0756 409.029 50.1353C410.909 50.042 412.786 50.3466 414.537 51.0287C416.288 51.7108 417.872 52.755 419.187 54.0919C420.507 55.6542 421.463 57.4886 421.983 59.462C422.502 61.4354 422.574 63.499 422.195 65.504H399.792C399.878 66.6133 400.196 67.6927 400.722 68.6748C401.25 69.6566 401.973 70.5199 402.852 71.21C404.694 72.6687 406.999 73.4315 409.353 73.3631C410.966 73.3554 412.565 73.0542 414.066 72.4749C415.484 72.0242 416.75 71.1954 417.726 70.0795L420.593 72.7195ZM417.393 58.7808C417.838 59.779 418.062 60.8601 418.05 61.9513V61.8974H399.792C400.053 59.6553 401.19 57.6055 402.961 56.1913C404.714 54.807 406.899 54.0741 409.138 54.1189C411.431 54.0035 413.687 54.7318 415.476 56.1643C416.296 56.8907 416.951 57.7826 417.393 58.7808ZM377.009 71.5057L364.251 39.7998H359.078L374.544 77.0234H379.556L394.969 39.7998H389.849L377.009 71.5057ZM433.057 50.6739H429.047V76.9161H433.381V62.8663C433.321 60.6308 434.136 58.459 435.657 56.8106C436.395 56.0105 437.296 55.3763 438.301 54.9491C439.306 54.5222 440.391 54.3127 441.481 54.3345C442.561 54.2768 443.637 54.441 444.65 54.8159C445.661 55.1911 446.582 55.7693 447.36 56.5146C448.098 57.3204 448.663 58.2635 449.03 59.2892C449.398 60.3147 449.559 61.4024 449.501 62.4896V76.9161H453.861V62.4359C453.945 60.8168 453.703 59.1971 453.149 57.6721C452.595 56.1471 451.743 54.747 450.638 53.5539C449.547 52.4713 448.241 51.6236 446.806 51.0635C445.371 50.5031 443.835 50.2424 442.294 50.297C440.525 50.2553 438.777 50.6521 437.202 51.4507C435.626 52.2497 434.277 53.4256 433.275 54.8728L433.057 50.6739ZM468.842 50.7818H476.968V54.4961H468.842V68.3306C468.842 71.6679 470.251 73.3637 473.013 73.3637C474.301 73.3353 475.564 73.0034 476.698 72.3948L477.97 76.0014C476.368 76.7682 474.626 77.1991 472.852 77.2663C467.306 77.374 464.533 74.3955 464.533 68.3306V54.4961H459.252V50.7818H464.533V43.5686L468.896 43.084L468.842 50.7818ZM503.516 72.7172L503.732 76.9158H507.741V50.7273H503.353V64.7771C503.416 67 502.609 69.1603 501.105 70.8061C500.362 71.6088 499.455 72.2467 498.447 72.6782C497.44 73.1094 496.352 73.3244 495.252 73.3092C494.176 73.3666 493.097 73.2027 492.086 72.8274C491.073 72.4525 490.152 71.8743 489.374 71.1291C488.645 70.3201 488.082 69.3759 487.72 68.3507C487.356 67.3252 487.201 66.2392 487.261 65.154V50.7273H482.872V65.1807C482.783 66.7961 483.016 68.4136 483.558 69.9385C484.104 71.4632 484.948 72.8653 486.044 74.063C487.118 75.1519 488.412 76.0043 489.839 76.5653C491.268 77.1262 492.798 77.3831 494.331 77.3194C496.125 77.3519 497.896 76.9497 499.498 76.1475C501.096 75.3457 502.477 74.1681 503.516 72.7172Z" fill="#9494A3"/>
<path fill-rule="evenodd" clip-rule="evenodd" d="M316.84 40.0153L285.12 0.262281L267.732 0.26228V76.0852L289.545 76.0183L289.568 36.3323L321.378 76.0852H338.675V0.195322L316.84 0.195321V40.0153ZM245.919 0.195318V76.0852H224.083V0.195317L245.919 0.195318ZM207.168 0.195316L181.76 0.195315L166.731 20.507L151.837 0.195314L126.43 0.195312L154.039 37.7609L125.868 76.1076H151.276L166.731 55.0369L182.322 76.1076H207.729L179.446 37.7609L207.168 0.195316ZM109.514 76.0852V0.195321L87.6784 0.195321V76.0852H109.514ZM59.62 35.8193L58.9687 36.2433L59.6651 36.5784C60.8557 37.1586 71.2569 42.6272 71.2569 54.6134C71.2569 67.1799 61.6867 76.1081 48.0282 76.1081H0.335938L0.335941 0.218211L46.0738 0.218213C58.9013 0.218213 68.2016 8.83396 68.2016 20.7308C68.0658 23.7391 67.2179 26.6732 65.727 29.2948C64.2359 31.9164 62.1437 34.1517 59.62 35.8193ZM40.3904 16.155H22.4187V29.4134H40.3904C45.9391 29.4134 47.8936 26.0207 47.8936 22.8511C47.8936 18.8335 44.8834 16.155 40.3904 16.155ZM22.4187 60.4168H40.5026V60.4389C45.4672 60.4389 48.9493 57.4257 48.9493 52.8278C48.9493 48.2299 45.6245 45.2612 40.5026 45.2612H22.4187V60.4168Z" fill="#1C68F3"/>
</g>
<defs>
<clipPath id="clip0_2119_200">
<rect width="591.301" height="77.5121" fill="white" transform="translate(0.335938 0.195312)"/>
</clipPath>
</defs>
</svg>
