<svg width="592" height="78" viewBox="0 0 592 78" fill="none" xmlns="http://www.w3.org/2000/svg">
<g opacity="0.5" clip-path="url(#clip0_870_199)">
<path fill-rule="evenodd" clip-rule="evenodd" d="M580.424 54.1462C583.099 54.0063 585.728 54.871 587.792 56.5686L587.818 56.6492L590.338 53.7692C587.557 51.3804 583.963 50.1299 580.289 50.2705C578.581 50.2192 576.879 50.4557 575.251 50.9702C573.727 51.4464 572.361 52.3203 571.296 53.5002C570.182 54.7203 569.591 56.3222 569.642 57.9681C569.597 59.1664 569.898 60.3529 570.509 61.3864C571.124 62.3469 572.008 63.1057 573.055 63.5665C574.094 64.0838 575.185 64.4986 576.307 64.8046C577.562 65.1184 578.839 65.3432 580.125 65.4776C581.994 65.622 583.825 66.077 585.544 66.8234C586.124 67.0267 586.615 67.42 586.939 67.9384C587.267 68.4569 587.404 69.0698 587.333 69.6761C587.35 70.3396 587.166 70.9933 586.805 71.5505C586.44 72.108 585.918 72.5429 585.3 72.7984C583.851 73.4679 582.266 73.7995 580.668 73.7673C578.897 73.8647 577.128 73.5506 575.501 72.8498C573.873 72.1491 572.433 71.0805 571.296 69.7301L568.776 72.7445C570.214 74.4274 572.028 75.7502 574.074 76.606C576.124 77.4618 578.343 77.8261 580.559 77.6699C583.323 77.7742 586.058 77.0622 588.415 75.6245C589.411 75.0219 590.229 74.1707 590.792 73.1553C591.351 72.1399 591.635 70.9959 591.612 69.8378C591.673 68.7092 591.432 67.5845 590.906 66.5811C590.493 65.7313 589.902 64.9789 589.173 64.374C588.363 63.7605 587.445 63.3041 586.466 63.0282C585.507 62.7081 584.528 62.4474 583.538 62.2476C582.754 62.113 581.724 61.9783 580.478 61.844C576.144 61.3324 573.922 60.0405 573.922 57.9681C573.902 57.3698 574.06 56.7793 574.379 56.2711C574.697 55.763 575.162 55.3605 575.71 55.1151C577.169 54.3899 578.793 54.056 580.424 54.1462ZM562.573 72.7178L562.57 72.7204L559.674 70.0801C558.706 71.1919 557.452 72.0202 556.043 72.4755C554.53 73.0511 552.925 73.3519 551.304 73.3637C548.95 73.4229 546.651 72.6609 544.802 71.2106C543.929 70.5179 543.209 69.6535 542.687 68.6716C542.164 67.6898 541.851 66.6118 541.768 65.5046H564.171C564.542 63.4976 564.461 61.4343 563.936 59.4618C563.414 57.4889 562.458 55.6556 561.138 54.0925C559.823 52.7555 558.236 51.7114 556.485 51.0293C554.734 50.3472 552.856 50.0426 550.979 50.1359C549.168 50.0793 547.365 50.3888 545.68 51.0457C543.996 51.7028 542.46 52.6935 541.171 53.9578C539.899 55.2379 538.903 56.7618 538.24 58.4369C537.58 60.1117 537.267 61.9028 537.325 63.7011C537.241 65.5307 537.54 67.3577 538.203 69.067C538.866 70.7762 539.876 72.3308 541.171 73.633C542.506 74.8927 544.079 75.8734 545.801 76.5162C547.523 77.1589 549.357 77.4506 551.194 77.3742C553.373 77.3829 555.534 76.9809 557.561 76.1897C559.499 75.4732 561.224 74.2795 562.57 72.7204L562.627 72.7715L562.573 72.7178ZM559.863 61.9519C559.88 60.8624 559.662 59.7821 559.223 58.7837C558.784 57.7855 558.132 56.8924 557.317 56.1649C555.517 54.7327 553.253 54.0049 550.95 54.1195C548.712 54.0747 546.527 54.8076 544.776 56.1919C543.014 57.6089 541.883 59.6593 541.633 61.8979H559.863V61.9519ZM520.476 50.6742L520.481 50.7282H516.468V76.9166H520.829V62.3286C520.791 61.2833 520.972 60.2418 521.36 59.2691C521.744 58.2965 522.33 57.4137 523.076 56.6762C524.526 55.2721 526.472 54.4892 528.495 54.4961C530.14 54.4975 531.745 54.9951 533.1 55.9226L535.077 52.2084C533.326 50.8502 531.148 50.154 528.929 50.2436C527.293 50.1017 525.651 50.4391 524.207 51.2139C522.763 51.989 521.578 53.1675 520.8 54.6038L520.481 50.7282H520.504L520.476 50.6742ZM420.597 72.7195L420.6 72.7172L420.655 72.7709L420.597 72.7195ZM420.597 72.7195C419.257 74.2841 417.532 75.4789 415.589 76.1892C413.571 76.9801 411.418 77.382 409.251 77.3734C407.411 77.4595 405.574 77.1719 403.852 76.5285C402.126 75.8854 400.553 74.8999 399.227 73.6324C397.927 72.3331 396.914 70.7791 396.251 69.069C395.588 67.3591 395.292 65.5307 395.381 63.7005C395.318 61.9014 395.625 60.1086 396.288 58.4329C396.948 56.7569 397.95 55.2336 399.227 53.9573C400.513 52.6904 402.046 51.6979 403.734 51.0408C405.419 50.3837 407.221 50.0756 409.033 50.1353C410.913 50.042 412.79 50.3466 414.541 51.0287C416.292 51.7108 417.876 52.755 419.191 54.0919C420.511 55.6542 421.467 57.4886 421.987 59.462C422.506 61.4355 422.578 63.499 422.199 65.504H399.796C399.882 66.6133 400.2 67.6927 400.726 68.6748C401.254 69.6566 401.977 70.5199 402.855 71.21C404.698 72.6687 407.003 73.4315 409.357 73.3631C410.97 73.3554 412.569 73.0542 414.07 72.4749C415.488 72.0242 416.754 71.1954 417.73 70.0795L420.597 72.7195ZM417.397 58.7808C417.842 59.779 418.066 60.8601 418.054 61.9513V61.8974H399.796C400.057 59.6553 401.194 57.6055 402.965 56.1913C404.718 54.807 406.903 54.0741 409.142 54.1189C411.435 54.0035 413.691 54.7318 415.479 56.1643C416.3 56.8907 416.955 57.7826 417.397 58.7808ZM377.013 71.5057L364.254 39.7998H359.082L374.548 77.0234H379.559L394.973 39.7998H389.853L377.013 71.5057ZM433.061 50.6739H429.051V76.9161H433.385V62.8663C433.325 60.6308 434.14 58.459 435.661 56.8106C436.399 56.0105 437.3 55.3763 438.305 54.9491C439.309 54.5222 440.395 54.3127 441.485 54.3345C442.565 54.2768 443.641 54.441 444.654 54.8159C445.665 55.1911 446.586 55.7693 447.364 56.5146C448.101 57.3204 448.667 58.2635 449.034 59.2892C449.402 60.3147 449.563 61.4024 449.505 62.4896V76.9161H453.865V62.4359C453.948 60.8168 453.707 59.1971 453.153 57.6721C452.599 56.1471 451.747 54.747 450.642 53.5539C449.551 52.4713 448.245 51.6236 446.81 51.0635C445.375 50.5031 443.839 50.2424 442.298 50.297C440.529 50.2553 438.781 50.6521 437.205 51.4507C435.63 52.2497 434.281 53.4256 433.279 54.8728L433.061 50.6739ZM468.846 50.7818H476.972V54.4961H468.846V68.3306C468.846 71.6679 470.255 73.3637 473.016 73.3637C474.305 73.3353 475.568 73.0034 476.702 72.3948L477.974 76.0014C476.372 76.7682 474.63 77.1991 472.856 77.2663C467.31 77.374 464.537 74.3955 464.537 68.3306V54.4961H459.256V50.7818H464.537V43.5686L468.9 43.084L468.846 50.7818ZM503.52 72.7172L503.735 76.9158H507.745V50.7273H503.357V64.7771C503.42 67 502.613 69.1603 501.109 70.8061C500.366 71.6088 499.459 72.2467 498.451 72.6782C497.444 73.1094 496.356 73.3244 495.256 73.3092C494.18 73.3666 493.101 73.2027 492.09 72.8274C491.077 72.4525 490.156 71.8743 489.378 71.1291C488.649 70.3201 488.086 69.3759 487.724 68.3507C487.36 67.3252 487.205 66.2392 487.265 65.154V50.7273H482.876V65.1807C482.787 66.7961 483.02 68.4136 483.562 69.9385C484.108 71.4632 484.952 72.8653 486.048 74.063C487.122 75.1519 488.416 76.0043 489.843 76.5653C491.272 77.1262 492.802 77.3831 494.335 77.3194C496.129 77.3519 497.9 76.9497 499.502 76.1475C501.1 75.3457 502.481 74.1681 503.52 72.7172Z" fill="#9494A3"/>
<path fill-rule="evenodd" clip-rule="evenodd" d="M316.84 40.0153L285.12 0.262281L267.732 0.26228V76.0852L289.545 76.0183L289.568 36.3323L321.378 76.0852H338.675V0.195322L316.84 0.195321V40.0153ZM245.919 0.195318V76.0852H224.083V0.195317L245.919 0.195318ZM207.168 0.195316L181.76 0.195315L166.731 20.507L151.837 0.195314L126.43 0.195312L154.039 37.7609L125.868 76.1075H151.276L166.731 55.0369L182.322 76.1075H207.729L179.446 37.7609L207.168 0.195316ZM109.514 76.0852V0.195321L87.6784 0.195321V76.0852H109.514ZM59.62 35.8193L58.9687 36.2433L59.6651 36.5784C60.8557 37.1586 71.2569 42.6272 71.2569 54.6134C71.2569 67.1799 61.6867 76.1081 48.0282 76.1081H0.335938L0.335941 0.218211L46.0738 0.218213C58.9013 0.218213 68.2016 8.83396 68.2016 20.7308C68.0658 23.7391 67.2179 26.6732 65.727 29.2948C64.2359 31.9164 62.1436 34.1517 59.62 35.8193ZM40.3904 16.155H22.4187V29.4134H40.3904C45.9391 29.4134 47.8936 26.0207 47.8936 22.8511C47.8936 18.8335 44.8834 16.155 40.3904 16.155ZM22.4187 60.4168H40.5026V60.4389C45.4672 60.4389 48.9493 57.4257 48.9493 52.8278C48.9493 48.2299 45.6245 45.2612 40.5026 45.2612H22.4187V60.4168Z" fill="white"/>
</g>
<defs>
<clipPath id="clip0_870_199">
<rect width="591.301" height="77.5121" fill="white" transform="translate(0.335938 0.195312)"/>
</clipPath>
</defs>
</svg>
