<svg width="483" height="338" viewBox="0 0 483 338" fill="none" xmlns="http://www.w3.org/2000/svg">
<g clip-path="url(#clip0_870_10)">
<path opacity="0.5" d="M86.6946 109.616V84.3361H92.4248C100.043 84.3361 104.627 90.4708 104.627 97.01C104.627 103.549 100.043 109.684 92.4248 109.684C92.3574 109.616 86.6946 109.616 86.6946 109.616ZM120.065 96.9426C120.065 83.7294 110.29 71.5274 93.436 71.5274H71.5264V122.425H93.436C110.492 122.425 120.065 110.223 120.065 96.9426ZM126.536 71.5274H141.839V122.425H126.536V71.5274ZM175.681 123.773C190.108 123.773 199.209 115.819 201.029 104.156H205.344V94.1786H177.232V104.156H185.659C184.917 108.066 181.883 111.369 175.951 111.369C167.659 111.369 163.614 104.965 163.614 97.4145C163.614 89.9989 167.457 83.1227 175.277 83.1227C180.535 83.1227 183.367 86.2911 183.838 89.2573H200.557C199.613 78.8081 189.703 70.1791 175.479 70.1791C158.154 70.1791 148.244 82.7856 148.244 97.2796C148.244 111.571 157.884 123.773 175.681 123.773ZM210.669 71.5274H225.972V122.425H210.669V71.5274ZM244.713 122.425H259.814V84.4709H271.342V71.5274H233.186V84.4709H244.713V122.425ZM296.555 86.763L301.948 105.504H291.162L296.555 86.763ZM286.241 122.425L287.993 116.56H305.117L306.869 122.425H323.723L304.51 71.5274H288.667L269.926 122.425H286.241ZM329.318 71.5274V122.425H357.767V109.482H344.486V71.5274C344.486 71.5274 329.318 71.5274 329.318 71.5274ZM96.6045 195.367C112.379 195.367 121.683 185.323 123.301 173.93H107.323C106.312 178.311 102.47 181.615 96.6719 181.615C89.1215 181.615 84.2677 175.952 84.2677 168.536C84.2677 161.66 88.5148 155.458 96.5371 155.458C102.874 155.458 106.514 159.233 107.391 164.02H123.233C121.952 151.818 112.379 141.706 96.5371 141.706C78.8072 141.706 68.7625 154.447 68.7625 168.536C68.695 182.693 78.942 195.367 96.6045 195.367ZM151.143 195.367C164.356 195.367 172.378 187.345 172.378 176.289V143.054H157.277V176.154C157.277 179.66 154.716 182.559 151.143 182.559C147.57 182.559 144.94 179.66 144.94 176.154V143.054H129.84V176.289C129.84 187.345 137.929 195.367 151.143 195.367ZM202.647 169.211H196.377V154.851H202.714C206.759 154.851 209.388 158.155 209.388 162.065C209.456 165.975 206.759 169.211 202.647 169.211ZM224.826 162.065C224.826 151.818 217.343 143.054 205.681 143.054H181.277V193.952H196.377V180.941H199.209L207.905 193.952H225.703L215.523 178.446C221.321 175.21 224.826 168.941 224.826 162.065ZM247.14 154.851H253.477C257.522 154.851 260.151 158.155 260.151 162.065C260.151 165.975 257.455 169.278 253.41 169.278H247.14V154.851V154.851ZM247.14 180.941H249.972L258.601 193.952H276.398L266.219 178.446C272.016 175.21 275.522 168.941 275.522 161.997C275.522 151.75 268.039 142.986 256.376 142.986H231.972V193.952H247.073V180.941H247.14ZM315.566 154.379V143.054H282.802V193.952H315.566V182.626H297.903V174.132H315.566V163.278H297.903V154.379H315.566ZM356.216 173.255L339.633 143.054H324.195V193.952H339.363V164.761L356.014 193.952H371.452V143.054H356.216V173.255ZM405.766 181.615C398.216 181.615 393.362 175.952 393.362 168.536C393.362 161.66 397.609 155.458 405.631 155.458C411.968 155.458 415.608 159.233 416.485 164.02H432.327C431.046 151.818 421.473 141.706 405.631 141.706C387.901 141.706 377.856 154.447 377.856 168.536C377.856 182.693 388.103 195.367 405.766 195.367C421.541 195.367 430.844 185.323 432.462 173.93H416.485C415.474 178.244 411.564 181.615 405.766 181.615ZM465.225 143.054L457.54 161.188L449.315 143.054H431.586L448.641 176.019L439.81 193.952H456.798L482.011 143.054H465.225ZM97.6831 247.276H106.11C105.368 251.186 102.335 254.489 96.4697 254.489C88.1777 254.489 84.1329 248.085 84.1329 240.535C84.1329 233.119 87.9755 226.243 95.7955 226.243C101.054 226.243 103.885 229.479 104.357 232.378H121.076C120.132 221.928 110.222 213.299 95.9978 213.299C78.6723 213.299 68.695 225.906 68.695 240.4C68.695 254.692 78.2679 266.961 96.1326 266.961C110.492 266.961 119.66 259.006 121.48 247.344H125.795V237.366H97.6831V247.276ZM152.491 240.804H146.221V226.378H152.558C156.603 226.378 159.232 229.681 159.232 233.591C159.232 237.501 156.536 240.804 152.491 240.804ZM174.603 233.591C174.603 223.344 167.12 214.648 155.457 214.648H131.053V265.545H146.154V252.534H148.985L157.614 265.545H175.412L165.232 250.04C171.165 246.737 174.603 240.467 174.603 233.591ZM206.827 253.074C199.141 253.074 194.557 246.804 194.557 240.063C194.557 233.321 199.141 227.052 206.827 227.052C214.579 227.052 219.096 233.321 219.096 240.063C219.096 246.804 214.579 253.074 206.827 253.074ZM206.827 213.232C189.366 213.232 179.254 226.041 179.254 240.063C179.254 254.085 189.366 266.894 206.827 266.894C224.354 266.894 234.466 254.085 234.466 240.063C234.466 226.041 224.354 213.232 206.827 213.232ZM283.881 247.815V214.58H268.78V247.681C268.78 251.186 266.219 254.085 262.646 254.085C259.073 254.085 256.444 251.186 256.444 247.681V214.58H241.343V247.815C241.343 258.871 249.432 266.894 262.646 266.894C275.926 266.894 283.881 258.871 283.881 247.815ZM314.217 240.804H307.948V226.378H314.285C318.33 226.378 320.959 229.681 320.959 233.591C320.959 237.501 318.262 240.804 314.217 240.804ZM317.251 214.58H292.847V265.478H307.948V252.467H317.251C328.846 252.467 336.397 243.771 336.397 233.591C336.397 223.344 328.846 214.58 317.251 214.58ZM0 71.5274H50.8977V122.425H0V71.5274ZM257.05 286.174H307.948V337.072H257.05V286.174ZM293.521 0.000976562H344.419V50.8987H293.521V0.000976562Z" fill="white"/>
</g>
<defs>
<clipPath id="clip0_870_10">
<rect width="482.011" height="337.071" fill="white"/>
</clipPath>
</defs>
</svg>
