<svg width="682" height="171" viewBox="0 0 682 171" fill="none" xmlns="http://www.w3.org/2000/svg">
<g opacity="0.5">
<path d="M210.45 54.665C208.45 58.2651 205.65 61.0652 201.849 63.0653C198.049 65.0653 193.649 66.0654 188.649 66.0654H170.648V18.4639H188.649C193.849 18.4639 198.249 19.4639 201.849 21.464C205.65 23.464 208.45 26.2641 210.45 29.8642C212.45 33.4643 213.45 37.6645 213.45 42.2646C213.45 46.8648 212.45 51.0649 210.45 54.665ZM198.049 52.2649C200.449 49.8649 201.849 46.4648 201.849 42.2646C201.849 38.0645 200.649 34.6644 198.049 32.2643C195.649 29.8642 192.049 28.6642 187.649 28.6642H182.249V55.8651H187.649C192.049 55.8651 195.449 54.665 198.049 52.2649Z" fill="white"/>
<path d="M236.651 18.4639V66.2654H225.051V18.6639H236.651V18.4639Z" fill="white"/>
<path d="M286.69 22.4669C290.49 25.467 292.89 29.2672 293.89 34.2673H281.689C280.889 32.4673 279.689 31.2672 277.889 30.2672C276.289 29.2672 274.289 28.6671 271.889 28.6671C268.289 28.6671 265.289 29.8672 263.089 32.2673C260.889 34.6673 259.689 38.0674 259.689 42.2676C259.689 46.8677 260.889 50.2678 263.089 52.6679C265.489 55.068 268.689 56.268 272.889 56.268C275.689 56.268 278.089 55.468 280.089 54.0679C282.089 52.4679 283.689 50.4678 284.489 47.6677H269.889V39.4675H294.09V50.8679C293.29 53.668 291.69 56.268 289.69 58.6681C287.69 61.0682 285.09 63.0683 282.089 64.4683C279.089 65.8684 275.489 66.6684 271.489 66.6684C266.689 66.6684 262.489 65.6683 258.889 63.6683C255.289 61.6682 252.488 58.6681 250.488 55.068C248.488 51.4679 247.488 47.2678 247.488 42.4676C247.488 37.6674 248.488 33.4673 250.488 29.8672C252.488 26.2671 255.289 23.267 258.689 21.2669C262.289 19.2668 266.489 18.2668 271.289 18.2668C277.889 18.0668 282.889 19.4668 286.69 22.4669Z" fill="white"/>
<path d="M317.659 18.4639V66.2654H306.059V18.6639H317.659V18.4639Z" fill="white"/>
<path d="M364.835 18.4639V27.6641H351.834V66.2654H340.234V27.6641H327.434V18.4639H364.835Z" fill="white"/>
<path d="M404.239 57.4694H386.439L383.439 66.2697H371.238L388.639 18.8682H401.839L419.24 66.2697H407.039L404.239 57.4694ZM401.439 48.6691L395.439 31.0685L389.439 48.6691H401.439Z" fill="white"/>
<path d="M440.702 57.2651H456.102V66.0654H429.102V18.4639H440.702V57.2651Z" fill="white"/>
<path d="M195.07 124.071L184.669 106.071H182.069V124.071H170.469V76.4697H190.069C193.87 76.4697 197.07 77.0697 199.67 78.4698C202.27 79.8698 204.27 81.4699 205.47 83.87C206.87 86.07 207.47 88.6701 207.47 91.6702C207.47 95.0703 206.47 98.0704 204.67 100.471C202.67 102.871 200.07 104.471 196.27 105.471L207.67 124.271H195.07V124.071ZM182.069 98.2704H189.269C191.469 98.2704 193.269 97.6704 194.27 96.6704C195.27 95.6703 195.87 94.0703 195.87 92.2702C195.87 90.4702 195.27 88.8701 194.27 87.8701C193.069 86.8701 191.469 86.27 189.269 86.27H182.069V98.2704Z" fill="white"/>
<path d="M230.057 85.6683V95.6686H246.257V104.469H230.057V115.069H248.257V124.27H218.656V76.668H248.257V85.8683H230.057V85.6683Z" fill="white"/>
<path d="M302.045 124.071H290.445L271.244 94.8703V124.071H259.844V76.4697H271.444L290.645 106.071V76.4697H302.245V124.071H302.045Z" fill="white"/>
<path d="M344.65 115.466H326.849L323.849 124.266H311.648L329.049 76.8643H342.249L359.65 124.266H347.45L344.65 115.466ZM341.649 106.665L335.649 89.0646L329.649 106.665H341.649Z" fill="white"/>
<path d="M381.112 76.4697V124.071H369.512V76.4697H381.112Z" fill="white"/>
<path d="M426.429 117.672C425.229 119.872 423.229 121.472 420.829 122.672C418.429 123.872 415.229 124.472 411.829 124.472C406.429 124.472 402.028 123.072 398.628 120.472C395.228 117.872 393.228 114.272 393.028 109.472H405.229C405.429 111.272 406.029 112.672 407.229 113.672C408.429 114.672 409.829 115.272 411.429 115.272C412.829 115.272 414.029 114.872 415.029 114.072C416.029 113.272 416.229 112.272 416.229 110.872C416.229 109.672 415.829 108.672 415.029 107.872C414.229 107.072 413.229 106.472 412.029 105.872C410.829 105.272 409.229 104.672 407.229 104.072C404.229 103.072 401.828 102.072 399.828 101.072C397.828 100.071 396.228 98.6714 394.828 96.6714C393.428 94.6713 392.828 92.2712 392.828 89.2711C392.828 86.471 393.628 84.071 395.028 81.8709C396.428 79.8708 398.428 78.2708 401.028 77.0707C403.628 76.0707 406.429 75.4707 409.829 75.4707C415.229 75.4707 419.429 76.6707 422.429 79.2708C425.629 81.8709 427.229 85.271 427.629 89.6711H415.229C415.029 88.0711 414.429 86.8711 413.429 85.871C412.429 84.871 411.229 84.471 409.629 84.471C408.229 84.471 407.229 84.871 406.429 85.471C405.629 86.2711 405.229 87.2711 405.229 88.6711C405.229 89.8711 405.629 90.6712 406.429 91.4712C407.229 92.2712 408.029 92.8713 409.229 93.4713C410.429 93.8713 412.029 94.6713 414.029 95.2713C417.029 96.2714 419.629 97.2714 421.429 98.2714C423.229 99.2715 425.029 100.671 426.429 102.672C427.829 104.672 428.429 107.072 428.429 110.272C428.229 113.272 427.629 115.472 426.429 117.672Z" fill="white"/>
<path d="M472.093 117.672C470.893 119.872 468.893 121.472 466.493 122.672C464.093 123.872 460.893 124.472 457.493 124.472C452.093 124.472 447.693 123.072 444.292 120.472C440.892 117.872 438.892 114.272 438.692 109.472H450.893C451.093 111.272 451.693 112.672 452.893 113.672C454.093 114.672 455.493 115.272 457.093 115.272C458.493 115.272 459.693 114.872 460.693 114.072C461.693 113.272 461.893 112.272 461.893 110.872C461.893 109.672 461.493 108.672 460.693 107.872C459.893 107.072 458.893 106.472 457.693 105.872C456.493 105.272 454.893 104.672 452.893 104.072C449.893 103.072 447.492 102.072 445.492 101.072C443.492 100.071 441.892 98.6714 440.492 96.6714C439.092 94.6713 438.492 92.2712 438.492 89.2711C438.492 86.471 439.292 84.071 440.692 81.8709C442.092 79.8708 444.092 78.2708 446.692 77.0707C449.293 76.0707 452.093 75.4707 455.493 75.4707C460.893 75.4707 465.093 76.6707 468.093 79.2708C471.293 81.8709 472.893 85.271 473.293 89.6711H460.893C460.693 88.0711 460.093 86.8711 459.093 85.871C458.093 84.871 456.893 84.471 455.293 84.471C453.893 84.471 452.893 84.871 452.093 85.471C451.293 86.2711 450.893 87.2711 450.893 88.6711C450.893 89.8711 451.293 90.6712 452.093 91.4712C452.893 92.2712 453.693 92.8713 454.893 93.4713C456.093 93.8713 457.693 94.6713 459.693 95.2713C462.693 96.2714 465.293 97.2714 467.093 98.2714C469.093 99.2715 470.693 100.671 472.093 102.672C473.493 104.672 474.093 107.072 474.093 110.272C474.093 113.272 473.493 115.472 472.093 117.672Z" fill="white"/>
<path d="M515.114 115.466H497.314L494.314 124.266H482.113L499.514 76.8643H512.714L530.115 124.266H517.914L515.114 115.466ZM512.114 106.665L506.114 89.0646L500.114 106.665H512.114Z" fill="white"/>
<path d="M582.053 124.071H570.453L551.252 94.8703V124.071H539.852V76.4697H551.452L570.653 106.071V76.4697H582.253V124.071H582.053Z" fill="white"/>
<path d="M632.119 80.8736C636.119 84.0737 638.719 88.4739 639.919 93.874H627.719C626.919 91.674 625.519 89.8739 623.519 88.6739C621.719 87.4738 619.519 86.8738 616.919 86.8738C613.519 86.8738 610.919 88.0738 608.718 90.6739C606.718 93.074 605.518 96.4741 605.518 100.674C605.518 104.874 606.518 108.075 608.718 110.475C610.718 112.875 613.519 114.075 616.919 114.075C619.519 114.075 621.719 113.475 623.519 112.275C625.319 111.075 626.719 109.275 627.719 107.074H639.919C638.719 112.475 636.119 116.875 632.119 120.075C628.119 123.275 623.119 124.875 617.119 124.875C612.519 124.875 608.318 123.875 604.918 121.875C601.318 119.875 598.718 116.875 596.718 113.275C594.718 109.675 593.918 105.474 593.918 100.674C593.918 95.8741 594.918 91.674 596.718 88.0738C598.718 84.4737 601.318 81.4737 604.918 79.4736C608.518 77.4735 612.519 76.4735 617.119 76.4735C623.119 76.0735 628.119 77.6735 632.119 80.8736Z" fill="white"/>
<path d="M662.865 85.6683V95.6686H679.066V104.469H662.865V115.069H681.066V124.27H651.465V76.668H681.066V85.8683H662.865V85.6683Z" fill="white"/>
<path d="M213.307 153.677C212.507 155.077 211.307 156.277 209.707 157.077C208.107 157.877 206.307 158.277 204.106 158.277H197.906V138.677H204.106C206.307 138.677 208.107 139.077 209.707 139.877C211.307 140.677 212.507 141.877 213.307 143.277C214.107 144.677 214.507 146.477 214.507 148.477C214.507 150.477 214.107 152.277 213.307 153.677ZM209.907 154.077C211.307 152.677 211.907 150.877 211.907 148.477C211.907 146.077 211.307 144.277 209.907 142.877C208.507 141.477 206.707 140.877 204.106 140.877H200.706V155.877H204.106C206.507 156.077 208.507 155.477 209.907 154.077Z" fill="white"/>
<path d="M220.295 138.873V158.474H217.895V138.873H220.295Z" fill="white"/>
<path d="M239.136 140.282C240.736 141.482 241.737 142.882 242.337 144.883H239.736C239.336 143.682 238.536 142.682 237.336 142.082C236.336 141.282 234.936 141.082 233.536 141.082C232.136 141.082 230.936 141.482 229.936 142.082C228.936 142.682 228.136 143.682 227.536 144.683C226.936 145.883 226.536 147.083 226.536 148.683C226.536 150.283 226.936 151.683 227.536 152.883C228.136 154.083 228.936 154.883 230.136 155.483C231.136 156.083 232.536 156.483 233.936 156.483C235.136 156.483 236.336 156.283 237.336 155.683C238.336 155.083 239.136 154.483 239.736 153.483C240.336 152.483 240.736 151.283 240.936 150.083H233.336V148.283H243.137V150.683C242.937 152.283 242.537 153.683 241.736 154.883C240.936 156.083 239.936 157.083 238.536 157.883C237.136 158.683 235.736 159.083 233.936 159.083C232.136 159.083 230.336 158.683 228.936 157.883C227.536 157.083 226.336 155.883 225.536 154.283C224.736 152.683 224.336 151.083 224.336 149.083C224.336 147.083 224.736 145.483 225.536 143.883C226.336 142.282 227.536 141.282 228.936 140.282C230.336 139.482 232.136 139.082 233.936 139.082C235.536 138.682 237.536 139.282 239.136 140.282Z" fill="white"/>
<path d="M248.495 138.873V158.474H245.895V138.873H248.495Z" fill="white"/>
<path d="M264.726 138.873V140.873H259.126V158.474H256.526V140.873H250.926V138.873H264.726Z" fill="white"/>
<path d="M278.532 153.885H269.931L268.331 158.485H265.531L272.731 139.284H275.532L282.732 158.485H279.932L278.532 153.885ZM277.932 151.885L274.332 142.084L270.731 151.885H277.932Z" fill="white"/>
<path d="M183.473 153.885H174.873L173.273 158.485H170.473L177.673 139.284H180.473L187.673 158.485H184.873L183.473 153.885ZM182.873 151.885L179.273 142.084L175.673 151.885H182.873Z" fill="white"/>
<path d="M288.095 156.474H295.096V158.474H285.695V138.873H288.295V156.474H288.095Z" fill="white"/>
<path d="M319.697 158.474H317.097L306.897 143.073V158.474H304.297V138.873H306.897L317.097 154.274V138.873H319.697V158.474Z" fill="white"/>
<path d="M335.036 153.885H326.435L324.835 158.485H322.035L329.235 139.284H332.035L339.236 158.485H336.436L335.036 153.885ZM334.436 151.885L330.835 142.084L327.235 151.885H334.436Z" fill="white"/>
<path d="M354.109 138.873V140.873H348.509V158.474H345.909V140.873H340.309V138.873H354.109Z" fill="white"/>
<path d="M359.061 138.873V158.474H356.461V138.873H359.061Z" fill="white"/>
<path d="M377.128 139.879C378.528 140.679 379.728 141.88 380.528 143.48C381.328 145.08 381.728 146.68 381.728 148.68C381.728 150.68 381.328 152.28 380.528 153.88C379.728 155.48 378.528 156.68 377.128 157.48C375.728 158.28 374.128 158.68 372.128 158.68C370.328 158.68 368.728 158.28 367.128 157.48C365.727 156.68 364.527 155.48 363.727 153.88C362.927 152.28 362.527 150.68 362.527 148.68C362.527 146.68 362.927 145.08 363.727 143.48C364.527 141.88 365.727 140.679 367.128 139.879C368.528 139.079 370.328 138.679 372.128 138.679C373.928 138.479 375.528 139.079 377.128 139.879ZM368.528 141.88C367.528 142.48 366.728 143.48 365.927 144.48C365.327 145.68 364.927 147.08 364.927 148.48C364.927 150.08 365.327 151.28 365.927 152.48C366.527 153.68 367.327 154.48 368.528 155.08C369.528 155.68 370.728 156.08 372.128 156.08C373.528 156.08 374.728 155.68 375.728 155.08C376.728 154.48 377.528 153.48 378.328 152.48C378.928 151.28 379.328 149.88 379.328 148.48C379.328 146.88 378.928 145.48 378.328 144.48C377.728 143.28 376.928 142.48 375.728 141.88C374.728 141.279 373.528 140.879 372.128 140.879C370.728 140.879 369.528 141.279 368.528 141.88Z" fill="white"/>
<path d="M400.24 158.474H397.64L387.44 143.073V158.474H384.84V138.873H387.44L397.64 154.274V138.873H400.24V158.474Z" fill="white"/>
<path d="M78.4447 108.475C78.4447 106.875 77.0447 105.475 75.4446 105.475H6.24238V3.07139C6.24238 1.47133 4.84234 0.0712891 3.24228 0.0712891C1.64223 0.0712891 0.242188 1.47133 0.242188 3.07139V108.275C0.242188 109.875 1.64223 111.275 3.24228 111.275H75.2446C77.0447 111.275 78.4447 110.075 78.4447 108.475Z" fill="url(#paint0_linear_870_98)"/>
<path d="M37.6815 6.06598H85.283C112.684 6.06598 135.085 28.4667 135.085 55.8676C135.085 75.4682 123.484 93.4688 105.484 101.469C104.084 102.069 103.284 103.869 104.084 105.269C104.484 106.269 105.684 107.069 106.684 107.069C107.084 107.069 107.484 107.069 107.884 106.869C128.084 98.069 141.085 78.0683 141.085 56.0676C141.085 25.4666 116.084 0.46582 85.483 0.46582H32.8813C32.6813 0.46582 32.4813 0.46582 32.2813 0.46582C32.0813 0.46582 31.6813 0.665821 31.4813 0.865827C31.2813 1.06583 31.0813 1.26585 30.8813 1.46585C30.8813 1.46585 30.8813 1.46583 30.8813 1.66584C30.6813 1.86585 30.6813 2.06587 30.4813 2.46588C30.4813 2.46588 30.4813 2.46587 30.4813 2.66587C30.4813 2.86588 30.2812 3.26591 30.2812 3.46592V92.2688C30.2812 93.8688 31.6813 95.2689 33.2813 95.2689C34.8814 95.2689 36.2814 93.8688 36.2814 92.2688V14.2663L120.484 164.071H36.2814V124.27C36.2814 122.67 34.8814 121.27 33.2813 121.27C31.6813 121.27 30.2812 122.67 30.2812 124.27V167.071C30.2812 168.671 31.6813 170.071 33.2813 170.071H125.484C126.484 170.071 127.484 169.471 128.084 168.671C128.684 167.871 128.684 166.671 128.084 165.671L37.6815 6.06598Z" fill="url(#paint1_linear_870_98)"/>
</g>
<defs>
<linearGradient id="paint0_linear_870_98" x1="0.242184" y1="-22.6567" x2="39.3435" y2="111.275" gradientUnits="userSpaceOnUse">
<stop stop-color="white"/>
<stop offset="1" stop-color="white"/>
</linearGradient>
<linearGradient id="paint1_linear_870_98" x1="30.2812" y1="-9.93423" x2="85.683" y2="170.071" gradientUnits="userSpaceOnUse">
<stop offset="0.0001" stop-color="white"/>
<stop offset="1" stop-color="white"/>
</linearGradient>
</defs>
</svg>
