<svg width="854" height="142" viewBox="0 0 854 142" fill="none" xmlns="http://www.w3.org/2000/svg">
<g opacity="0.5">
<path d="M95.3359 4.95117L139.836 48.9512" stroke="#F9F9F9" stroke-width="5" stroke-linecap="round"/>
<path d="M50.3359 4.95117L93.8359 48.4512" stroke="#F9F9F9" stroke-width="5" stroke-linecap="round"/>
<path d="M112.836 95.4512L139.336 123.451" stroke="#F9F9F9" stroke-width="5" stroke-linecap="round"/>
<path d="M95.3359 110.951L123.836 139.451" stroke="#F9F9F9" stroke-width="5" stroke-linecap="round"/>
<path d="M4.33594 95.4512L48.8359 139.451" stroke="#F9F9F9" stroke-width="5" stroke-linecap="round"/>
<path d="M3.83594 50.4512L49.3359 93.9512" stroke="#F9F9F9" stroke-width="5" stroke-linecap="round"/>
<path d="M48.8359 18.9512L19.8359 3.45117H3.33594V19.9512L18.8359 48.4512" stroke="#F9F9F9" stroke-width="5" stroke-linecap="round"/>
<path d="M4.33594 4.45117L49.3359 48.9512" stroke="#F9F9F9" stroke-width="5" stroke-linecap="round"/>
<path d="M48.3359 50.9512H50.8359V48.4512V5.45117H138.836V138.451H4.83594V50.9512H48.3359Z" stroke="#F9F9F9" stroke-width="5" stroke-linecap="round"/>
<path d="M94.3359 3.95117V139.451M49.8359 49.4512H139.336" stroke="#F9F9F9" stroke-width="5" stroke-linecap="round"/>
<path d="M49.3359 50.4512V138.951" stroke="#F9F9F9" stroke-width="5" stroke-linecap="round"/>
<path d="M4.33594 94.4512H139.836" stroke="#F9F9F9" stroke-width="5" stroke-linecap="round"/>
<path d="M192.336 102.751L192.536 76.3512C192.536 67.1512 192.436 59.1512 192.236 52.3512C192.169 50.8845 191.636 49.9178 190.636 49.4512C189.703 48.9178 187.969 48.5845 185.436 48.4512L183.936 48.3512V44.6512C187.669 44.9178 192.236 45.0512 197.636 45.0512C203.036 45.0512 207.269 44.9512 210.336 44.7512L234.136 44.6512L235.336 45.7512C235.203 46.2845 234.736 49.3178 233.936 54.8512C233.136 60.3845 232.703 63.5178 232.636 64.2512H229.236C227.969 57.4512 227.169 53.6512 226.836 52.8512C226.569 51.9845 226.103 51.3178 225.436 50.8512C223.036 50.2512 219.369 49.9512 214.436 49.9512C209.503 49.9512 206.436 50.1845 205.236 50.6512C204.036 51.0512 203.403 51.9512 203.336 53.3512C203.069 68.0178 202.936 75.9512 202.936 77.1512C212.403 77.1512 220.636 76.9845 227.636 76.6512L226.636 84.0512H224.836C222.569 82.4512 217.136 81.5845 208.536 81.4512C205.003 81.4512 203.136 81.4512 202.936 81.4512C202.736 96.2512 202.636 105.818 202.636 110.151C202.636 112.218 204.069 113.585 206.936 114.251C208.003 114.451 209.569 114.618 211.636 114.751L215.436 115.051V118.451H183.236V114.751C185.236 114.618 186.769 114.451 187.836 114.251C188.969 114.051 189.969 113.618 190.836 112.951C191.769 112.285 192.236 111.351 192.236 110.151L192.336 102.751ZM241.654 112.551C240.254 110.618 239.087 107.951 238.154 104.551C237.221 101.085 236.754 96.7512 236.754 91.5512C236.754 86.2845 238.121 81.4178 240.854 76.9512C242.654 74.1512 245.787 71.6178 250.254 69.3512C254.721 67.0178 258.421 65.8512 261.354 65.8512C267.287 65.8512 272.354 67.7512 276.554 71.5512C280.754 75.3512 282.854 81.2845 282.854 89.3512C282.854 97.3512 281.387 103.585 278.454 108.051C274.521 113.318 270.687 116.785 266.954 118.451C264.421 119.585 261.787 120.151 259.054 120.151C256.321 120.151 254.087 119.951 252.354 119.551C250.621 119.218 248.754 118.451 246.754 117.251C244.821 116.051 243.121 114.485 241.654 112.551ZM246.254 92.8512C246.254 100.051 247.621 105.218 250.354 108.351C253.154 111.485 257.187 113.051 262.454 113.051C264.454 113.051 265.921 112.885 266.854 112.551C271.454 110.751 273.754 103.818 273.754 91.7512C273.754 86.0845 272.987 81.9512 271.454 79.3512C269.987 76.6845 267.421 74.7845 263.754 73.6512C261.887 73.1845 260.187 72.9512 258.654 72.9512C257.121 72.9512 255.987 72.9845 255.254 73.0512C254.587 73.1178 253.687 73.3178 252.554 73.6512C251.421 73.9845 250.554 74.5512 249.954 75.3512C249.354 76.0845 248.721 77.1178 248.054 78.4512C246.854 80.8512 246.254 85.6512 246.254 92.8512ZM288.014 118.451V115.051C288.547 114.985 289.247 114.885 290.114 114.751C290.981 114.551 291.547 114.451 291.814 114.451C292.081 114.385 292.481 114.251 293.014 114.051C293.614 113.851 293.981 113.685 294.114 113.551C294.247 113.418 294.481 113.151 294.814 112.751C295.147 112.351 295.314 111.951 295.314 111.551C295.381 111.151 295.481 110.618 295.614 109.951C295.747 109.218 295.814 108.451 295.814 107.651V86.1512C295.814 79.2845 295.714 68.3178 295.514 53.2512L295.414 48.4512C295.347 46.7845 294.947 45.7178 294.214 45.2512C293.481 44.7845 292.014 44.5512 289.814 44.5512H288.514L288.314 41.2512C293.247 40.6512 296.914 40.0845 299.314 39.5512C301.714 38.9512 303.047 38.6512 303.314 38.6512C304.447 38.6512 305.014 39.1512 305.014 40.1512C305.147 45.6178 305.214 52.4512 305.214 60.6512C305.214 68.8512 305.047 77.6178 304.714 86.9512C304.381 96.2178 304.214 103.551 304.214 108.951C304.214 111.485 304.581 113.051 305.314 113.651C306.114 114.185 308.214 114.651 311.614 115.051V118.451H288.014ZM328.332 57.9512C327.265 57.9512 326.065 57.1512 324.732 55.5512C323.399 53.8845 322.732 52.6845 322.732 51.9512C322.732 51.1512 323.265 49.7512 324.332 47.7512C325.465 45.7512 326.632 44.7512 327.832 44.7512C329.032 44.7512 330.365 45.3845 331.832 46.6512C333.299 47.8512 334.032 49.2512 334.032 50.8512C334.032 52.4512 333.332 54.0512 331.932 55.6512C330.599 57.1845 329.399 57.9512 328.332 57.9512ZM316.832 118.451V115.051C320.232 114.785 322.365 114.351 323.232 113.751C324.099 113.085 324.532 111.751 324.532 109.751V88.9512C324.532 83.1512 324.365 79.1178 324.032 76.8512C323.765 74.5845 323.299 73.1512 322.632 72.5512C321.965 71.8845 320.699 71.5512 318.832 71.5512H317.332L317.132 68.2512C322.065 67.7845 325.732 67.2845 328.132 66.7512C330.599 66.1512 331.932 65.8512 332.132 65.8512C333.265 65.8512 333.832 66.3845 333.832 67.4512C333.832 68.2512 333.799 70.4512 333.732 74.0512C333.465 88.3178 333.332 100.618 333.332 110.951C333.332 112.285 333.865 113.285 334.932 113.951C335.999 114.551 337.699 114.918 340.032 115.051V118.451H316.832ZM381.155 103.651L381.355 79.9512C381.355 75.1512 380.921 72.5178 380.055 72.0512C379.588 71.7845 378.755 71.6512 377.555 71.6512H374.355L374.155 68.3512C379.355 67.8845 383.088 67.3845 385.355 66.8512C387.688 66.2512 388.955 65.9512 389.155 65.9512C390.355 65.9512 390.955 66.4512 390.955 67.4512C390.955 75.8512 390.821 84.0178 390.555 91.9512C390.288 99.8845 390.155 104.585 390.155 106.051C390.155 107.518 390.888 109.451 392.355 111.851C393.888 114.185 394.655 115.551 394.655 115.951C394.655 116.285 394.355 116.551 393.755 116.751C389.088 118.285 386.455 119.051 385.855 119.051C385.321 119.051 384.755 118.585 384.155 117.651C383.621 116.651 383.121 115.451 382.655 114.051C382.188 112.651 381.921 111.918 381.855 111.851C377.855 114.651 374.188 116.618 370.855 117.751C367.521 118.818 364.821 119.351 362.755 119.351C360.755 119.351 358.621 118.385 356.355 116.451C354.155 114.518 352.688 112.118 351.955 109.251C351.288 107.118 350.955 102.985 350.955 96.8512V80.7512C350.955 79.0845 350.655 76.7845 350.055 73.8512C349.921 73.3845 349.488 72.9845 348.755 72.6512C348.021 72.3178 347.455 72.1512 347.055 72.1512C346.655 72.0845 345.788 72.0512 344.455 72.0512L344.255 68.6512C348.521 68.1845 351.888 67.6178 354.355 66.9512C356.821 66.2845 358.188 65.9512 358.455 65.9512C359.655 65.9512 360.255 66.4512 360.255 67.4512L359.855 96.6512C359.855 101.585 360.121 104.851 360.655 106.451C361.255 108.051 362.155 109.285 363.355 110.151C364.621 111.018 365.855 111.451 367.055 111.451C368.321 111.451 370.055 111.218 372.255 110.751C374.521 110.285 376.355 109.685 377.755 108.951C379.221 108.151 380.155 107.485 380.555 106.951C380.955 106.351 381.155 105.251 381.155 103.651ZM410.821 95.2512C408.421 94.3178 406.354 92.8178 404.621 90.7512C402.954 88.6845 402.121 86.0178 402.121 82.7512C402.121 79.4845 402.688 76.9845 403.821 75.2512C406.221 71.3845 408.488 68.8845 410.621 67.7512C412.754 66.5512 415.488 65.9512 418.821 65.9512C422.154 65.9512 425.154 66.5178 427.821 67.6512C428.554 67.9178 429.088 68.1845 429.421 68.4512C430.621 69.1845 431.221 70.5512 431.221 72.5512C431.221 72.7512 431.188 73.2512 431.121 74.0512C430.988 75.7845 430.921 78.5512 430.921 82.3512H427.221C427.154 81.4845 426.854 80.2178 426.321 78.5512C425.854 76.8845 425.321 75.6178 424.721 74.7512C423.388 72.8178 420.888 71.8512 417.221 71.8512C413.688 71.8512 411.354 72.7178 410.221 74.4512C409.288 75.8512 408.821 77.4178 408.821 79.1512C408.821 80.8178 409.654 82.3178 411.321 83.6512C412.988 84.9178 415.021 85.9512 417.421 86.7512C419.821 87.5512 422.221 88.4512 424.621 89.4512C427.088 90.3845 429.154 91.9845 430.821 94.2512C432.488 96.4512 433.321 99.2845 433.321 102.751C433.321 106.218 432.821 108.785 431.821 110.451C430.021 113.318 427.888 115.718 425.421 117.651C424.421 118.385 422.854 118.985 420.721 119.451C418.588 119.918 416.988 120.151 415.921 120.151C408.788 120.151 404.521 118.951 403.121 116.551C402.588 115.685 402.321 114.551 402.321 113.151C402.321 107.751 402.454 104.451 402.721 103.251C403.054 101.985 403.754 101.351 404.821 101.351C405.954 101.351 406.654 101.818 406.921 102.751C407.188 103.685 407.421 104.985 407.621 106.651C408.354 111.385 411.621 113.751 417.421 113.751C420.354 113.751 422.654 113.085 424.321 111.751C425.988 110.418 426.821 108.618 426.821 106.351C426.821 104.018 425.954 102.185 424.221 100.851C422.554 99.5178 420.488 98.4845 418.021 97.7512C415.621 96.9512 413.221 96.1178 410.821 95.2512ZM460.316 48.3512V44.6512H487.916V48.3512C482.983 48.7512 480.516 49.9178 480.516 51.8512V52.2512C480.516 53.3845 483.216 61.7845 488.616 77.4512C494.016 93.0512 497.616 102.685 499.416 106.351C502.75 98.8845 507.016 88.4512 512.216 75.0512C517.416 61.6512 520.016 54.2845 520.016 52.9512C520.016 51.5512 519.483 50.5512 518.416 49.9512C517.416 49.3512 515.183 48.8845 511.716 48.5512V44.6512H535.316V48.2512C532.65 48.5178 530.683 49.4178 529.416 50.9512C528.216 52.4178 526.383 56.0512 523.916 61.8512L500.416 118.451H494.016L468.116 54.6512C467.25 52.5178 466.283 50.9845 465.216 50.0512C464.216 49.0512 462.583 48.4845 460.316 48.3512ZM540.516 78.5512C541.583 76.0845 544.15 73.4178 548.216 70.5512C552.283 67.6178 555.95 66.1512 559.216 66.1512C562.55 66.1512 565.383 66.5178 567.716 67.2512C570.05 67.9845 571.883 69.0845 573.216 70.5512C574.55 71.9512 575.616 73.3512 576.416 74.7512C577.283 76.0845 577.85 77.7845 578.116 79.8512C578.65 83.1845 578.916 85.7178 578.916 87.4512V90.3512C576.783 91.6845 573.283 92.3512 568.416 92.3512H547.916C547.916 99.4845 548.45 104.051 549.516 106.051C551.116 108.985 553.116 110.818 555.516 111.551C557.05 112.018 558.85 112.251 560.916 112.251C566.716 112.251 572.016 109.885 576.816 105.151L579.016 107.451C578.75 107.718 578.116 108.385 577.116 109.451C576.116 110.451 575.45 111.118 575.116 111.451C574.783 111.785 574.15 112.418 573.216 113.351C572.283 114.218 571.55 114.818 571.016 115.151C570.55 115.485 569.85 115.985 568.916 116.651C568.05 117.318 567.283 117.785 566.616 118.051C566.016 118.318 565.25 118.651 564.316 119.051C562.783 119.651 560.983 119.951 558.916 119.951C554.916 119.951 551.483 119.185 548.616 117.651C545.816 116.051 543.716 113.918 542.316 111.251C539.65 106.385 538.316 100.585 538.316 93.8512C538.316 87.1178 539.05 82.0178 540.516 78.5512ZM548.116 87.8512H553.816C562.683 87.8512 567.95 87.2512 569.616 86.0512C569.616 83.1845 569.15 80.7178 568.216 78.6512C566.483 74.6512 563.416 72.6512 559.016 72.6512C554.616 72.6512 551.683 73.7845 550.216 76.0512C548.816 78.2512 548.116 82.1845 548.116 87.8512ZM585.196 69.1512C587.929 68.8845 590.663 68.2512 593.396 67.2512C596.196 66.2512 597.996 65.7512 598.796 65.7512C599.663 65.7512 600.263 66.1512 600.596 66.9512C600.929 67.6845 601.096 69.0512 601.096 71.0512V72.4512C608.763 68.1178 614.763 65.9512 619.096 65.9512C623.496 65.9512 626.529 67.1512 628.196 69.5512C629.863 71.8845 630.696 74.5845 630.696 77.6512V111.051C630.696 112.518 630.996 113.518 631.596 114.051C632.263 114.585 633.729 114.918 635.996 115.051V118.451H615.596V115.051C618.129 114.851 619.696 114.451 620.296 113.851C620.963 113.251 621.296 112.185 621.296 110.651V78.9512C621.296 77.2845 620.763 76.0178 619.696 75.1512C618.696 74.2178 617.629 73.6845 616.496 73.5512C615.429 73.3512 614.163 73.2512 612.696 73.2512C611.296 73.2512 609.396 73.6512 606.996 74.4512C604.596 75.1845 602.729 76.0178 601.396 76.9512C601.329 80.8845 601.229 84.9845 601.096 89.2512C600.829 97.9178 600.696 103.918 600.696 107.251C600.696 110.518 601.029 112.618 601.696 113.551C602.363 114.418 603.996 114.918 606.596 115.051V118.451H585.596V115.051C587.596 114.785 588.996 114.418 589.796 113.951C590.663 113.418 591.196 112.651 591.396 111.651C591.663 109.918 591.796 107.918 591.796 105.651C591.796 103.318 591.696 97.9178 591.496 89.4512C591.296 80.9178 591.163 76.5178 591.096 76.2512C591.029 75.9178 590.929 75.6178 590.796 75.3512C590.729 75.0178 590.596 74.7512 590.396 74.5512C590.263 74.3512 590.129 74.1845 589.996 74.0512C589.929 73.9178 589.763 73.7845 589.496 73.6512C589.229 73.5178 589.029 73.4512 588.896 73.4512C588.763 73.3845 588.496 73.3178 588.096 73.2512C587.763 73.1845 587.529 73.1178 587.396 73.0512C586.996 72.9845 586.363 72.9512 585.496 72.9512L585.196 69.1512ZM647.744 99.6512L648.044 73.6512H639.344V70.6512L648.044 68.9512V59.7512L655.744 57.3512C656.744 57.3512 657.244 57.8512 657.244 58.8512L657.044 64.9512V68.0512H669.744L669.444 73.6512H657.044L656.744 98.3512C656.744 103.485 657.044 107.185 657.644 109.451C658.31 111.718 659.51 112.851 661.244 112.851C662.977 112.851 665.477 111.885 668.744 109.951L670.844 111.951C665.71 117.285 661.51 119.951 658.244 119.951C653.91 119.951 651.077 118.485 649.744 115.551C648.41 112.618 647.744 107.318 647.744 99.6512ZM710.94 103.651L711.14 79.9512C711.14 75.1512 710.707 72.5178 709.84 72.0512C709.373 71.7845 708.54 71.6512 707.34 71.6512H704.14L703.94 68.3512C709.14 67.8845 712.873 67.3845 715.14 66.8512C717.473 66.2512 718.74 65.9512 718.94 65.9512C720.14 65.9512 720.74 66.4512 720.74 67.4512C720.74 75.8512 720.607 84.0178 720.34 91.9512C720.073 99.8845 719.94 104.585 719.94 106.051C719.94 107.518 720.673 109.451 722.14 111.851C723.673 114.185 724.44 115.551 724.44 115.951C724.44 116.285 724.14 116.551 723.54 116.751C718.873 118.285 716.24 119.051 715.64 119.051C715.107 119.051 714.54 118.585 713.94 117.651C713.407 116.651 712.907 115.451 712.44 114.051C711.973 112.651 711.707 111.918 711.64 111.851C707.64 114.651 703.973 116.618 700.64 117.751C697.307 118.818 694.607 119.351 692.54 119.351C690.54 119.351 688.407 118.385 686.14 116.451C683.94 114.518 682.473 112.118 681.74 109.251C681.073 107.118 680.74 102.985 680.74 96.8512V80.7512C680.74 79.0845 680.44 76.7845 679.84 73.8512C679.707 73.3845 679.273 72.9845 678.54 72.6512C677.807 72.3178 677.24 72.1512 676.84 72.1512C676.44 72.0845 675.573 72.0512 674.24 72.0512L674.04 68.6512C678.307 68.1845 681.673 67.6178 684.14 66.9512C686.607 66.2845 687.973 65.9512 688.24 65.9512C689.44 65.9512 690.04 66.4512 690.04 67.4512L689.64 96.6512C689.64 101.585 689.907 104.851 690.44 106.451C691.04 108.051 691.94 109.285 693.14 110.151C694.407 111.018 695.64 111.451 696.84 111.451C698.107 111.451 699.84 111.218 702.04 110.751C704.307 110.285 706.14 109.685 707.54 108.951C709.007 108.151 709.94 107.485 710.34 106.951C710.74 106.351 710.94 105.251 710.94 103.651ZM746.806 82.2512L746.706 109.351C746.706 111.418 747.306 112.785 748.506 113.451C749.706 114.051 751.506 114.518 753.906 114.851C756.373 115.185 757.706 115.351 757.906 115.351V118.451H729.906V115.051C731.506 114.851 732.573 114.751 733.106 114.751C733.64 114.685 734.306 114.485 735.106 114.151C735.973 113.751 736.473 113.418 736.606 113.151C736.74 112.818 736.94 112.151 737.206 111.151C737.473 110.151 737.606 109.151 737.606 108.151V100.251C737.606 86.8512 737.373 78.9845 736.906 76.6512C736.373 74.0512 734.44 72.7512 731.106 72.7512L730.906 68.9512C733.573 68.6845 736.306 68.0512 739.106 67.0512C741.906 66.0512 743.706 65.5512 744.506 65.5512C745.306 65.5512 745.873 65.9512 746.206 66.7512C746.54 67.4845 746.706 68.8512 746.706 70.8512L746.806 74.6512C752.673 68.9845 757.306 66.1512 760.706 66.1512C763.173 66.1512 764.873 66.4512 765.806 67.0512C766.74 67.6512 767.206 68.7512 767.206 70.3512C767.206 70.8845 766.673 74.4845 765.606 81.1512H762.006C761.673 76.1512 759.973 73.6512 756.906 73.6512C755.173 73.6512 753.04 74.4512 750.506 76.0512C748.04 77.5845 746.806 79.6512 746.806 82.2512ZM772.45 78.5512C773.517 76.0845 776.083 73.4178 780.15 70.5512C784.217 67.6178 787.883 66.1512 791.15 66.1512C794.483 66.1512 797.317 66.5178 799.65 67.2512C801.983 67.9845 803.817 69.0845 805.15 70.5512C806.483 71.9512 807.55 73.3512 808.35 74.7512C809.217 76.0845 809.783 77.7845 810.05 79.8512C810.583 83.1845 810.85 85.7178 810.85 87.4512V90.3512C808.717 91.6845 805.217 92.3512 800.35 92.3512H779.85C779.85 99.4845 780.383 104.051 781.45 106.051C783.05 108.985 785.05 110.818 787.45 111.551C788.983 112.018 790.783 112.251 792.85 112.251C798.65 112.251 803.95 109.885 808.75 105.151L810.95 107.451C810.683 107.718 810.05 108.385 809.05 109.451C808.05 110.451 807.383 111.118 807.05 111.451C806.717 111.785 806.083 112.418 805.15 113.351C804.217 114.218 803.483 114.818 802.95 115.151C802.483 115.485 801.783 115.985 800.85 116.651C799.983 117.318 799.217 117.785 798.55 118.051C797.95 118.318 797.183 118.651 796.25 119.051C794.717 119.651 792.917 119.951 790.85 119.951C786.85 119.951 783.417 119.185 780.55 117.651C777.75 116.051 775.65 113.918 774.25 111.251C771.583 106.385 770.25 100.585 770.25 93.8512C770.25 87.1178 770.983 82.0178 772.45 78.5512ZM780.05 87.8512H785.75C794.617 87.8512 799.883 87.2512 801.55 86.0512C801.55 83.1845 801.083 80.7178 800.15 78.6512C798.417 74.6512 795.35 72.6512 790.95 72.6512C786.55 72.6512 783.617 73.7845 782.15 76.0512C780.75 78.2512 780.05 82.1845 780.05 87.8512ZM827.13 95.2512C824.73 94.3178 822.663 92.8178 820.93 90.7512C819.263 88.6845 818.43 86.0178 818.43 82.7512C818.43 79.4845 818.996 76.9845 820.13 75.2512C822.53 71.3845 824.796 68.8845 826.93 67.7512C829.063 66.5512 831.796 65.9512 835.13 65.9512C838.463 65.9512 841.463 66.5178 844.13 67.6512C844.863 67.9178 845.396 68.1845 845.73 68.4512C846.93 69.1845 847.53 70.5512 847.53 72.5512C847.53 72.7512 847.496 73.2512 847.43 74.0512C847.296 75.7845 847.23 78.5512 847.23 82.3512H843.53C843.463 81.4845 843.163 80.2178 842.63 78.5512C842.163 76.8845 841.63 75.6178 841.03 74.7512C839.696 72.8178 837.196 71.8512 833.53 71.8512C829.996 71.8512 827.663 72.7178 826.53 74.4512C825.596 75.8512 825.13 77.4178 825.13 79.1512C825.13 80.8178 825.963 82.3178 827.63 83.6512C829.296 84.9178 831.33 85.9512 833.73 86.7512C836.13 87.5512 838.53 88.4512 840.93 89.4512C843.396 90.3845 845.463 91.9845 847.13 94.2512C848.796 96.4512 849.63 99.2845 849.63 102.751C849.63 106.218 849.13 108.785 848.13 110.451C846.33 113.318 844.196 115.718 841.73 117.651C840.73 118.385 839.163 118.985 837.03 119.451C834.896 119.918 833.296 120.151 832.23 120.151C825.096 120.151 820.83 118.951 819.43 116.551C818.896 115.685 818.63 114.551 818.63 113.151C818.63 107.751 818.763 104.451 819.03 103.251C819.363 101.985 820.063 101.351 821.13 101.351C822.263 101.351 822.963 101.818 823.23 102.751C823.496 103.685 823.73 104.985 823.93 106.651C824.663 111.385 827.93 113.751 833.73 113.751C836.663 113.751 838.963 113.085 840.63 111.751C842.296 110.418 843.13 108.618 843.13 106.351C843.13 104.018 842.263 102.185 840.53 100.851C838.863 99.5178 836.796 98.4845 834.33 97.7512C831.93 96.9512 829.53 96.1178 827.13 95.2512Z" fill="white"/>
</g>
</svg>
