<svg width="521" height="86" viewBox="0 0 521 86" fill="none" xmlns="http://www.w3.org/2000/svg">
<g clip-path="url(#clip0_2119_34)">
<path d="M311.99 43.3078C311.99 56.2468 311.99 69.1858 311.99 82.1248C311.99 84.0417 311.99 84.0417 310.073 84.0417C305.281 84.0417 300.009 84.0417 295.217 84.0417C293.3 84.0417 293.3 84.0417 293.3 82.1248C293.3 73.0196 293.3 63.9143 293.3 54.8091C293.3 54.3299 293.3 53.3715 293.3 52.8922C293.3 51.9338 292.821 51.4546 291.863 50.9754C291.383 50.9754 290.904 50.9754 290.425 50.9754C281.32 50.9754 272.214 50.9754 263.109 50.9754C262.63 50.9754 262.63 50.9754 262.151 50.9754C261.192 50.9754 260.234 51.4546 260.234 52.8922C260.234 55.2883 260.234 57.6845 260.234 60.0806C260.234 67.2689 260.234 74.9364 260.234 82.1248C260.234 84.0417 260.234 84.0417 258.317 84.0417C253.046 84.0417 247.774 84.0417 242.982 84.0417C242.503 84.0417 242.023 84.0417 242.023 83.0832C242.023 82.604 242.023 81.6455 242.023 81.1663C242.023 55.7676 242.023 30.3688 242.023 4.97006C242.023 4.49084 242.023 3.53239 242.023 3.05317C242.023 2.09473 242.503 2.09473 242.982 2.09473C248.253 2.09473 254.004 2.09473 259.275 2.09473C260.234 2.09473 260.234 2.57395 260.234 3.53239C260.234 5.9285 260.234 8.80383 260.234 11.1999C260.234 17.909 260.234 24.1389 260.234 30.848C260.234 31.3273 260.234 31.8065 260.234 32.7649C260.234 34.6818 260.713 35.161 262.151 35.161C263.588 35.161 265.026 35.161 266.464 35.161C274.611 35.161 282.757 35.161 290.425 35.161C292.821 35.161 293.3 34.6818 293.3 32.2857C293.3 23.1805 293.3 13.5961 293.3 4.49084C293.3 2.57395 293.3 2.57395 294.738 2.57395C300.009 2.57395 305.281 2.57395 310.073 2.57395C311.511 2.57395 311.511 2.57395 311.511 4.49084C311.99 16.9506 311.99 29.8896 311.99 43.3078Z" fill="#2C6A9E"/>
<path d="M69.9832 43.3106C69.9832 56.2496 69.9832 69.1886 69.9832 82.1276C69.9832 84.0445 69.9832 84.0445 68.5455 84.0445C63.2741 84.0445 58.4819 84.0445 53.2104 84.0445C51.2935 84.0445 51.2935 84.0445 51.2935 82.1276C51.2935 73.0224 51.2935 63.438 51.2935 54.3327C51.2935 53.8535 51.2935 52.8951 51.2935 52.4159C51.2935 51.4574 51.2935 50.9782 49.8559 50.9782C39.7922 50.9782 30.2078 50.9782 20.1441 50.9782C19.1857 50.9782 19.1857 51.4574 19.1857 52.4159C19.1857 61.5211 19.1857 71.1055 19.1857 80.2107C19.1857 81.1692 19.1857 82.6068 19.1857 83.5653C17.748 83.5653 16.7896 84.0445 15.3519 84.0445C11.0389 84.0445 6.2467 84.0445 1.9337 84.0445C0.496034 84.0445 0.496034 83.5653 0.496034 82.6068C0.496034 82.1276 0.496034 81.1692 0.496034 80.6899C0.496034 55.7704 0.496034 31.3301 0.496034 6.41056C0.496034 5.45211 0.975256 4.01445 0.496034 3.53522C-0.46241 2.57678 0.496034 2.57678 0.975256 2.57678C6.2467 2.57678 11.9974 2.57678 17.2688 2.57678C19.1857 2.09756 19.1857 2.09756 19.1857 4.01445C19.1857 13.1197 19.1857 22.2249 19.1857 31.3301C19.1857 32.2885 19.1857 32.7678 19.1857 33.7262C19.1857 34.2054 19.6649 34.2054 20.1441 34.6846C20.6234 34.6846 21.1026 34.6846 21.5818 34.6846C31.1662 34.6846 40.7507 34.6846 50.3351 34.6846C51.7728 34.6846 51.7728 34.6846 51.7728 33.247C51.7728 23.6625 51.7728 14.0781 51.7728 4.49367C51.7728 2.57678 51.7728 2.57678 53.6897 2.57678C58.9611 2.57678 63.7533 2.57678 69.0247 2.57678C70.4624 2.57678 70.4624 2.57678 70.4624 4.49367C69.9832 16.9534 69.9832 30.3716 69.9832 43.3106Z" fill="#2C6A9E"/>
<path d="M373.797 43.3078C373.797 30.3688 373.797 17.909 373.797 4.97006C373.797 4.49084 373.797 3.53239 373.797 3.05317C373.797 2.57395 374.276 2.57395 374.276 2.09473C374.755 2.09473 374.755 2.09473 375.235 2.09473C394.883 2.09473 414.531 2.09473 434.658 2.09473C436.575 2.09473 437.054 2.57395 436.096 4.01161C435.616 4.97006 436.575 4.97006 436.575 5.44928C436.575 8.80383 436.575 12.6376 436.575 15.9922C436.575 16.9506 436.096 17.4298 435.137 17.909C434.179 17.909 433.7 17.909 432.741 17.909C419.802 17.909 407.342 17.909 394.403 17.909C392.487 17.909 392.487 17.4298 392.487 19.8259C392.487 24.1389 392.487 28.9311 392.487 33.2441C392.487 34.2026 392.966 34.6818 393.924 34.6818C405.426 34.6818 416.448 34.6818 427.949 34.6818C428.907 34.6818 429.387 34.6818 430.345 34.6818C430.824 34.6818 431.303 35.161 431.303 35.6403C431.303 40.4325 431.303 45.7039 431.303 50.4961C431.303 51.4546 430.824 51.4546 430.345 51.4546C425.074 51.4546 419.323 51.4546 414.052 51.4546C407.342 51.4546 401.113 51.4546 394.403 51.4546C392.487 51.4546 392.487 51.4546 392.487 53.3715C392.487 57.6845 392.487 62.4767 392.487 66.7897C392.487 68.7066 392.487 68.7066 394.403 68.7066C407.822 68.7066 420.761 68.7066 434.179 68.7066C436.575 68.7066 436.575 68.7066 436.575 71.1027C436.575 75.4157 436.575 79.2494 436.575 83.5624C436.575 84.5209 436.575 85.0001 435.617 84.5209C435.137 84.5209 435.137 84.5209 434.658 84.5209C415.01 84.5209 395.841 84.5209 376.193 84.5209C374.276 84.5209 374.276 84.5209 374.276 82.604C373.797 69.1858 373.797 56.2468 373.797 43.3078Z" fill="#2C6A9E"/>
<path d="M155.758 84.048C152.882 84.048 150.486 84.048 147.611 84.048C146.173 84.048 145.694 83.5687 145.215 82.1311C144.256 79.2557 143.298 76.8596 141.86 73.9843C140.902 72.0674 139.943 70.1505 139.464 67.7544C138.985 66.3167 138.506 65.8375 137.068 65.8375C128.921 65.8375 120.774 65.8375 113.107 65.8375C110.232 65.8375 107.835 65.8375 104.96 65.8375C104.002 65.8375 104.002 65.8375 103.522 66.796C101.606 69.6713 101.126 73.5051 99.6886 76.3804C99.2094 77.3388 98.7302 78.2973 98.251 78.7765C97.7717 80.2142 97.2925 81.6518 96.3341 83.0895C94.4172 83.0895 92.5003 83.0895 90.5834 83.0895C86.7496 83.0895 82.9159 83.0895 79.0821 83.0895C77.6444 83.0895 77.1652 82.6103 78.1236 81.1726C78.6029 80.2142 79.0821 78.7765 79.5613 77.8181C80.999 73.9843 82.9159 70.6297 84.3535 66.796C86.2704 61.5245 89.1457 56.7323 90.5834 51.4609C91.0626 49.544 92.5003 47.6271 92.9795 46.1894C94.8964 42.3557 96.8133 38.0427 98.251 33.7297C100.168 28.9374 102.085 23.666 104.481 18.8738C106.398 15.04 107.835 10.727 109.752 6.89324C110.232 7.85168 110.232 6.89324 110.711 6.41402C111.19 4.97635 112.148 3.53869 112.628 1.6218C114.065 1.6218 115.503 1.14258 116.941 1.14258C121.254 1.14258 125.087 1.14258 129.4 1.14258C129.88 1.14258 130.359 1.14258 130.359 2.10102C130.838 4.01791 132.276 6.41402 132.755 8.33091C134.193 12.6439 136.589 16.4777 138.026 20.7907C139.464 24.6244 140.902 28.4582 142.819 31.8128C143.777 34.2089 145.215 36.605 146.173 39.4803C147.132 41.8764 148.09 44.2725 149.048 46.6687C150.007 49.0648 151.445 51.4609 152.403 54.3362C155.278 60.5661 157.674 66.796 160.55 73.0258C160.55 74.9427 161.987 76.3804 162.467 77.8181C162.946 79.735 163.904 81.1726 164.384 82.6103C164.863 83.5687 164.863 84.048 163.904 84.048C161.508 84.048 158.633 84.048 155.758 84.048ZM121.254 49.544C124.608 49.544 127.963 49.544 131.317 49.544C131.796 49.544 131.796 49.544 131.796 48.5855C130.359 45.231 128.921 41.3972 127.483 38.0427C126.046 34.2089 124.129 30.8543 123.171 27.0206C122.691 26.0621 122.212 25.1037 121.733 24.1452H121.254C120.774 24.6244 120.774 24.6244 120.774 25.1037C118.858 30.3751 116.941 34.6881 115.024 39.0011C113.586 42.3557 112.628 45.7102 111.19 49.0648C110.711 49.544 111.19 49.544 111.669 49.544C115.024 49.544 117.899 49.544 121.254 49.544Z" fill="#2C6A9E"/>
<path d="M200.359 85.4835C197.484 85.4835 193.65 85.4835 190.296 84.5251C185.503 83.5666 181.19 81.6497 176.877 79.7328C173.523 77.8159 170.648 75.8991 167.772 73.9822C166.335 72.5445 166.335 72.0653 167.293 70.6276C170.168 66.7938 173.523 63.9185 175.919 59.6055C175.919 59.6055 176.398 59.1263 176.877 59.6055C177.836 60.0847 178.794 60.564 179.753 61.5224C183.107 64.3977 186.941 66.3146 190.775 67.7523C194.129 69.1899 201.797 69.6692 205.151 69.1899C208.027 68.7107 210.423 67.2731 212.34 64.877C212.34 63.4393 213.777 62.0016 212.819 60.564C212.34 58.6471 211.381 57.2094 209.464 56.251C205.631 54.3341 201.797 53.3756 197.963 51.938C192.692 50.5003 187.42 49.5419 182.628 47.1457C179.274 45.2289 175.919 43.312 173.523 40.4366C171.127 38.0405 170.648 35.1652 169.689 32.2899C169.21 29.8938 168.731 27.0184 168.731 24.1431C170.168 18.3924 172.564 10.2457 179.274 5.93267C183.107 3.53656 185.503 2.57812 191.254 1.14045C193.65 0.66123 195.567 1.14045 197.963 0.66123C200.359 0.66123 202.755 0.182008 204.672 0.66123C208.027 1.14045 211.381 1.61967 214.257 2.57812C218.57 4.495 222.403 5.93267 226.237 8.808C226.716 9.28722 227.675 9.76645 228.154 10.2457C229.113 10.7249 229.113 11.2041 228.633 12.6418C225.758 16.4755 223.362 19.8301 220.487 23.6639C219.528 25.1015 219.528 25.1015 218.09 24.1431C216.174 22.7054 214.257 21.747 212.34 20.7885C209.464 18.8717 206.11 18.3924 202.755 17.434C200.359 16.9548 197.005 16.9548 194.609 17.434C192.212 17.9132 189.816 18.8717 188.858 21.747C188.379 23.6639 187.9 25.5808 188.858 27.4977C189.337 28.4561 189.816 29.4145 190.775 29.8938C193.65 31.3314 197.005 32.2899 200.359 33.2483C206.11 35.1652 211.861 36.1236 217.611 38.999C221.924 40.9159 225.279 43.312 228.154 47.1457C230.071 49.5419 231.029 52.8964 231.509 56.251C231.509 57.2094 231.029 58.6471 231.988 59.6055C231.988 59.6055 231.988 60.0847 231.988 60.564V61.0432C230.55 62.4808 231.509 64.877 231.029 66.7938C230.071 68.7107 229.592 71.1068 228.633 73.5029C227.196 76.3783 224.8 78.7744 221.924 80.6913C217.132 84.0458 214.736 84.5251 208.985 85.4835C206.11 85.4835 203.714 85.4835 200.359 85.4835Z" fill="#2C6A9E"/>
<path d="M471.103 67.7572C471.103 62.965 471.103 58.1727 471.103 53.8598C471.103 52.4221 470.623 51.4636 470.144 50.5052C468.227 47.6299 466.31 44.7545 464.393 41.4C461.997 37.5662 460.08 33.7324 457.684 30.3779C454.33 25.1064 450.496 19.3558 447.141 14.0843C444.745 10.2506 442.349 6.41678 439.953 3.06223V2.58301H440.432C446.662 2.58301 453.371 2.58301 459.601 2.58301C460.56 2.58301 461.039 3.06223 461.518 4.02067C463.914 8.33367 466.79 12.6467 469.186 16.4804C471.103 19.835 472.54 22.7103 474.457 26.0649C475.895 28.9402 477.812 31.8155 479.249 34.2117C479.729 34.6909 480.208 35.6493 480.208 34.2117C483.083 29.8987 485.479 25.1064 488.355 20.7934C490.751 16.9597 493.147 13.1259 495.543 8.81289C496.501 7.37523 496.981 5.93756 497.939 4.4999C498.897 3.06223 499.856 2.58301 501.293 2.58301C507.044 2.58301 512.795 2.58301 519.025 2.58301C519.983 2.58301 519.983 2.58301 519.504 3.54145C518.066 5.45834 517.108 7.85445 515.67 9.77134C512.795 14.0843 510.399 17.9181 507.523 22.2311C504.648 26.5441 501.773 31.3363 498.897 35.6493C496.501 39.4831 494.105 43.3169 491.709 47.1506C491.23 47.6299 491.23 48.1091 490.751 48.5883C489.792 50.5052 488.834 52.4221 488.834 54.8182C488.834 64.4026 488.834 73.9871 488.834 83.5715C488.834 84.5299 488.834 85.0092 487.396 85.0092C482.125 85.0092 476.853 85.0092 471.582 85.0092C470.623 85.0092 470.144 85.0092 470.144 83.5715C471.103 77.8208 471.103 73.0286 471.103 67.7572Z" fill="#2C6A9E"/>
<path d="M367.107 2.09473C367.107 2.57395 367.107 2.57395 367.107 2.09473C366.149 3.05317 365.67 3.53239 365.191 4.01161C353.689 15.5129 342.188 27.0143 330.687 38.5156C330.687 38.9948 330.207 39.474 329.728 39.9532C329.249 39.9532 328.29 39.9532 327.811 39.9532C327.332 39.474 326.853 38.9948 325.894 38.5156C323.019 35.6403 319.664 32.2857 316.789 29.4104C315.831 28.4519 315.831 27.9727 316.789 27.0143C323.019 20.7844 329.728 14.0753 335.958 7.84539C337.875 5.9285 339.313 4.49084 341.229 2.57395C343.626 2.57395 346.022 2.57395 348.418 2.57395C354.168 2.57395 359.919 2.57395 366.149 2.57395C366.149 2.09473 366.628 2.09473 367.107 2.09473Z" fill="#2C6A9E"/>
<path d="M354.17 84.0493C350.336 84.0493 346.502 84.0493 342.669 84.0493C341.231 84.0493 340.752 83.5701 339.793 82.6117C332.126 74.9441 324.458 67.2766 316.791 59.609C316.311 59.1298 315.353 58.6506 316.791 57.6921C320.624 54.3376 323.979 50.5038 327.813 46.67C329.25 45.2324 329.25 45.2324 330.209 46.67C342.189 58.6506 354.17 70.6311 366.63 83.0909C366.63 83.0909 367.109 83.5701 367.109 84.0493H366.63C362.317 84.0493 358.004 84.0493 354.17 84.0493Z" fill="#5DC4FC"/>
</g>
<defs>
<clipPath id="clip0_2119_34">
<rect width="520.435" height="84.8223" fill="white" transform="translate(0 0.660156)"/>
</clipPath>
</defs>
</svg>
