<svg width="821" height="243" viewBox="0 0 821 243" fill="none" xmlns="http://www.w3.org/2000/svg">
<g clip-path="url(#clip0_2119_144)">
<path d="M146.54 102.489L157.548 121.494L137.253 156.667L118.161 189.776H96.6616L111.969 162.601H111.883L146.54 102.489ZM95.1997 114.098H72.8402L88.9218 86.235L107.927 53.3838H83.676L73.3562 71.3573H58.1346L48.9328 87.525H63.8964L22.1015 159.935L34.2272 180.919L63.3805 130.438H85.7399L67.5944 161.913L51.5127 189.776H73.8722L83.504 173.007H98.9836L108.357 156.581C103.111 156.581 97.7796 156.495 92.9637 156.495L135.361 83.0531L124.181 63.7035L95.1997 114.098ZM41.623 87.525L11.0077 140.586L0 121.58L19.6935 87.525L19.7795 87.4389L19.8655 87.353L39.473 53.3838H61.4025L52.4587 68.8634L41.623 87.525Z" fill="#D5BA6D"/>
<path d="M793.141 143.348V89.1054H781.464V154.084H828.738V143.348H793.141ZM758.862 154.084H770.728L749.257 89.1054H736.449L714.225 154.084H725.337C733.436 129.411 733.059 130.729 742.288 103.231C750.575 128.281 751.705 132.048 758.862 154.084ZM292.711 154.084H304.577L283.105 89.1054H270.486L248.073 154.084H259.186C267.473 129.411 266.908 130.729 276.325 103.231C284.424 128.281 285.554 132.048 292.711 154.084ZM665.255 115.662V99.4643H684.843C690.305 99.4643 694.825 101.159 694.825 107.375C694.825 113.59 690.87 115.85 685.032 115.85L665.255 115.662ZM665.255 143.725V126.021H686.727C692.565 126.021 696.52 128.846 696.52 135.061C696.52 141.088 692 143.537 686.538 143.537L665.255 143.725ZM696.332 120.747C702.736 118.864 706.503 114.72 706.503 107.375C706.503 94.379 696.52 89.1054 685.408 89.1054H653.766V154.084H687.103C699.911 154.084 708.575 148.81 708.575 135.815C708.575 126.963 703.866 122.631 696.332 120.747ZM608.187 98.5226C620.806 98.5226 627.775 107.563 627.775 121.124C627.775 137.321 621.371 144.479 608.187 144.479C595.568 144.479 588.788 135.815 588.788 121.501C588.599 107.94 595.568 98.5226 608.187 98.5226ZM575.98 121.501C575.98 141.277 588.788 155.402 608.376 155.402C629.282 155.402 640.206 141.277 640.206 121.501C640.206 102.289 627.587 88.1637 608.187 88.1637C588.599 87.9754 575.98 102.854 575.98 121.501ZM533.791 143.348V89.1054H522.114V154.084H569.388V143.348H533.791ZM498.571 146.927L501.208 154.837H506.858V118.864H481.997V128.658H495.934V130.918C495.934 138.452 490.472 144.479 479.36 144.479C464.857 144.479 459.96 135.626 459.96 121.124C459.96 107.563 465.611 98.1459 479.36 98.1459C488.4 98.1459 493.674 101.724 496.499 109.447L506.858 103.796C501.961 92.8723 492.732 87.5986 479.548 87.5986C459.207 87.5986 447.341 101.536 447.341 121.124C447.341 140.9 457.135 155.026 478.418 155.026C488.024 155.214 494.239 152.389 498.571 146.927ZM414.381 115.474H391.215V89.1054H379.538V154.084H391.215V126.209H414.381V115.474ZM421.915 142.407V154.084H433.592V89.1054H421.915V97.2042H422.103L421.915 142.407ZM338.29 87.9753C322.093 87.9753 313.429 95.5091 313.429 106.998C313.429 121.312 324.353 124.137 337.349 126.398C350.156 128.469 355.43 129.788 355.43 136.568C355.43 142.218 350.533 144.855 341.304 144.855C330.003 144.855 325.295 140.523 322.093 133.555L311.545 138.263C314.747 148.622 324.353 155.402 340.739 155.402C356.936 155.402 367.484 149.94 367.484 136.568C367.484 121.501 357.125 117.545 341.68 115.097C330.38 113.213 325.106 112.648 325.106 106.245C325.106 100.783 328.873 98.3343 338.29 98.3343C347.331 98.3343 352.604 102.478 355.806 108.693L365.6 102.478C361.08 93.4373 352.604 87.9753 338.29 87.9753ZM219.445 115.474H196.467V89.1054H184.602V154.084H196.467V126.209H219.445V115.474ZM226.979 126.209V154.084H238.656V89.1054H226.979V126.209Z" fill="#D5BA6D"/>
</g>
<defs>
<clipPath id="clip0_2119_144">
<rect width="820.364" height="242.688" fill="white" transform="translate(0 0.0712891)"/>
</clipPath>
</defs>
</svg>
