<svg width="528" height="94" viewBox="0 0 528 94" fill="none" xmlns="http://www.w3.org/2000/svg">
<g clip-path="url(#clip0_870_33)" filter="url(#filter0_d_870_33)">
<g opacity="0.5">
<path d="M315.99 43.3078C315.99 56.2468 315.99 69.1858 315.99 82.1248C315.99 84.0417 315.99 84.0417 314.073 84.0417C309.281 84.0417 304.009 84.0417 299.217 84.0417C297.3 84.0417 297.3 84.0417 297.3 82.1248C297.3 73.0196 297.3 63.9143 297.3 54.8091C297.3 54.3299 297.3 53.3715 297.3 52.8922C297.3 51.9338 296.821 51.4546 295.863 50.9754C295.383 50.9754 294.904 50.9754 294.425 50.9754C285.32 50.9754 276.214 50.9754 267.109 50.9754C266.63 50.9754 266.63 50.9754 266.151 50.9754C265.192 50.9754 264.234 51.4546 264.234 52.8922C264.234 55.2883 264.234 57.6845 264.234 60.0806C264.234 67.2689 264.234 74.9364 264.234 82.1248C264.234 84.0417 264.234 84.0417 262.317 84.0417C257.046 84.0417 251.774 84.0417 246.982 84.0417C246.503 84.0417 246.023 84.0417 246.023 83.0832C246.023 82.604 246.023 81.6455 246.023 81.1663C246.023 55.7676 246.023 30.3688 246.023 4.97006C246.023 4.49084 246.023 3.53239 246.023 3.05317C246.023 2.09473 246.503 2.09473 246.982 2.09473C252.253 2.09473 258.004 2.09473 263.275 2.09473C264.234 2.09473 264.234 2.57395 264.234 3.53239C264.234 5.9285 264.234 8.80383 264.234 11.1999C264.234 17.909 264.234 24.1389 264.234 30.848C264.234 31.3273 264.234 31.8065 264.234 32.7649C264.234 34.6818 264.713 35.161 266.151 35.161C267.588 35.161 269.026 35.161 270.464 35.161C278.611 35.161 286.757 35.161 294.425 35.161C296.821 35.161 297.3 34.6818 297.3 32.2857C297.3 23.1805 297.3 13.5961 297.3 4.49084C297.3 2.57395 297.3 2.57395 298.738 2.57395C304.009 2.57395 309.281 2.57395 314.073 2.57395C315.511 2.57395 315.511 2.57395 315.511 4.49084C315.99 16.9506 315.99 29.8896 315.99 43.3078Z" fill="white"/>
<path d="M73.9871 43.3106C73.9871 56.2496 73.9871 69.1886 73.9871 82.1276C73.9871 84.0445 73.9871 84.0445 72.5494 84.0445C67.278 84.0445 62.4858 84.0445 57.2143 84.0445C55.2975 84.0445 55.2975 84.0445 55.2975 82.1276C55.2975 73.0224 55.2975 63.438 55.2975 54.3327C55.2975 53.8535 55.2975 52.8951 55.2975 52.4159C55.2975 51.4574 55.2975 50.9782 53.8598 50.9782C43.7961 50.9782 34.2117 50.9782 24.148 50.9782C23.1896 50.9782 23.1896 51.4574 23.1896 52.4159C23.1896 61.5211 23.1896 71.1055 23.1896 80.2107C23.1896 81.1692 23.1896 82.6068 23.1896 83.5653C21.7519 83.5653 20.7935 84.0445 19.3558 84.0445C15.0428 84.0445 10.2506 84.0445 5.93761 84.0445C4.49994 84.0445 4.49994 83.5653 4.49994 82.6068C4.49994 82.1276 4.49994 81.1692 4.49994 80.6899C4.49994 55.7704 4.49994 31.3301 4.49994 6.41056C4.49994 5.45211 4.97916 4.01445 4.49994 3.53522C3.5415 2.57678 4.49994 2.57678 4.97916 2.57678C10.2506 2.57678 16.0013 2.57678 21.2727 2.57678C23.1896 2.09756 23.1896 2.09756 23.1896 4.01445C23.1896 13.1197 23.1896 22.2249 23.1896 31.3301C23.1896 32.2885 23.1896 32.7678 23.1896 33.7262C23.1896 34.2054 23.6688 34.2054 24.148 34.6846C24.6273 34.6846 25.1065 34.6846 25.5857 34.6846C35.1701 34.6846 44.7546 34.6846 54.339 34.6846C55.7767 34.6846 55.7767 34.6846 55.7767 33.247C55.7767 23.6625 55.7767 14.0781 55.7767 4.49367C55.7767 2.57678 55.7767 2.57678 57.6936 2.57678C62.965 2.57678 67.7572 2.57678 73.0287 2.57678C74.4663 2.57678 74.4663 2.57678 74.4663 4.49367C73.9871 16.9534 73.9871 30.3716 73.9871 43.3106Z" fill="white"/>
<path d="M377.805 43.3078C377.805 30.3688 377.805 17.909 377.805 4.97006C377.805 4.49084 377.805 3.53239 377.805 3.05317C377.805 2.57395 378.284 2.57395 378.284 2.09473C378.763 2.09473 378.763 2.09473 379.242 2.09473C398.89 2.09473 418.539 2.09473 438.666 2.09473C440.583 2.09473 441.062 2.57395 440.104 4.01161C439.624 4.97006 440.583 4.97006 440.583 5.44928C440.583 8.80383 440.583 12.6376 440.583 15.9922C440.583 16.9506 440.104 17.4298 439.145 17.909C438.187 17.909 437.707 17.909 436.749 17.909C423.81 17.909 411.35 17.909 398.411 17.909C396.494 17.909 396.494 17.4298 396.494 19.8259C396.494 24.1389 396.494 28.9311 396.494 33.2441C396.494 34.2026 396.974 34.6818 397.932 34.6818C409.433 34.6818 420.455 34.6818 431.957 34.6818C432.915 34.6818 433.394 34.6818 434.353 34.6818C434.832 34.6818 435.311 35.161 435.311 35.6403C435.311 40.4325 435.311 45.7039 435.311 50.4961C435.311 51.4546 434.832 51.4546 434.353 51.4546C429.081 51.4546 423.331 51.4546 418.059 51.4546C411.35 51.4546 405.12 51.4546 398.411 51.4546C396.494 51.4546 396.494 51.4546 396.494 53.3715C396.494 57.6845 396.494 62.4767 396.494 66.7897C396.494 68.7066 396.494 68.7066 398.411 68.7066C411.829 68.7066 424.768 68.7066 438.187 68.7066C440.583 68.7066 440.583 68.7066 440.583 71.1027C440.583 75.4157 440.583 79.2494 440.583 83.5624C440.583 84.5209 440.583 85.0001 439.624 84.5209C439.145 84.5209 439.145 84.5209 438.666 84.5209C419.018 84.5209 399.849 84.5209 380.201 84.5209C378.284 84.5209 378.284 84.5209 378.284 82.604C377.805 69.1858 377.805 56.2468 377.805 43.3078Z" fill="white"/>
<path d="M159.761 84.0479C156.886 84.0479 154.49 84.0479 151.615 84.0479C150.177 84.0479 149.698 83.5687 149.219 82.1311C148.26 79.2557 147.302 76.8596 145.864 73.9843C144.906 72.0674 143.947 70.1505 143.468 67.7544C142.989 66.3167 142.51 65.8375 141.072 65.8375C132.925 65.8375 124.778 65.8375 117.111 65.8375C114.235 65.8375 111.839 65.8375 108.964 65.8375C108.006 65.8375 108.006 65.8375 107.526 66.796C105.609 69.6713 105.13 73.5051 103.693 76.3804C103.213 77.3388 102.734 78.2973 102.255 78.7765C101.776 80.2142 101.296 81.6518 100.338 83.0895C98.4211 83.0895 96.5042 83.0895 94.5873 83.0895C90.7535 83.0895 86.9198 83.0895 83.086 83.0895C81.6483 83.0895 81.1691 82.6103 82.1275 81.1726C82.6068 80.2142 83.086 78.7765 83.5652 77.8181C85.0029 73.9843 86.9198 70.6297 88.3574 66.796C90.2743 61.5245 93.1496 56.7323 94.5873 51.4609C95.0665 49.544 96.5042 47.6271 96.9834 46.1894C98.9003 42.3557 100.817 38.0427 102.255 33.7297C104.172 28.9374 106.089 23.666 108.485 18.8738C110.402 15.04 111.839 10.727 113.756 6.89324C114.235 7.85168 114.235 6.89324 114.715 6.41402C115.194 4.97635 116.152 3.53869 116.632 1.6218C118.069 1.6218 119.507 1.14258 120.945 1.14258C125.258 1.14258 129.091 1.14258 133.404 1.14258C133.884 1.14258 134.363 1.14258 134.363 2.10102C134.842 4.01791 136.28 6.41402 136.759 8.33091C138.197 12.6439 140.593 16.4777 142.03 20.7907C143.468 24.6244 144.906 28.4582 146.822 31.8128C147.781 34.2089 149.219 36.605 150.177 39.4803C151.135 41.8764 152.094 44.2725 153.052 46.6687C154.011 49.0648 155.448 51.4609 156.407 54.3362C159.282 60.5661 161.678 66.796 164.554 73.0259C164.554 74.9427 165.991 76.3804 166.471 77.8181C166.95 79.735 167.908 81.1726 168.387 82.6103C168.867 83.5687 168.867 84.0479 167.908 84.0479C165.512 84.0479 162.637 84.0479 159.761 84.0479ZM125.258 49.544C128.612 49.544 131.967 49.544 135.321 49.544C135.8 49.544 135.8 49.544 135.8 48.5855C134.363 45.231 132.925 41.3972 131.487 38.0427C130.05 34.2089 128.133 30.8543 127.174 27.0206C126.695 26.0621 126.216 25.1037 125.737 24.1452H125.258C124.778 24.6244 124.778 24.6244 124.778 25.1037C122.861 30.3751 120.945 34.6881 119.028 39.0011C117.59 42.3557 116.632 45.7102 115.194 49.0648C114.715 49.544 115.194 49.544 115.673 49.544C119.028 49.544 121.903 49.544 125.258 49.544Z" fill="white"/>
<path d="M204.359 85.4835C201.484 85.4835 197.65 85.4835 194.296 84.5251C189.503 83.5666 185.19 81.6497 180.877 79.7328C177.523 77.8159 174.648 75.8991 171.772 73.9822C170.335 72.5445 170.335 72.0653 171.293 70.6276C174.168 66.7938 177.523 63.9185 179.919 59.6055C179.919 59.6055 180.398 59.1263 180.877 59.6055C181.836 60.0847 182.794 60.564 183.753 61.5224C187.107 64.3977 190.941 66.3146 194.775 67.7523C198.129 69.1899 205.797 69.6692 209.151 69.1899C212.027 68.7107 214.423 67.2731 216.34 64.877C216.34 63.4393 217.777 62.0016 216.819 60.564C216.34 58.6471 215.381 57.2094 213.464 56.251C209.631 54.3341 205.797 53.3756 201.963 51.938C196.692 50.5003 191.42 49.5419 186.628 47.1457C183.274 45.2289 179.919 43.312 177.523 40.4366C175.127 38.0405 174.648 35.1652 173.689 32.2899C173.21 29.8938 172.731 27.0184 172.731 24.1431C174.168 18.3924 176.564 10.2457 183.274 5.93267C187.107 3.53656 189.503 2.57812 195.254 1.14045C197.65 0.66123 199.567 1.14045 201.963 0.66123C204.359 0.66123 206.755 0.182008 208.672 0.66123C212.027 1.14045 215.381 1.61967 218.257 2.57812C222.57 4.495 226.403 5.93267 230.237 8.808C230.716 9.28722 231.675 9.76644 232.154 10.2457C233.113 10.7249 233.113 11.2041 232.633 12.6418C229.758 16.4756 227.362 19.8301 224.487 23.6639C223.528 25.1015 223.528 25.1015 222.09 24.1431C220.174 22.7054 218.257 21.747 216.34 20.7885C213.464 18.8717 210.11 18.3924 206.755 17.434C204.359 16.9548 201.005 16.9548 198.609 17.434C196.213 17.9132 193.816 18.8717 192.858 21.747C192.379 23.6639 191.9 25.5808 192.858 27.4977C193.337 28.4561 193.816 29.4145 194.775 29.8938C197.65 31.3314 201.005 32.2899 204.359 33.2483C210.11 35.1652 215.861 36.1236 221.611 38.999C225.924 40.9159 229.279 43.312 232.154 47.1457C234.071 49.5419 235.029 52.8964 235.509 56.251C235.509 57.2094 235.029 58.6471 235.988 59.6055C235.988 59.6055 235.988 60.0847 235.988 60.564V61.0432C234.55 62.4808 235.509 64.877 235.029 66.7938C234.071 68.7107 233.592 71.1068 232.633 73.5029C231.196 76.3783 228.8 78.7744 225.924 80.6913C221.132 84.0458 218.736 84.5251 212.985 85.4835C210.11 85.4835 207.714 85.4835 204.359 85.4835Z" fill="white"/>
<path d="M475.11 67.7572C475.11 62.965 475.11 58.1727 475.11 53.8598C475.11 52.4221 474.631 51.4636 474.152 50.5052C472.235 47.6299 470.318 44.7545 468.401 41.4C466.005 37.5662 464.088 33.7324 461.692 30.3779C458.338 25.1064 454.504 19.3558 451.149 14.0843C448.753 10.2506 446.357 6.41678 443.961 3.06223V2.58301H444.44C450.67 2.58301 457.379 2.58301 463.609 2.58301C464.567 2.58301 465.047 3.06223 465.526 4.02067C467.922 8.33367 470.797 12.6467 473.193 16.4804C475.11 19.835 476.548 22.7103 478.465 26.0649C479.903 28.9402 481.819 31.8155 483.257 34.2117C483.736 34.6909 484.216 35.6493 484.216 34.2117C487.091 29.8987 489.487 25.1064 492.362 20.7934C494.758 16.9597 497.155 13.1259 499.551 8.81289C500.509 7.37523 500.988 5.93756 501.947 4.4999C502.905 3.06223 503.864 2.58301 505.301 2.58301C511.052 2.58301 516.803 2.58301 523.033 2.58301C523.991 2.58301 523.991 2.58301 523.512 3.54145C522.074 5.45834 521.116 7.85445 519.678 9.77134C516.803 14.0843 514.407 17.9181 511.531 22.2311C508.656 26.5441 505.781 31.3363 502.905 35.6493C500.509 39.4831 498.113 43.3169 495.717 47.1506C495.238 47.6299 495.238 48.1091 494.758 48.5883C493.8 50.5052 492.842 52.4221 492.842 54.8182C492.842 64.4026 492.842 73.9871 492.842 83.5715C492.842 84.5299 492.842 85.0092 491.404 85.0092C486.132 85.0092 480.861 85.0092 475.59 85.0092C474.631 85.0092 474.152 85.0092 474.152 83.5715C475.11 77.8208 475.11 73.0286 475.11 67.7572Z" fill="white"/>
<path d="M371.115 2.09473C371.115 2.57395 371.115 2.57395 371.115 2.09473C370.157 3.05317 369.678 3.53239 369.198 4.01161C357.697 15.5129 346.196 27.0143 334.694 38.5156C334.694 38.9948 334.215 39.474 333.736 39.9532C333.257 39.9532 332.298 39.9532 331.819 39.9532C331.34 39.474 330.861 38.9948 329.902 38.5156C327.027 35.6403 323.672 32.2857 320.797 29.4104C319.839 28.4519 319.839 27.9727 320.797 27.0143C327.027 20.7844 333.736 14.0753 339.966 7.84539C341.883 5.9285 343.32 4.49084 345.237 2.57395C347.633 2.57395 350.029 2.57395 352.426 2.57395C358.176 2.57395 363.927 2.57395 370.157 2.57395C370.157 2.09473 370.636 2.09473 371.115 2.09473Z" fill="white"/>
<path d="M358.17 84.0493C354.336 84.0493 350.502 84.0493 346.669 84.0493C345.231 84.0493 344.752 83.5701 343.793 82.6117C336.126 74.9441 328.458 67.2766 320.791 59.609C320.311 59.1298 319.353 58.6506 320.791 57.6921C324.624 54.3376 327.979 50.5038 331.813 46.67C333.25 45.2324 333.25 45.2324 334.209 46.67C346.189 58.6506 358.17 70.6311 370.63 83.0909C370.63 83.0909 371.109 83.5701 371.109 84.0493H370.63C366.317 84.0493 362.004 84.0493 358.17 84.0493Z" fill="white"/>
</g>
</g>
<defs>
<filter id="filter0_d_870_33" x="0" y="0.660156" width="528.434" height="92.8223" filterUnits="userSpaceOnUse" color-interpolation-filters="sRGB">
<feFlood flood-opacity="0" result="BackgroundImageFix"/>
<feColorMatrix in="SourceAlpha" type="matrix" values="0 0 0 0 0 0 0 0 0 0 0 0 0 0 0 0 0 0 127 0" result="hardAlpha"/>
<feOffset dy="4"/>
<feGaussianBlur stdDeviation="2"/>
<feComposite in2="hardAlpha" operator="out"/>
<feColorMatrix type="matrix" values="0 0 0 0 0 0 0 0 0 0 0 0 0 0 0 0 0 0 0.25 0"/>
<feBlend mode="normal" in2="BackgroundImageFix" result="effect1_dropShadow_870_33"/>
<feBlend mode="normal" in="SourceGraphic" in2="effect1_dropShadow_870_33" result="shape"/>
</filter>
<clipPath id="clip0_870_33">
<rect width="520.435" height="84.8223" fill="white" transform="translate(4 0.660156)"/>
</clipPath>
</defs>
</svg>
