<svg width="728" height="173" viewBox="0 0 728 173" fill="none" xmlns="http://www.w3.org/2000/svg">
<g opacity="0.5" filter="url(#filter0_d_870_179)">
<path d="M62.2325 96.6621H10.1256V17.0227H21.5026V86.6503H62.2325V96.6621ZM64.7212 40.687C71.5474 37.4256 80.0044 35.7949 90.092 35.7949C94.6429 35.7949 98.2835 36.4016 101.014 37.6152C103.82 38.7529 105.982 40.2319 107.499 42.0522C109.016 43.8726 110.002 45.9204 110.457 48.1959C110.988 50.3954 111.253 52.595 111.253 54.7945C111.253 58.9661 111.102 63.1756 110.798 67.4231C110.495 71.5947 110.343 76.1455 110.343 81.0755C110.343 83.9577 110.457 86.7641 110.685 89.4946C110.988 92.1492 111.443 94.6142 112.05 96.8897H104.427L101.583 87.788H100.445C99.6108 88.9257 98.5869 90.1013 97.3734 91.3149C96.1598 92.4526 94.7187 93.4765 93.0501 94.3867C91.3814 95.2969 89.4473 96.0553 87.2478 96.6621C85.1241 97.2689 82.659 97.5723 79.8527 97.5723C77.0464 97.5723 74.4676 97.193 72.1163 96.4346C69.765 95.6003 67.7172 94.4625 65.9727 93.0215C64.3041 91.5804 62.9767 89.8359 61.9907 87.788C61.0047 85.6643 60.5117 83.313 60.5117 80.7342C60.5117 77.3211 61.2323 74.3631 62.6733 71.8601C64.1903 69.3572 66.1244 67.3093 68.4756 65.7165C70.8269 64.1237 73.4815 62.9481 76.4396 62.1896C79.4735 61.4312 82.4694 61.0519 85.4275 61.0519C87.7787 61.0519 89.7507 61.0899 91.3435 61.1657C93.0122 61.2415 94.3774 61.3553 95.4393 61.507C96.577 61.5829 97.5251 61.6966 98.2835 61.8483C99.042 61.9242 99.7246 62 100.331 62.0759C100.483 60.9382 100.597 59.9521 100.673 59.1178C100.749 58.2835 100.786 57.2217 100.786 55.9323C100.786 53.8085 100.559 52.0261 100.104 50.585C99.6488 49.1439 98.8903 48.0062 97.8284 47.1719C96.8424 46.2618 95.4772 45.6171 93.7327 45.2378C91.9882 44.8586 89.8645 44.669 87.3616 44.669C85.9205 44.669 84.3277 44.7827 82.5832 45.0103C80.8387 45.2378 79.0942 45.5791 77.3497 46.0342C75.6053 46.4135 73.8608 46.9065 72.1163 47.5132C70.4477 48.12 68.9307 48.7647 67.5655 49.4473L64.7212 40.687ZM100.331 69.5847C99.7246 69.5089 99.0799 69.3951 98.3973 69.2434C97.7147 69.0917 96.8424 68.9779 95.7806 68.9021C94.7946 68.8262 93.581 68.7504 92.1399 68.6746C90.7747 68.5987 89.0681 68.5608 87.0202 68.5608C82.3177 68.5608 78.5633 69.3951 75.757 71.0637C73.0265 72.7324 71.6612 75.5766 71.6612 79.5965C71.6612 82.6304 72.7231 84.9058 74.8468 86.4228C77.0464 87.9397 79.8527 88.6982 83.2658 88.6982C85.7688 88.6982 87.9683 88.3948 89.8645 87.788C91.8365 87.1054 93.5052 86.309 94.8704 85.3988C96.3115 84.4128 97.4492 83.351 98.2835 82.2133C99.1937 80.9997 99.8763 79.8241 100.331 78.6864V69.5847ZM143.34 74.7044L146.867 86.1952H148.346L151.19 74.5906L163.591 36.9326H174.286L154.717 90.9736C153.276 94.6901 151.797 98.2928 150.28 101.782C148.839 105.271 147.208 108.343 145.388 110.997C143.644 113.728 141.672 115.889 139.472 117.482C137.348 119.151 134.883 119.985 132.077 119.985C129.043 119.985 126.464 119.644 124.341 118.961L126.047 110.087C127.185 110.466 128.323 110.656 129.46 110.656C130.977 110.656 132.342 110.466 133.556 110.087C134.845 109.708 136.021 109.025 137.083 108.039C138.145 107.053 139.093 105.65 139.927 103.83C140.837 102.085 141.672 99.8098 142.43 97.0034L115.694 36.9326H128.095L143.34 74.7044ZM226.99 91.77C224.335 93.742 221.036 95.3348 217.092 96.5483C213.148 97.686 208.863 98.2549 204.236 98.2549C199.23 98.2549 194.869 97.5344 191.152 96.0933C187.512 94.5763 184.516 92.4526 182.164 89.7221C179.813 86.9916 178.069 83.6923 176.931 79.8241C175.793 75.9559 175.224 71.6326 175.224 66.8542C175.224 56.6149 177.727 48.8026 182.733 43.4175C187.815 37.9565 195.02 35.226 204.35 35.226C207.308 35.226 210.266 35.5673 213.224 36.25C216.182 36.8567 218.836 38.0703 221.188 39.8906C223.539 41.6351 225.435 44.0622 226.876 47.1719C228.393 50.2817 229.152 54.3395 229.152 59.3454C229.152 60.5589 229.114 61.9621 229.038 63.5549C228.962 65.1477 228.81 66.7025 228.583 68.2195H185.919C186.071 75.1974 187.739 80.4688 190.925 84.0336C194.11 87.5984 199.533 89.3808 207.194 89.3808C210.38 89.3808 213.413 88.8499 216.296 87.788C219.178 86.6503 221.415 85.323 223.008 83.806L226.99 91.77ZM219.14 60.7106C219.292 54.6429 218.04 50.3575 215.385 47.8545C212.807 45.3516 209.166 44.1001 204.463 44.1001C199.154 44.1001 194.945 45.3516 191.835 47.8545C188.725 50.3575 186.905 54.6429 186.374 60.7106H219.14ZM270.753 46.8306C269.463 46.4514 268.212 46.1101 266.998 45.8067C265.785 45.5033 264.647 45.3516 263.585 45.3516C259.565 45.3516 256.417 46.3755 254.142 48.4234C251.942 50.4713 250.577 53.0501 250.046 56.1598V96.6621H239.579V36.9326H246.861L248.909 44.8965H249.933C251.677 41.9385 253.687 39.6631 255.962 38.0703C258.314 36.4016 261.234 35.5673 264.723 35.5673C265.785 35.5673 267.036 35.6811 268.477 35.9086C269.918 36.0603 271.359 36.3637 272.8 36.8188L270.753 46.8306ZM297.817 56.1598L271.536 17.0227H285.074L302.254 43.19L305.325 49.7886L308.283 43.19L326.259 17.0227H338.774L311.697 55.3634L340.025 96.6621H326.714L307.715 68.9021L304.188 61.9621L301.002 68.9021L281.547 96.6621H269.033L297.817 56.1598Z" fill="white"/>
<path d="M438.286 138.187C435.783 140.008 432.597 141.259 428.729 141.942C424.861 142.7 420.765 143.08 416.442 143.08C411.36 143.08 406.506 142.283 401.879 140.69C397.328 139.022 393.308 136.519 389.819 133.182C386.331 129.768 383.562 125.483 381.514 120.325C379.466 115.092 378.442 108.911 378.442 101.781C378.442 94.3479 379.58 88.0147 381.856 82.7812C384.131 77.5478 387.089 73.3003 390.73 70.0389C394.37 66.7016 398.466 64.2745 403.017 62.7576C407.568 61.2407 412.081 60.4822 416.556 60.4822C421.561 60.4822 425.657 60.7477 428.843 61.2786C432.028 61.8095 434.721 62.4921 436.921 63.3265L434.418 73.1107C430.701 71.3662 425.05 70.494 417.466 70.494C414.053 70.494 410.715 71.0629 407.454 72.2006C404.268 73.2624 401.386 75.0448 398.807 77.5478C396.304 79.9749 394.294 83.1984 392.778 87.2183C391.261 91.1623 390.502 96.0165 390.502 101.781C390.502 106.938 391.223 111.489 392.664 115.433C394.105 119.302 396.077 122.563 398.58 125.218C401.159 127.796 404.155 129.768 407.568 131.134C411.057 132.423 414.849 133.068 418.945 133.068C422.661 133.068 425.885 132.726 428.615 132.044C431.346 131.361 433.659 130.489 435.555 129.427L438.286 138.187ZM443.453 85.6255C450.28 82.3641 458.737 80.7333 468.824 80.7333C473.375 80.7333 477.016 81.3401 479.746 82.5537C482.553 83.6914 484.714 85.1704 486.231 86.9907C487.748 88.8111 488.734 90.8589 489.189 93.1343C489.72 95.3339 489.986 97.5335 489.986 99.733C489.986 103.905 489.834 108.114 489.53 112.362C489.227 116.533 489.075 121.084 489.075 126.014C489.075 128.896 489.189 131.703 489.417 134.433C489.72 137.088 490.175 139.553 490.782 141.828H483.159L480.315 132.726H479.177C478.343 133.864 477.319 135.04 476.106 136.253C474.892 137.391 473.451 138.415 471.782 139.325C470.114 140.235 468.18 140.994 465.98 141.601C463.856 142.207 461.391 142.511 458.585 142.511C455.779 142.511 453.2 142.132 450.848 141.373C448.497 140.539 446.449 139.401 444.705 137.96C443.036 136.519 441.709 134.774 440.723 132.726C439.737 130.603 439.244 128.252 439.244 125.673C439.244 122.26 439.964 119.302 441.406 116.799C442.922 114.296 444.857 112.248 447.208 110.655C449.559 109.062 452.214 107.887 455.172 107.128C458.206 106.37 461.202 105.99 464.16 105.99C466.511 105.99 468.483 106.028 470.076 106.104C471.744 106.18 473.11 106.294 474.171 106.445C475.309 106.521 476.257 106.635 477.016 106.787C477.774 106.863 478.457 106.938 479.064 107.014C479.215 105.877 479.329 104.891 479.405 104.056C479.481 103.222 479.519 102.16 479.519 100.871C479.519 98.747 479.291 96.9646 478.836 95.5235C478.381 94.0824 477.623 92.9447 476.561 92.1104C475.575 91.2002 474.209 90.5555 472.465 90.1763C470.72 89.7971 468.597 89.6074 466.094 89.6074C464.653 89.6074 463.06 89.7212 461.315 89.9488C459.571 90.1763 457.826 90.5176 456.082 90.9727C454.337 91.3519 452.593 91.8449 450.848 92.4517C449.18 93.0585 447.663 93.7032 446.298 94.3858L443.453 85.6255ZM479.064 114.523C478.457 114.447 477.812 114.334 477.129 114.182C476.447 114.03 475.575 113.916 474.513 113.841C473.527 113.765 472.313 113.689 470.872 113.613C469.507 113.537 467.8 113.499 465.752 113.499C461.05 113.499 457.295 114.334 454.489 116.002C451.759 117.671 450.393 120.515 450.393 124.535C450.393 127.569 451.455 129.844 453.579 131.361C455.779 132.878 458.585 133.637 461.998 133.637C464.501 133.637 466.701 133.333 468.597 132.726C470.569 132.044 472.237 131.247 473.603 130.337C475.044 129.351 476.181 128.289 477.016 127.152C477.926 125.938 478.609 124.763 479.064 123.625V114.523ZM503.528 81.871H510.582L512.629 89.4937H513.653C515.701 86.5356 518.356 84.2602 521.617 82.6674C524.879 80.9988 528.557 80.1645 532.653 80.1645C541.3 80.1645 547.747 82.5916 551.994 87.4458C556.242 92.2242 558.365 99.8847 558.365 110.427C558.365 115.433 557.645 119.984 556.204 124.08C554.838 128.1 552.828 131.551 550.174 134.433C547.595 137.239 544.409 139.401 540.617 140.918C536.901 142.435 532.729 143.193 528.102 143.193C526.585 143.193 525.182 143.118 523.893 142.966C522.679 142.89 521.541 142.7 520.48 142.397C519.418 142.169 518.356 141.904 517.294 141.601C516.232 141.221 515.132 140.804 513.995 140.349V164.355H503.528V81.871ZM530.264 89.0386C525.713 89.0386 522.148 90.1763 519.569 92.4517C516.991 94.7271 515.132 98.2161 513.995 102.919V130.451C515.739 131.665 517.635 132.613 519.683 133.295C521.731 133.978 524.348 134.319 527.533 134.319C533.677 134.319 538.493 132.309 541.982 128.289C545.471 124.27 547.216 118.278 547.216 110.314C547.216 103.867 545.926 98.7091 543.348 94.8409C540.769 90.9727 536.408 89.0386 530.264 89.0386ZM571.322 81.871H581.789V141.601H571.322V81.871ZM569.16 67.6497C569.16 65.9053 569.843 64.3504 571.208 62.9851C572.573 61.544 574.356 60.8235 576.555 60.8235C578.755 60.8235 580.575 61.544 582.016 62.9851C583.457 64.3504 584.178 65.9053 584.178 67.6497C584.178 69.3942 583.457 70.9491 582.016 72.3143C580.575 73.6037 578.755 74.2484 576.555 74.2484C574.356 74.2484 572.573 73.6037 571.208 72.3143C569.843 70.9491 569.16 69.3942 569.16 67.6497ZM590.365 81.871H600.491V69.8114L610.957 67.0809V81.871H628.933V90.7452H610.957V121.236C610.957 126.014 611.564 129.389 612.778 131.361C613.991 133.333 616.077 134.319 619.035 134.319C620.931 134.319 622.638 134.13 624.155 133.75C625.748 133.295 627.53 132.726 629.502 132.044L631.891 139.439C629.464 140.501 626.847 141.373 624.041 142.056C621.311 142.814 618.353 143.193 615.167 143.193C609.858 143.193 606.065 141.752 603.79 138.87C601.59 135.988 600.491 131.285 600.491 124.763V90.7452H590.365V81.871ZM636.246 85.6255C643.072 82.3641 651.529 80.7333 661.616 80.7333C666.167 80.7333 669.808 81.3401 672.538 82.5537C675.345 83.6914 677.506 85.1704 679.023 86.9907C680.54 88.8111 681.526 90.8589 681.981 93.1343C682.512 95.3339 682.778 97.5335 682.778 99.733C682.778 103.905 682.626 108.114 682.323 112.362C682.019 116.533 681.868 121.084 681.868 126.014C681.868 128.896 681.981 131.703 682.209 134.433C682.512 137.088 682.967 139.553 683.574 141.828H675.952L673.107 132.726H671.97C671.135 133.864 670.111 135.04 668.898 136.253C667.684 137.391 666.243 138.415 664.574 139.325C662.906 140.235 660.972 140.994 658.772 141.601C656.648 142.207 654.183 142.511 651.377 142.511C648.571 142.511 645.992 142.132 643.641 141.373C641.289 140.539 639.242 139.401 637.497 137.96C635.828 136.519 634.501 134.774 633.515 132.726C632.529 130.603 632.036 128.252 632.036 125.673C632.036 122.26 632.757 119.302 634.198 116.799C635.715 114.296 637.649 112.248 640 110.655C642.351 109.062 645.006 107.887 647.964 107.128C650.998 106.37 653.994 105.99 656.952 105.99C659.303 105.99 661.275 106.028 662.868 106.104C664.537 106.18 665.902 106.294 666.964 106.445C668.101 106.521 669.049 106.635 669.808 106.787C670.566 106.863 671.249 106.938 671.856 107.014C672.007 105.877 672.121 104.891 672.197 104.056C672.273 103.222 672.311 102.16 672.311 100.871C672.311 98.747 672.083 96.9646 671.628 95.5235C671.173 94.0824 670.415 92.9447 669.353 92.1104C668.367 91.2002 667.002 90.5555 665.257 90.1763C663.513 89.7971 661.389 89.6074 658.886 89.6074C657.445 89.6074 655.852 89.7212 654.108 89.9488C652.363 90.1763 650.619 90.5176 648.874 90.9727C647.13 91.3519 645.385 91.8449 643.641 92.4517C641.972 93.0585 640.455 93.7032 639.09 94.3858L636.246 85.6255ZM671.856 114.523C671.249 114.447 670.604 114.334 669.922 114.182C669.239 114.03 668.367 113.916 667.305 113.841C666.319 113.765 665.105 113.689 663.664 113.613C662.299 113.537 660.592 113.499 658.545 113.499C653.842 113.499 650.088 114.334 647.281 116.002C644.551 117.671 643.186 120.515 643.186 124.535C643.186 127.569 644.247 129.844 646.371 131.361C648.571 132.878 651.377 133.637 654.79 133.637C657.293 133.637 659.493 133.333 661.389 132.726C663.361 132.044 665.03 131.247 666.395 130.337C667.836 129.351 668.974 128.289 669.808 127.152C670.718 125.938 671.401 124.763 671.856 123.625V114.523ZM708.152 125.786C708.152 128.896 708.721 131.096 709.859 132.385C711.072 133.675 712.665 134.319 714.637 134.319C715.851 134.319 717.026 134.243 718.164 134.092C719.302 133.94 720.667 133.637 722.26 133.182L723.625 140.918C722.866 141.221 721.956 141.487 720.894 141.714C719.833 142.018 718.733 142.283 717.595 142.511C716.457 142.738 715.32 142.89 714.182 142.966C713.044 143.118 712.02 143.193 711.11 143.193C707.014 143.193 703.753 142.169 701.326 140.122C698.899 137.998 697.685 134.509 697.685 129.655V61.9612H708.152V125.786Z" fill="white"/>
<rect x="356.863" y="0.0888672" width="6.16799" height="147.151" fill="white"/>
</g>
<defs>
<filter id="filter0_d_870_179" x="6.125" y="0.0888672" width="721.5" height="172.266" filterUnits="userSpaceOnUse" color-interpolation-filters="sRGB">
<feFlood flood-opacity="0" result="BackgroundImageFix"/>
<feColorMatrix in="SourceAlpha" type="matrix" values="0 0 0 0 0 0 0 0 0 0 0 0 0 0 0 0 0 0 127 0" result="hardAlpha"/>
<feOffset dy="4"/>
<feGaussianBlur stdDeviation="2"/>
<feComposite in2="hardAlpha" operator="out"/>
<feColorMatrix type="matrix" values="0 0 0 0 0 0 0 0 0 0 0 0 0 0 0 0 0 0 0.25 0"/>
<feBlend mode="normal" in2="BackgroundImageFix" result="effect1_dropShadow_870_179"/>
<feBlend mode="normal" in="SourceGraphic" in2="effect1_dropShadow_870_179" result="shape"/>
</filter>
</defs>
</svg>
