<svg width="955" height="125" viewBox="0 0 955 125" fill="none" xmlns="http://www.w3.org/2000/svg">
<path d="M0.114498 98.7344V90.7906L10.3909 89.0254V16.7122L0.114498 14.9469V6.94014H10.3909H22.8109H33.0873V14.9469L22.8109 16.7122V89.2145H55.2793L56.7294 74.714H66.2492V98.7344H0.114498ZM75.5169 98.7344V90.7906L85.7933 89.0254V40.2912L75.5169 38.5259V30.5192H98.2133V89.0254L108.49 90.7906V98.7344H75.5169ZM85.1629 13.686V0.383404H98.2133V13.686H85.1629ZM153.315 100.058C148.86 100.058 144.993 99.2177 141.715 97.5365C138.436 95.8133 135.704 93.2914 133.519 89.9711L132.384 98.7344H121.666V10.1555L111.39 8.39018V0.383404H134.086V38.589C136.23 35.5628 138.878 33.2511 142.03 31.654C145.224 30.0568 148.944 29.2582 153.189 29.2582C158.821 29.2582 163.612 30.7923 167.563 33.8606C171.556 36.8867 174.603 41.1528 176.705 46.6588C178.848 52.1648 179.92 58.5744 179.92 65.8877V67.2116C179.92 73.7684 178.848 79.5055 176.705 84.423C174.603 89.3406 171.556 93.1864 167.563 95.9604C163.612 98.6923 158.863 100.058 153.315 100.058ZM150.163 89.9711C156.005 89.9711 160.334 87.8905 163.15 83.7295C166.008 79.5685 167.437 74.0626 167.437 67.2116V65.8877C167.437 60.6339 166.807 56.0316 165.546 52.0807C164.285 48.0878 162.373 44.9776 159.809 42.75C157.245 40.4803 153.988 39.3455 150.037 39.3455C146.212 39.3455 142.976 40.2702 140.328 42.1195C137.722 43.9689 135.641 46.4486 134.086 49.5589V79.6946C135.641 82.8469 137.743 85.3477 140.391 87.197C143.081 89.0464 146.338 89.9711 150.163 89.9711ZM222.917 100.058C216.613 100.058 211.128 98.6293 206.462 95.7712C201.797 92.8711 198.182 88.8572 195.619 83.7295C193.097 78.6018 191.836 72.6756 191.836 65.9507V63.1767C191.836 56.704 193.16 50.9249 195.808 45.8392C198.498 40.7115 202.049 36.6766 206.462 33.7345C210.918 30.7503 215.772 29.2582 221.026 29.2582C227.162 29.2582 232.29 30.5192 236.409 33.041C240.57 35.5628 243.701 39.1144 245.803 43.6957C247.904 48.2349 248.955 53.5938 248.955 59.7723V67.5269H204.697L204.508 67.8421C204.592 72.2132 205.349 76.101 206.778 79.5055C208.249 82.8679 210.35 85.5158 213.082 87.4492C215.814 89.3826 219.093 90.3493 222.917 90.3493C227.12 90.3493 230.798 89.7609 233.95 88.5841C237.145 87.3652 239.898 85.705 242.209 83.6035L247.064 91.6733C244.626 94.027 241.39 96.0234 237.355 97.6626C233.362 99.2598 228.549 100.058 222.917 100.058ZM205.075 57.8178H236.535V56.1787C236.535 52.9003 235.947 49.9792 234.77 47.4153C233.635 44.8095 231.912 42.771 229.6 41.2999C227.33 39.7868 224.472 39.0303 221.026 39.0303C218.252 39.0303 215.73 39.8499 213.46 41.4891C211.191 43.0862 209.32 45.2718 207.849 48.0458C206.378 50.8198 205.412 53.9721 204.949 57.5026L205.075 57.8178ZM258.538 98.7344V90.7906L268.814 89.0254V40.2912L258.538 38.5259V30.5192H279.91L280.982 39.2194L281.108 40.4173C283.042 36.9288 285.416 34.1968 288.232 32.2214C291.09 30.246 294.348 29.2582 298.004 29.2582C299.307 29.2582 300.631 29.3843 301.976 29.6365C303.363 29.8467 304.351 30.0568 304.939 30.267L303.3 41.8043L294.663 41.2999C291.385 41.0898 288.632 41.8463 286.404 43.5696C284.176 45.2508 282.453 47.5204 281.234 50.3785V89.0254L291.511 90.7906V98.7344H258.538ZM338.606 99.8061C333.562 99.8061 329.548 98.3351 326.564 95.393C323.622 92.4088 322.151 87.6594 322.151 81.1447V39.7238H311.37V30.5192H322.151V14.0643H334.571V30.5192H349.387V39.7238H334.571V81.1447C334.571 84.423 335.222 86.8398 336.525 88.3949C337.828 89.95 339.572 90.7276 341.758 90.7276C343.229 90.7276 344.868 90.6015 346.676 90.3493C348.483 90.0551 349.891 89.8029 350.9 89.5928L352.602 97.7256C350.795 98.272 348.567 98.7554 345.919 99.1757C343.313 99.596 340.875 99.8061 338.606 99.8061ZM390.555 100.058C383.158 100.058 377.379 97.6836 373.218 92.9342C369.057 88.1848 366.976 80.7874 366.976 70.7422V40.2912L359.159 38.5259V30.5192H366.976H379.396V70.8683C379.396 78.1395 380.468 83.1411 382.612 85.8731C384.755 88.6051 388.096 89.9711 392.636 89.9711C397.049 89.9711 400.685 89.0884 403.543 87.3231C406.443 85.5158 408.628 82.973 410.099 79.6946V40.2912L400.958 38.5259V30.5192H410.099H422.519V89.0254L430.337 90.7906V98.7344H411.36L410.541 88.6471C408.397 92.3037 405.623 95.1198 402.219 97.0952C398.856 99.0706 394.968 100.058 390.555 100.058ZM466.714 100.058C462.133 100.058 457.846 99.596 453.853 98.6713C449.86 97.7467 445.615 96.3176 441.118 94.3842L440.992 78.1815H450.385L452.718 87.9536C455.072 88.9203 457.341 89.6348 459.527 90.0971C461.755 90.5174 464.15 90.7276 466.714 90.7276C471.758 90.7276 475.372 89.7609 477.558 87.8275C479.744 85.8941 480.836 83.4984 480.836 80.6403C480.836 77.9504 479.723 75.6807 477.495 73.8314C475.309 71.94 471.317 70.3429 465.516 69.0399C457.278 67.1486 451.205 64.6268 447.296 61.4745C443.429 58.2802 441.496 54.0351 441.496 48.7393C441.496 45.0406 442.568 41.7412 444.711 38.8412C446.855 35.899 449.839 33.5663 453.664 31.8431C457.489 30.1199 461.944 29.2582 467.029 29.2582C472.199 29.2582 476.612 29.8467 480.269 31.0235C483.968 32.2004 487.183 33.7765 489.915 35.7519L490.545 51.3242H481.215L479.197 42.2456C477.726 41.1528 475.982 40.3122 473.964 39.7238C471.947 39.1354 469.635 38.8412 467.029 38.8412C463.163 38.8412 460.01 39.7448 457.573 41.5521C455.177 43.3594 453.979 45.6291 453.979 48.361C453.979 49.9582 454.315 51.3452 454.988 52.522C455.702 53.6989 457.047 54.7707 459.023 55.7373C460.998 56.662 463.898 57.5867 467.723 58.5113C477.222 60.739 483.842 63.576 487.582 67.0225C491.365 70.469 493.256 74.714 493.256 79.7577C493.256 85.5158 491.113 90.3493 486.826 94.2581C482.581 98.1249 475.877 100.058 466.714 100.058ZM577.611 100.058C568.407 100.058 560.715 98.0409 554.537 94.006C548.4 89.9711 543.777 84.4441 540.667 77.425C537.598 70.4059 536.064 62.4412 536.064 53.5308V52.2068C536.064 43.2123 537.682 35.2265 540.919 28.2495C544.155 21.2304 548.799 15.7035 554.852 11.6685C560.904 7.63364 568.133 5.61618 576.539 5.61618C582.466 5.61618 587.888 6.54085 592.805 8.39018C597.723 10.2395 601.8 12.5932 605.036 15.4513V35.2476H595.138L593.814 20.7471C592.469 19.6963 590.914 18.8137 589.149 18.0992C587.425 17.3847 585.492 16.8383 583.348 16.46C581.247 16.0817 578.956 15.8926 576.476 15.8926C570.466 15.8926 565.38 17.4477 561.219 20.558C557.058 23.6262 553.906 27.8712 551.763 33.2932C549.619 38.7151 548.547 44.9776 548.547 52.0807V53.5308C548.547 61.2223 549.682 67.8001 551.952 73.264C554.263 78.6859 557.605 82.8259 561.976 85.684C566.389 88.542 571.748 89.9711 578.053 89.9711C580.995 89.9711 583.874 89.6138 586.69 88.8993C589.506 88.1848 591.839 87.2601 593.688 86.1253L595.075 73.327H604.784V93.2494C601.337 95.393 597.218 97.0742 592.427 98.2931C587.635 99.4699 582.697 100.058 577.611 100.058ZM639.081 100.058C631.977 100.058 626.577 98.3351 622.878 94.8886C619.179 91.4001 617.33 86.5035 617.33 80.199C617.33 75.8699 618.507 72.1082 620.86 68.9139C623.256 65.6775 626.703 63.1767 631.2 61.4114C635.697 59.6041 641.077 58.7005 647.34 58.7005H659.507V52.0177C659.507 47.8987 658.246 44.7044 655.725 42.4347C653.245 40.1651 649.735 39.0303 645.196 39.0303C642.338 39.0303 639.858 39.3875 637.757 40.1021C635.655 40.7746 633.743 41.7202 632.019 42.9391L630.696 52.459H621.113V36.8237C624.181 34.3439 627.753 32.4736 631.83 31.2127C635.907 29.9097 640.426 29.2582 645.385 29.2582C653.665 29.2582 660.159 31.2337 664.866 35.1845C669.574 39.1354 671.927 44.7884 671.927 52.1438V84.9905C671.927 85.8731 671.927 86.7347 671.927 87.5753C671.969 88.4159 672.032 89.2565 672.116 90.0971L678.736 90.7906V98.7344H660.894C660.516 96.885 660.222 95.2248 660.012 93.7538C659.802 92.2827 659.654 90.8117 659.57 89.3406C657.175 92.4088 654.169 94.9727 650.555 97.0321C646.982 99.0496 643.158 100.058 639.081 100.058ZM640.909 89.6558C645.028 89.6558 648.79 88.6681 652.194 86.6927C655.599 84.7173 658.036 82.3425 659.507 79.5685V67.2116H646.898C641.182 67.2116 636.895 68.5776 634.037 71.3096C631.179 74.0416 629.75 77.0888 629.75 80.4512C629.75 83.4353 630.675 85.726 632.524 87.3231C634.373 88.8783 637.168 89.6558 640.909 89.6558ZM686.491 124.961V116.955L696.137 115.189V40.2912L685.86 38.5259V30.5192H706.791L707.926 38.8412C710.196 35.7309 712.949 33.3562 716.185 31.717C719.464 30.0778 723.246 29.2582 727.533 29.2582C733.165 29.2582 737.978 30.7923 741.971 33.8606C745.964 36.8867 749.011 41.1528 751.112 46.6588C753.214 52.1227 754.265 58.5324 754.265 65.8877V67.2116C754.265 73.7684 753.193 79.5055 751.049 84.423C748.948 89.3406 745.922 93.1864 741.971 95.9604C738.02 98.6923 733.271 100.058 727.723 100.058C723.52 100.058 719.821 99.3648 716.627 97.9778C713.474 96.5488 710.784 94.4473 708.557 91.6733V115.189L719.401 116.955V124.961H686.491ZM723.877 90.3493C729.761 90.3493 734.216 88.2058 737.242 83.9187C740.269 79.6316 741.782 74.0626 741.782 67.2116V65.8877C741.782 60.6759 741.109 56.0946 739.764 52.1438C738.419 48.1509 736.402 45.0196 733.712 42.75C731.064 40.4803 727.744 39.3455 723.751 39.3455C720.22 39.3455 717.194 40.1441 714.672 41.7412C712.15 43.3384 710.112 45.524 708.557 48.298V81.523C710.112 84.339 712.129 86.5246 714.609 88.0797C717.131 89.5928 720.22 90.3493 723.877 90.3493ZM763.469 98.7344V90.7906L773.746 89.0254V40.2912L763.469 38.5259V30.5192H786.166V89.0254L796.442 90.7906V98.7344H763.469ZM773.115 13.686V0.383404H786.166V13.686H773.115ZM829.1 99.8061C824.056 99.8061 820.042 98.3351 817.058 95.393C814.116 92.4088 812.645 87.6594 812.645 81.1447V39.7238H801.864V30.5192H812.645V14.0643H825.065V30.5192H839.88V39.7238H825.065V81.1447C825.065 84.423 825.716 86.8398 827.019 88.3949C828.322 89.95 830.066 90.7276 832.252 90.7276C833.723 90.7276 835.362 90.6015 837.17 90.3493C838.977 90.0551 840.385 89.8029 841.394 89.5928L843.096 97.7256C841.288 98.272 839.061 98.7554 836.413 99.1757C833.807 99.596 831.369 99.8061 829.1 99.8061ZM873.105 100.058C866.002 100.058 860.601 98.3351 856.903 94.8886C853.204 91.4001 851.355 86.5035 851.355 80.199C851.355 75.8699 852.532 72.1082 854.885 68.9139C857.281 65.6775 860.728 63.1767 865.225 61.4114C869.722 59.6041 875.102 58.7005 881.364 58.7005H893.532V52.0177C893.532 47.8987 892.271 44.7044 889.75 42.4347C887.27 40.1651 883.76 39.0303 879.221 39.0303C876.363 39.0303 873.883 39.3875 871.782 40.1021C869.68 40.7746 867.768 41.7202 866.044 42.9391L864.72 52.459H855.138V36.8237C858.206 34.3439 861.778 32.4736 865.855 31.2127C869.932 29.9097 874.45 29.2582 879.41 29.2582C887.69 29.2582 894.184 31.2337 898.891 35.1845C903.599 39.1354 905.952 44.7884 905.952 52.1438V84.9905C905.952 85.8731 905.952 86.7347 905.952 87.5753C905.994 88.4159 906.057 89.2565 906.141 90.0971L912.761 90.7906V98.7344H894.919C894.541 96.885 894.247 95.2248 894.037 93.7538C893.826 92.2827 893.679 90.8117 893.595 89.3406C891.2 92.4088 888.194 94.9727 884.58 97.0321C881.007 99.0496 877.182 100.058 873.105 100.058ZM874.934 89.6558C879.053 89.6558 882.815 88.6681 886.219 86.6927C889.623 84.7173 892.061 82.3425 893.532 79.5685V67.2116H880.923C875.207 67.2116 870.92 68.5776 868.062 71.3096C865.204 74.0416 863.775 77.0888 863.775 80.4512C863.775 83.4353 864.699 85.726 866.549 87.3231C868.398 88.8783 871.193 89.6558 874.934 89.6558ZM921.777 98.7344V90.7906L932.053 89.0254V10.1555L921.777 8.39018V0.383404H944.473V89.0254L954.749 90.7906V98.7344H921.777Z" fill="white"/>
</svg>
