<svg width="533" height="131" viewBox="0 0 533 131" fill="none" xmlns="http://www.w3.org/2000/svg">
<path d="M116.897 0.610352H13.0163C5.84487 0.610352 0.03125 6.42397 0.03125 13.5954V117.476C0.03125 124.648 5.84487 130.461 13.0163 130.461H116.897C124.068 130.461 129.882 124.648 129.882 117.476V13.5954C129.882 6.42397 124.068 0.610352 116.897 0.610352Z" fill="#1C68F3"/>
<mask id="mask0_2119_15" style="mask-type:alpha" maskUnits="userSpaceOnUse" x="18" y="18" width="94" height="95">
<path d="M111.719 47.3572V73.3274H33.8087V73.3276L30.4566 73.3277C34.0044 89.0854 48.0845 100.856 64.9138 100.856C78.8271 100.856 90.8614 92.8108 96.6187 81.1189L111.719 81.1187V102.933C111.719 108.097 107.533 112.283 102.37 112.283H27.5758C22.4124 112.283 18.2266 108.097 18.2266 102.933V47.3572H111.719ZM87.6517 81.1189C82.6935 88.3678 74.3592 93.1249 64.9138 93.1249C55.4684 93.1249 47.134 88.3678 42.1759 81.1189H87.6517ZM44.9758 53.5901C37.6492 53.5901 31.5879 59.0079 30.5798 66.0558L38.5492 66.0559C39.4255 63.3432 41.9715 61.3811 44.9758 61.3811C47.9802 61.3811 50.5262 63.3432 51.4025 66.0559L59.3719 66.0558C58.3638 59.0079 52.3025 53.5901 44.9758 53.5901ZM84.9699 53.5901C77.6432 53.5901 71.5819 59.0079 70.5739 66.0558L78.5433 66.0559C79.4195 63.3432 81.9656 61.3811 84.9699 61.3811C87.9742 61.3811 90.5203 63.3432 91.3965 66.0559L99.3659 66.0558C98.3578 59.0079 92.2966 53.5901 84.9699 53.5901ZM102.37 18.79C107.533 18.79 111.719 22.9758 111.719 28.1393V39.5662H18.2266V28.1393C18.2266 22.9758 22.4124 18.79 27.5758 18.79H102.37Z" fill="white"/>
</mask>
<g mask="url(#mask0_2119_15)">
<path d="M111.688 47.3572V73.3274H33.7774V73.3276L30.4253 73.3277C33.9732 89.0854 48.0533 100.856 64.8825 100.856C78.7958 100.856 90.8301 92.8108 96.5875 81.1189L111.688 81.1187V102.933C111.688 108.097 107.502 112.283 102.339 112.283H27.5446C22.3811 112.283 18.1953 108.097 18.1953 102.933V47.3572H111.688ZM87.6204 81.1189C82.6623 88.3678 74.3279 93.1249 64.8825 93.1249C55.4371 93.1249 47.1028 88.3678 42.1446 81.1189H87.6204ZM44.9446 53.5901C37.6179 53.5901 31.5566 59.0079 30.5486 66.0558L38.518 66.0559C39.3942 63.3432 41.9403 61.3811 44.9446 61.3811C47.9489 61.3811 50.495 63.3432 51.3712 66.0559L59.3406 66.0558C58.3325 59.0079 52.2713 53.5901 44.9446 53.5901ZM84.9386 53.5901C77.612 53.5901 71.5507 59.0079 70.5426 66.0558L78.512 66.0559C79.3883 63.3432 81.9343 61.3811 84.9386 61.3811C87.943 61.3811 90.489 63.3432 91.3653 66.0559L99.3347 66.0558C98.3266 59.0079 92.2653 53.5901 84.9386 53.5901ZM102.339 18.79C107.502 18.79 111.688 22.9758 111.688 28.1393V39.5662H18.1953V28.1393C18.1953 22.9758 22.3811 18.79 27.5446 18.79H102.339Z" fill="white"/>
</g>
<path d="M413.793 43.7223C427.941 43.7223 444.012 49.2302 444.973 66.8555H425.193C424.781 61.7607 420.111 59.4198 413.93 59.4198C408.161 59.4198 405.551 61.623 405.551 64.2393C405.551 66.4424 407.2 68.5079 412.419 69.4718L424.919 71.5372C437.418 73.8781 445.66 79.9368 445.66 91.7788C445.66 107.201 431.787 114.361 414.48 114.361C397.035 114.361 382.887 107.063 381.514 89.3002L401.293 89.4379C402.255 95.2212 407.062 97.8374 414.067 97.8374C419.974 97.8374 423.545 96.0474 423.545 93.1557C423.545 90.9526 421.485 89.1625 417.089 88.474L403.628 86.1332C392.09 84.2054 384.123 77.7336 384.123 66.0293C384.123 51.9842 396.074 43.7223 413.793 43.7223ZM330.416 43.982C337.683 43.982 343.716 45.9077 348.653 49.0714V45.4951H370.866V112.207H348.653V108.493C343.716 111.656 337.683 113.582 330.416 113.582C312.453 113.582 297.37 98.5892 297.37 78.782C297.37 58.8374 312.453 43.982 330.416 43.982ZM200.306 18.5313L233.614 68.5784L266.784 18.5313H284.125V112.284H260.865V65.2695L240.082 97.3935V97.5313H227.145V97.3935L206.224 64.9938L206.362 112.284H183.102V18.5313H200.306ZM480.148 14.6357V70.6113L503.393 45.5805H529.94L504.631 72.8118L532.14 112.284H505.457L489.501 89.1781L480.148 99.218V112.284H457.866V14.6357H480.148ZM334.804 62.1385C325.754 62.1385 319.172 69.5662 319.172 78.782C319.172 87.9978 325.754 95.288 334.804 95.288C339.74 95.288 344.539 93.9125 348.653 89.0982V68.4658C344.539 63.6516 339.74 62.1385 334.804 62.1385Z" fill="#1C68F3"/>
</svg>
