<svg width="533" height="131" viewBox="0 0 533 131" fill="none" xmlns="http://www.w3.org/2000/svg">
<g opacity="0.5">
<path d="M116.901 0.610352H13.0202C5.84878 0.610352 0.0351562 6.42397 0.0351562 13.5954V117.476C0.0351562 124.648 5.84878 130.461 13.0202 130.461H116.901C124.072 130.461 129.886 124.648 129.886 117.476V13.5954C129.886 6.42397 124.072 0.610352 116.901 0.610352Z" fill="white"/>
<mask id="mask0_870_14" style="mask-type:alpha" maskUnits="userSpaceOnUse" x="18" y="18" width="94" height="95">
<path d="M111.723 47.3572V73.3274H33.8126V73.3276L30.4605 73.3277C34.0083 89.0854 48.0885 100.856 64.9177 100.856C78.831 100.856 90.8653 92.8108 96.6226 81.1189L111.723 81.1187V102.933C111.723 108.097 107.537 112.283 102.374 112.283H27.5797C22.4163 112.283 18.2305 108.097 18.2305 102.933V47.3572H111.723ZM87.6556 81.1189C82.6974 88.3678 74.3631 93.1249 64.9177 93.1249C55.4723 93.1249 47.138 88.3678 42.1798 81.1189H87.6556ZM44.9797 53.5901C37.6531 53.5901 31.5918 59.0079 30.5837 66.0558L38.5531 66.0559C39.4294 63.3432 41.9754 61.3811 44.9797 61.3811C47.9841 61.3811 50.5301 63.3432 51.4064 66.0559L59.3758 66.0558C58.3677 59.0079 52.3064 53.5901 44.9797 53.5901ZM84.9738 53.5901C77.6471 53.5901 71.5859 59.0079 70.5778 66.0558L78.5472 66.0559C79.4234 63.3432 81.9695 61.3811 84.9738 61.3811C87.9781 61.3811 90.5242 63.3432 91.4004 66.0559L99.3698 66.0558C98.3617 59.0079 92.3005 53.5901 84.9738 53.5901ZM102.374 18.79C107.537 18.79 111.723 22.9758 111.723 28.1393V39.5662H18.2305V28.1393C18.2305 22.9758 22.4163 18.79 27.5797 18.79H102.374Z" fill="white"/>
</mask>
<g mask="url(#mask0_870_14)">
<path d="M111.692 47.3572V73.3274H33.7813V73.3276L30.4293 73.3277C33.9771 89.0854 48.0572 100.856 64.8864 100.856C78.7998 100.856 90.8341 92.8108 96.5914 81.1189L111.692 81.1187V102.933C111.692 108.097 107.506 112.283 102.343 112.283H27.5485C22.385 112.283 18.1992 108.097 18.1992 102.933V47.3572H111.692ZM87.6244 81.1189C82.6662 88.3678 74.3318 93.1249 64.8864 93.1249C55.441 93.1249 47.1067 88.3678 42.1485 81.1189H87.6244ZM44.9485 53.5901C37.6218 53.5901 31.5605 59.0079 30.5525 66.0558L38.5219 66.0559C39.3981 63.3432 41.9442 61.3811 44.9485 61.3811C47.9528 61.3811 50.4989 63.3432 51.3751 66.0559L59.3445 66.0558C58.3364 59.0079 52.2752 53.5901 44.9485 53.5901ZM84.9425 53.5901C77.6159 53.5901 71.5546 59.0079 70.5465 66.0558L78.5159 66.0559C79.3922 63.3432 81.9382 61.3811 84.9425 61.3811C87.9469 61.3811 90.4929 63.3432 91.3692 66.0559L99.3386 66.0558C98.3305 59.0079 92.2692 53.5901 84.9425 53.5901ZM102.343 18.79C107.506 18.79 111.692 22.9758 111.692 28.1393V39.5662H18.1992V28.1393C18.1992 22.9758 22.385 18.79 27.5485 18.79H102.343Z" fill="#090914"/>
</g>
<path d="M413.797 43.7223C427.945 43.7223 444.015 49.2302 444.977 66.8555H425.197C424.785 61.7607 420.115 59.4198 413.934 59.4198C408.165 59.4198 405.555 61.623 405.555 64.2393C405.555 66.4424 407.203 68.5079 412.423 69.4718L424.923 71.5372C437.422 73.8781 445.664 79.9368 445.664 91.7788C445.664 107.201 431.791 114.361 414.483 114.361C397.039 114.361 382.891 107.063 381.517 89.3002L401.297 89.4379C402.259 95.2212 407.066 97.8374 414.071 97.8374C419.978 97.8374 423.549 96.0474 423.549 93.1557C423.549 90.9526 421.489 89.1625 417.093 88.474L403.632 86.1332C392.094 84.2054 384.127 77.7336 384.127 66.0293C384.127 51.9842 396.077 43.7223 413.797 43.7223ZM330.42 43.982C337.687 43.982 343.72 45.9077 348.657 49.0713V45.4951H370.87V112.207H348.657V108.493C343.72 111.656 337.687 113.582 330.42 113.582C312.457 113.582 297.374 98.5892 297.374 78.782C297.374 58.8374 312.457 43.982 330.42 43.982ZM200.31 18.5313L233.617 68.5784L266.787 18.5313H284.129V112.284H260.869V65.2695L240.086 97.3935V97.5313H227.149V97.3935L206.228 64.9938L206.366 112.284H183.105V18.5313H200.31ZM480.152 14.6357V70.6113L503.397 45.5805H529.944L504.635 72.8118L532.144 112.284H505.461L489.505 89.1781L480.152 99.218V112.284H457.87V14.6357H480.152ZM334.808 62.1386C325.758 62.1386 319.176 69.5662 319.176 78.782C319.176 87.9978 325.758 95.288 334.808 95.288C339.744 95.288 344.543 93.9125 348.657 89.0982V68.4658C344.543 63.6516 339.744 62.1386 334.808 62.1386Z" fill="white"/>
</g>
</svg>
