<svg width="657" height="138" viewBox="0 0 657 138" fill="none" xmlns="http://www.w3.org/2000/svg">
<g opacity="0.5">
<g clip-path="url(#clip0_870_64)">
<path d="M133.808 91.26L119.216 69.3592L104.624 91.26L60.8488 25.5596H2.48047L17.0736 47.4559H46.2574L104.626 135.055L133.808 91.26Z" fill="#080813" stroke="white" stroke-width="4.38628" stroke-linejoin="round"/>
<path d="M104.626 3.66016L119.218 25.5591L46.2563 135.057L31.6641 113.158L104.626 3.66016Z" fill="#080813" stroke="white" stroke-width="4.38628" stroke-linejoin="round"/>
<path d="M119.217 69.3604L104.627 91.262L90.0352 69.3612L119.217 69.3604Z" fill="#080813" stroke="white" stroke-width="4.38628" stroke-linejoin="round"/>
<path d="M75.4416 91.2588L104.626 135.059H75.4469L60.8555 113.158L75.4416 91.2588Z" fill="#080813" stroke="white" stroke-width="4.38628" stroke-linejoin="round"/>
<path d="M46.2573 47.459L60.8496 69.358L31.6651 113.159H2.48047L46.2573 47.459Z" fill="#080813" stroke="white" stroke-width="4.38628" stroke-linejoin="round"/>
<path d="M46.2573 135.059H17.0728L2.48047 113.158H31.6651L46.2573 135.059Z" fill="#080813" stroke="white" stroke-width="4.38628" stroke-linejoin="round"/>
<path d="M46.254 47.4588L31.6608 69.3578L17.0703 47.457L46.254 47.4588Z" fill="#080813" stroke="white" stroke-width="4.38628" stroke-linejoin="round"/>
<path d="M104.626 3.66092L75.4402 47.4588L60.8487 25.5599H2.48047L17.0728 3.65918L104.626 3.66092Z" fill="#080813" stroke="white" stroke-width="4.38628" stroke-linejoin="round"/>
</g>
<path d="M349.608 87.6929L327.68 29.3096H344.499L360.82 71.0475C361.645 73.1586 363.68 74.548 365.947 74.548C368.225 74.548 370.268 73.145 371.086 71.0189L387.128 29.3096H404.237L382.309 87.6929C381.544 89.7289 379.597 91.0774 377.422 91.0774H354.494C352.319 91.0774 350.372 89.7289 349.608 87.6929Z" fill="white"/>
<path d="M167.569 134.645L159.777 106.446H167.458L172.779 127.141C173.037 128.144 173.941 128.846 174.977 128.846C175.976 128.846 176.858 128.191 177.148 127.234L183.446 106.446H191.26L182.35 134.727C182.038 135.719 181.117 136.394 180.077 136.394H169.866C168.794 136.394 167.854 135.679 167.569 134.645Z" fill="white"/>
<path d="M159.787 91.0764V74.257H215.755C218.318 74.257 220.395 72.1797 220.395 69.6172V50.1879C220.395 47.6254 218.318 45.548 215.755 45.548H167.907C163.102 45.548 159.207 41.6531 159.207 36.8484V9.58934C159.207 4.78463 163.102 0.889648 167.907 0.889648H236.344V17.4191H180.086C177.524 17.4191 175.446 19.4964 175.446 22.0589V24.3788C175.446 26.9413 177.524 29.0186 180.086 29.0186H228.805C232.969 29.0186 236.344 32.3943 236.344 36.5584V83.5367C236.344 87.7008 232.969 91.0764 228.805 91.0764H159.787Z" fill="white"/>
<path d="M624.531 136.381V130.69H649.268C650.135 130.69 650.837 129.987 650.837 129.12V128.346C650.837 127.479 650.135 126.776 649.268 126.776H627.858C626.233 126.776 624.915 125.458 624.915 123.832V114.61C624.915 112.984 626.233 111.666 627.858 111.666H656.234V117.259H631.979C631.112 117.259 630.41 117.962 630.41 118.829V119.613C630.41 120.48 631.112 121.183 631.979 121.183H653.683C655.092 121.183 656.234 122.325 656.234 123.734V133.83C656.234 135.238 655.092 136.381 653.683 136.381H624.531Z" fill="white"/>
<path fill-rule="evenodd" clip-rule="evenodd" d="M244.453 37.1363V83.5346C244.453 87.3784 247.569 90.4944 251.413 90.4944H296.361V74.255H263.447C261.606 74.255 260.113 72.7619 260.113 70.9201C260.113 69.0783 261.606 67.5852 263.447 67.5852H313.471C317.314 67.5852 320.43 64.4692 320.43 60.6255V37.1363C320.43 32.6519 316.795 29.0166 312.311 29.0166H252.573C248.088 29.0166 244.453 32.6519 244.453 37.1363ZM263.592 44.9657C261.67 44.9657 260.112 46.5237 260.112 48.4456C260.112 50.3675 261.67 51.9254 263.592 51.9254H301.291C303.213 51.9254 304.771 50.3675 304.771 48.4456C304.771 46.5237 303.213 44.9657 301.291 44.9657H263.592Z" fill="white"/>
<path fill-rule="evenodd" clip-rule="evenodd" d="M229.953 114.322V133.448C229.953 135.032 231.238 136.317 232.822 136.317H251.35V129.622H237.783C237.024 129.622 236.408 129.007 236.408 128.248C236.408 127.489 237.024 126.873 237.783 126.873H258.403C259.988 126.873 261.272 125.589 261.272 124.004V114.322C261.272 112.473 259.773 110.975 257.925 110.975H233.3C231.452 110.975 229.953 112.473 229.953 114.322ZM237.841 117.549C237.049 117.549 236.406 118.191 236.406 118.983C236.406 119.775 237.049 120.418 237.841 120.418H253.381C254.173 120.418 254.815 119.775 254.815 118.983C254.815 118.191 254.173 117.549 253.381 117.549H237.841Z" fill="white"/>
<path fill-rule="evenodd" clip-rule="evenodd" d="M554.164 114.432V133.558C554.164 135.142 555.449 136.427 557.033 136.427H575.561V129.733H561.994C561.235 129.733 560.619 129.117 560.619 128.358C560.619 127.599 561.235 126.983 561.994 126.983H582.614C584.198 126.983 585.483 125.699 585.483 124.115V114.432C585.483 112.583 583.984 111.085 582.136 111.085H557.511C555.663 111.085 554.164 112.583 554.164 114.432ZM562.052 117.659C561.26 117.659 560.617 118.301 560.617 119.094C560.617 119.886 561.26 120.528 562.052 120.528H577.592C578.384 120.528 579.026 119.886 579.026 119.094C579.026 118.301 578.384 117.659 577.592 117.659H562.052Z" fill="white"/>
<path d="M514.44 111.376V117.756H506.901C505.62 117.756 504.581 118.794 504.581 120.076V136.895H497.621V113.696C497.621 112.415 498.66 111.376 499.941 111.376H514.44Z" fill="white"/>
<path fill-rule="evenodd" clip-rule="evenodd" d="M411.484 37.4283V83.8266C411.484 87.6704 414.6 90.7864 418.444 90.7864H463.393V74.547H430.479C428.637 74.547 427.144 73.0539 427.144 71.2121C427.144 69.3703 428.637 67.8772 430.479 67.8772H480.502C484.346 67.8772 487.462 64.7612 487.462 60.9175V37.4283C487.462 32.9439 483.826 29.3086 479.342 29.3086H419.604C415.12 29.3086 411.484 32.9439 411.484 37.4283ZM430.623 45.2577C428.701 45.2577 427.143 46.8157 427.143 48.7376C427.143 50.6594 428.701 52.2174 430.623 52.2174H468.322C470.244 52.2174 471.802 50.6594 471.802 48.7376C471.802 46.8157 470.244 45.2577 468.322 45.2577H430.623Z" fill="white"/>
<path d="M511.475 91.3674H495.008V36.8493C495.008 32.6852 498.383 29.3096 502.548 29.3096H564.025C568.189 29.3096 571.565 32.6852 571.565 36.8493V91.3674H555.676V50.0438C555.676 47.161 553.339 44.824 550.456 44.824H516.695C513.812 44.824 511.475 47.161 511.475 50.0438V91.3674Z" fill="white"/>
<path d="M307.49 136.605H300.719V114.186C300.719 112.474 302.107 111.086 303.819 111.086H329.1C330.812 111.086 332.2 112.474 332.2 114.186V136.605H325.666V119.612C325.666 118.427 324.705 117.466 323.52 117.466H309.637C308.451 117.466 307.49 118.427 307.49 119.612V136.605Z" fill="white"/>
<path d="M434.502 111.086H427.73V133.505C427.73 135.217 429.119 136.605 430.831 136.605H456.112C457.824 136.605 459.212 135.217 459.212 133.505V111.086H452.678V128.079C452.678 129.265 451.717 130.226 450.532 130.226H436.648C435.463 130.226 434.502 129.265 434.502 128.079V111.086Z" fill="white"/>
<path d="M374.658 109.491V106.446H381.327V109.491C381.327 110.452 382.106 111.231 383.067 111.231H387.997V117.756H383.067C382.106 117.756 381.327 118.535 381.327 119.496V136.605H374.658V119.496C374.658 118.535 373.879 117.756 372.918 117.756H371.758V111.231H372.918C373.879 111.231 374.658 110.452 374.658 109.491Z" fill="white"/>
<path d="M599.742 30.8752L579.395 0.889648H596.504L614.401 26.9211C615.178 28.0526 616.464 28.7287 617.837 28.7287C619.189 28.7287 620.458 28.0727 621.239 26.969L639.712 0.889648H656.242L635.824 31.3806C634.989 32.6278 634.808 34.2021 635.34 35.6058L656.242 90.7864H639.712L623.488 49.2952C622.605 47.0353 620.426 45.548 618 45.548C615.537 45.548 613.334 47.0793 612.476 49.3876L597.084 90.7864H579.685L600.366 36.1862C601.036 34.4198 600.802 32.4382 599.742 30.8752Z" fill="white"/>
</g>
<defs>
<clipPath id="clip0_870_64">
<rect width="135.715" height="135.783" fill="white" transform="translate(0.285156 1.46973)"/>
</clipPath>
</defs>
</svg>
