<svg width="657" height="138" viewBox="0 0 657 138" fill="none" xmlns="http://www.w3.org/2000/svg">
<g clip-path="url(#clip0_2119_65)">
<path d="M133.805 91.26L119.212 69.3592L104.62 91.26L60.8449 25.5596H2.47656L17.0697 47.4559H46.2535L104.622 135.055L133.805 91.26Z" fill="#080813" stroke="#7051D5" stroke-width="8" stroke-linejoin="round"/>
<path d="M104.618 3.66016L119.21 25.5591L46.2485 135.057L31.6562 113.158L104.618 3.66016Z" fill="#080813" stroke="#7051D5" stroke-width="8" stroke-linejoin="round"/>
<path d="M119.213 69.3604L104.623 91.262L90.0312 69.3612L119.213 69.3604Z" fill="#080813" stroke="#7051D5" stroke-width="8" stroke-linejoin="round"/>
<path d="M75.4377 91.2588L104.622 135.059H75.443L60.8516 113.158L75.4377 91.2588Z" fill="#080813" stroke="#7051D5" stroke-width="8" stroke-linejoin="round"/>
<path d="M46.2534 47.459L60.8457 69.358L31.6611 113.159H2.47656L46.2534 47.459Z" fill="#080813" stroke="#7051D5" stroke-width="8" stroke-linejoin="round"/>
<path d="M46.2534 135.059H17.0689L2.47656 113.158H31.6611L46.2534 135.059Z" fill="#080813" stroke="#7051D5" stroke-width="8" stroke-linejoin="round"/>
<path d="M46.254 47.4588L31.6608 69.3578L17.0703 47.457L46.254 47.4588Z" fill="#080813" stroke="#7051D5" stroke-width="8" stroke-linejoin="round"/>
<path d="M104.622 3.66092L75.4362 47.4588L60.8448 25.5599H2.47656L17.0689 3.65918L104.622 3.66092Z" fill="#080813" stroke="#7051D5" stroke-width="8" stroke-linejoin="round"/>
</g>
<path d="M349.608 87.6929L327.68 29.3096H344.499L360.82 71.0475C361.645 73.1586 363.68 74.548 365.947 74.548C368.225 74.548 370.268 73.145 371.086 71.0189L387.128 29.3096H404.237L382.309 87.6929C381.544 89.7289 379.597 91.0774 377.422 91.0774H354.494C352.319 91.0774 350.372 89.7289 349.608 87.6929Z" fill="#7051D5"/>
<path opacity="0.5" d="M167.565 134.645L159.773 106.446H167.455L172.775 127.141C173.033 128.144 173.937 128.846 174.973 128.846C175.972 128.846 176.854 128.191 177.144 127.234L183.442 106.446H191.256L182.346 134.727C182.034 135.719 181.113 136.394 180.073 136.394H169.863C168.791 136.394 167.85 135.679 167.565 134.645Z" fill="white"/>
<path d="M159.783 91.0764V74.257H215.751C218.314 74.257 220.391 72.1797 220.391 69.6172V50.1879C220.391 47.6254 218.314 45.548 215.751 45.548H167.903C163.098 45.548 159.203 41.6531 159.203 36.8484V9.58934C159.203 4.78463 163.098 0.889648 167.903 0.889648H236.34V17.4191H180.082C177.52 17.4191 175.443 19.4964 175.443 22.0589V24.3788C175.443 26.9413 177.52 29.0186 180.082 29.0186H228.801C232.965 29.0186 236.34 32.3943 236.34 36.5584V83.5367C236.34 87.7008 232.965 91.0764 228.801 91.0764H159.783Z" fill="#7051D5"/>
<path opacity="0.5" d="M624.531 136.381V130.69H649.268C650.135 130.69 650.837 129.987 650.837 129.12V128.346C650.837 127.479 650.135 126.776 649.268 126.776H627.858C626.233 126.776 624.915 125.458 624.915 123.832V114.61C624.915 112.984 626.233 111.666 627.858 111.666H656.234V117.259H631.979C631.112 117.259 630.41 117.962 630.41 118.829V119.613C630.41 120.48 631.112 121.183 631.979 121.183H653.683C655.092 121.183 656.234 122.325 656.234 123.734V133.83C656.234 135.238 655.092 136.381 653.683 136.381H624.531Z" fill="white"/>
<path fill-rule="evenodd" clip-rule="evenodd" d="M244.453 37.1363V83.5346C244.453 87.3784 247.569 90.4944 251.413 90.4944H296.361V74.255H263.447C261.606 74.255 260.113 72.7619 260.113 70.9201C260.113 69.0783 261.606 67.5852 263.447 67.5852H313.471C317.314 67.5852 320.43 64.4692 320.43 60.6255V37.1363C320.43 32.6519 316.795 29.0166 312.311 29.0166H252.573C248.088 29.0166 244.453 32.6519 244.453 37.1363ZM263.592 44.9657C261.67 44.9657 260.112 46.5237 260.112 48.4456C260.112 50.3675 261.67 51.9254 263.592 51.9254H301.291C303.213 51.9254 304.771 50.3675 304.771 48.4456C304.771 46.5237 303.213 44.9657 301.291 44.9657H263.592Z" fill="#7051D5"/>
<path opacity="0.5" fill-rule="evenodd" clip-rule="evenodd" d="M229.953 114.322V133.448C229.953 135.032 231.238 136.317 232.822 136.317H251.35V129.622H237.783C237.024 129.622 236.408 129.007 236.408 128.248C236.408 127.489 237.024 126.873 237.783 126.873H258.403C259.988 126.873 261.272 125.589 261.272 124.004V114.322C261.272 112.473 259.773 110.975 257.925 110.975H233.3C231.452 110.975 229.953 112.473 229.953 114.322ZM237.841 117.549C237.049 117.549 236.406 118.191 236.406 118.983C236.406 119.775 237.049 120.418 237.841 120.418H253.381C254.173 120.418 254.815 119.775 254.815 118.983C254.815 118.191 254.173 117.549 253.381 117.549H237.841Z" fill="white"/>
<path opacity="0.5" fill-rule="evenodd" clip-rule="evenodd" d="M554.164 114.432V133.558C554.164 135.142 555.449 136.427 557.033 136.427H575.561V129.733H561.994C561.235 129.733 560.619 129.117 560.619 128.358C560.619 127.599 561.235 126.983 561.994 126.983H582.614C584.198 126.983 585.483 125.699 585.483 124.115V114.432C585.483 112.583 583.984 111.085 582.136 111.085H557.511C555.663 111.085 554.164 112.583 554.164 114.432ZM562.052 117.659C561.26 117.659 560.617 118.301 560.617 119.094C560.617 119.886 561.26 120.528 562.052 120.528H577.592C578.384 120.528 579.026 119.886 579.026 119.094C579.026 118.301 578.384 117.659 577.592 117.659H562.052Z" fill="white"/>
<path opacity="0.5" d="M514.437 111.376V117.756H506.897C505.616 117.756 504.577 118.794 504.577 120.076V136.895H497.617V113.696C497.617 112.415 498.656 111.376 499.937 111.376H514.437Z" fill="white"/>
<path fill-rule="evenodd" clip-rule="evenodd" d="M411.477 37.4283V83.8266C411.477 87.6704 414.593 90.7864 418.436 90.7864H463.385V74.547H430.471C428.629 74.547 427.136 73.0539 427.136 71.2121C427.136 69.3703 428.629 67.8772 430.471 67.8772H480.494C484.338 67.8772 487.454 64.7612 487.454 60.9175V37.4283C487.454 32.9439 483.819 29.3086 479.334 29.3086H419.596C415.112 29.3086 411.477 32.9439 411.477 37.4283ZM430.616 45.2577C428.694 45.2577 427.136 46.8157 427.136 48.7376C427.136 50.6594 428.694 52.2174 430.616 52.2174H468.314C470.236 52.2174 471.794 50.6594 471.794 48.7376C471.794 46.8157 470.236 45.2577 468.314 45.2577H430.616Z" fill="#7051D5"/>
<path d="M511.467 91.3674H495V36.8493C495 32.6852 498.376 29.3096 502.54 29.3096H564.018C568.182 29.3096 571.557 32.6852 571.557 36.8493V91.3674H555.668V50.0438C555.668 47.161 553.331 44.824 550.448 44.824H516.687C513.804 44.824 511.467 47.161 511.467 50.0438V91.3674Z" fill="#7051D5"/>
<path opacity="0.5" d="M307.482 136.605H300.711V114.186C300.711 112.474 302.099 111.086 303.811 111.086H329.092C330.804 111.086 332.192 112.474 332.192 114.186V136.605H325.659V119.612C325.659 118.427 324.698 117.466 323.512 117.466H309.629C308.443 117.466 307.482 118.427 307.482 119.612V136.605Z" fill="white"/>
<path opacity="0.5" d="M434.498 111.086H427.727V133.505C427.727 135.217 429.115 136.605 430.827 136.605H456.108C457.82 136.605 459.208 135.217 459.208 133.505V111.086H452.674V128.079C452.674 129.265 451.713 130.226 450.528 130.226H436.645C435.459 130.226 434.498 129.265 434.498 128.079V111.086Z" fill="white"/>
<path opacity="0.5" d="M374.658 109.491V106.446H381.327V109.491C381.327 110.452 382.106 111.231 383.067 111.231H387.997V117.756H383.067C382.106 117.756 381.327 118.535 381.327 119.496V136.605H374.658V119.496C374.658 118.535 373.879 117.756 372.918 117.756H371.758V111.231H372.918C373.879 111.231 374.658 110.452 374.658 109.491Z" fill="white"/>
<path d="M599.738 30.8752L579.391 0.889648H596.5L614.397 26.9211C615.175 28.0526 616.46 28.7287 617.833 28.7287C619.185 28.7287 620.454 28.0727 621.236 26.969L639.708 0.889648H656.238L635.82 31.3806C634.985 32.6278 634.804 34.2021 635.336 35.6058L656.238 90.7864H639.708L623.484 49.2952C622.601 47.0353 620.422 45.548 617.996 45.548C615.533 45.548 613.33 47.0793 612.472 49.3876L597.08 90.7864H579.681L600.363 36.1862C601.032 34.4198 600.799 32.4382 599.738 30.8752Z" fill="#7051D5"/>
<defs>
<clipPath id="clip0_2119_65">
<rect width="135.715" height="135.783" fill="white" transform="translate(0.28125 1.46973)"/>
</clipPath>
</defs>
</svg>
