<svg width="898" height="136" viewBox="0 0 898 136" fill="none" xmlns="http://www.w3.org/2000/svg">
<g opacity="0.5" clip-path="url(#clip0_870_154)">
<path d="M479.714 87.725C478.545 91.6365 476.98 95.3523 475.225 98.6774C474.64 99.8507 474.055 100.829 473.466 102.002C470.345 106.5 464.879 109.629 459.023 109.629C453.755 109.629 448.874 107.282 445.753 103.567C445.555 103.371 445.361 103.175 445.168 102.98C441.848 99.2638 437.165 96.9169 431.894 96.9169C430.526 96.9169 429.357 97.1125 428.187 97.3081V133.881C424.282 134.663 419.987 135.054 415.889 135.054C378.804 135.054 348.941 104.936 348.941 67.9715C348.941 31.0077 378.609 0.693359 415.695 0.693359C422.721 0.693359 429.55 1.86682 435.992 3.82259L416.082 23.7714L428.187 35.8972L470.736 78.5327L472.49 80.2932L479.714 87.725Z" fill="white"/>
<path d="M0.738281 86.7477L6.9841 83.6187C10.3022 91.246 17.9143 95.3531 27.6735 95.3531C38.2133 95.3531 46.2156 89.8771 46.2156 80.4893C46.2156 70.3193 37.0422 68.3636 27.0879 66.2122C15.5721 63.67 2.49492 60.345 2.49492 45.0902C2.49492 33.1599 13.6203 23.9678 26.8927 23.9678C37.8229 23.9678 47.7773 29.2484 51.8761 39.2228L45.8255 42.352C42.312 34.9201 35.6759 30.813 26.6975 30.813C17.7192 30.813 9.91186 36.6803 9.91186 44.699C9.91186 54.869 19.2806 56.8247 29.4301 58.9761C40.9458 61.5187 53.8279 64.8433 53.8279 80.294C53.4375 93.7886 42.1168 102.394 27.6735 102.394C15.5721 102.394 5.0323 96.9177 0.738281 86.7477Z" fill="white"/>
<path d="M66.5039 101.608V25.1377H73.7254V60.1458H119.008V25.1377H126.23V101.608H119.008V66.7955H73.7254V101.412H66.5039V101.608Z" fill="white"/>
<path d="M152.194 25.1377V101.608H144.973V25.1377H152.194Z" fill="white"/>
<path d="M165.27 101.611L176.2 32.1813C177.176 26.7051 181.079 23.7715 185.959 23.7715C190.253 23.7715 194.156 25.9228 195.523 30.8122L211.918 88.8984C212.308 90.6585 212.699 91.2454 213.675 91.2454C214.65 91.2454 215.041 90.4629 215.431 88.8984L231.826 31.0078C233.193 26.1184 237.097 23.7715 241.391 23.7715C246.075 23.7715 249.979 26.7051 250.954 32.3769L260.909 101.22H253.687L244.318 34.3326C243.928 31.7902 243.342 30.2255 241.195 30.2255C239.634 30.2255 238.463 31.5946 237.877 33.9415L220.896 92.2235C219.92 95.7437 216.993 97.6995 213.675 97.6995C210.552 97.6995 207.429 95.9393 206.453 92.4191L189.472 33.7459C188.691 31.399 187.911 30.2255 186.349 30.2255C184.787 30.2255 183.421 31.5946 183.031 34.3326L172.686 101.415H165.27V101.611Z" fill="white"/>
<path d="M288.052 33.1599C290.004 26.9014 294.493 23.9678 300.349 23.9678C306.009 23.9678 310.693 26.9014 312.645 33.1599L334.115 101.612H326.698L320.257 80.294L280.83 80.4893L273.999 101.612H266.582L288.052 33.1599ZM282.587 73.4487H317.915L306.204 35.3113C305.228 32.182 303.276 30.6174 300.349 30.6174C297.225 30.6174 295.469 32.182 294.493 35.3113L282.587 73.4487Z" fill="white"/>
<path d="M494.547 63.2788C494.547 41.374 511.721 23.9678 532.607 23.9678C545.489 23.9678 556.807 30.4218 562.858 40.9831L557.005 44.5034C551.931 36.0935 542.755 30.813 532.607 30.813C516.017 30.813 502.158 45.0902 502.158 63.2788C502.158 81.6629 515.819 95.94 532.607 95.94C542.755 95.94 551.931 90.8548 557.005 82.445L562.858 85.9657C556.807 96.5268 545.489 102.981 532.607 102.981C511.721 102.785 494.547 85.3788 494.547 63.2788Z" fill="white"/>
<path d="M584.716 33.1599C586.668 26.9014 591.158 23.9678 597.014 23.9678C602.871 23.9678 607.36 26.9014 609.308 33.1599L630.778 101.612H623.365L616.923 80.294L577.496 80.4893L570.664 101.612H563.246L584.716 33.1599ZM579.251 73.4487H614.58L602.871 35.3113C601.895 32.182 599.943 30.6174 597.014 30.6174C593.892 30.6174 592.134 32.182 591.158 35.3113L579.251 73.4487Z" fill="white"/>
<path d="M641.73 101.608V25.1377H663.789C683.307 25.1377 696.577 33.7431 696.577 51.5404C696.577 69.9246 682.718 78.1388 663.983 78.1388H648.954V101.804H641.73V101.608ZM648.954 31.9829V71.0982H663.789C677.842 71.0982 688.966 65.4266 688.966 51.3448C688.966 37.8502 678.62 31.7873 663.789 31.7873H648.954V31.9829Z" fill="white"/>
<path d="M713.939 25.1377V101.608H706.715V25.1377H713.939Z" fill="white"/>
<path d="M777.175 31.9829H752.78V101.608H745.556V31.9829H721.355V25.1377H777.175V31.9829Z" fill="white"/>
<path d="M793.775 33.1599C795.727 26.9014 800.216 23.9678 806.069 23.9678C811.925 23.9678 816.415 26.9014 818.367 33.1599L839.837 101.612H832.226L825.784 80.2936L786.357 80.4893L779.722 101.807H772.305L793.775 33.1599ZM788.309 73.4487H823.635L811.925 35.3113C810.949 32.182 808.997 30.6174 806.069 30.6174C802.947 30.6174 801.192 32.182 800.216 35.3113L788.309 73.4487Z" fill="white"/>
<path d="M857.974 94.7628H897.792V101.608H857.974C852.508 101.608 850.754 98.8699 850.754 94.3719V25.1377H857.974V94.7628Z" fill="white"/>
</g>
<defs>
<clipPath id="clip0_870_154">
<rect width="897.058" height="134.361" fill="white" transform="translate(0.738281 0.693359)"/>
</clipPath>
</defs>
</svg>
