<svg width="898" height="136" viewBox="0 0 898 136" fill="none" xmlns="http://www.w3.org/2000/svg">
<g clip-path="url(#clip0_2119_155)">
<path d="M479.718 87.725C478.548 91.6365 476.984 95.3523 475.229 98.6774C474.644 99.8507 474.059 100.829 473.47 102.002C470.348 106.5 464.883 109.629 459.027 109.629C453.759 109.629 448.878 107.282 445.756 103.567C445.559 103.371 445.365 103.175 445.172 102.98C441.852 99.2638 437.169 96.9169 431.897 96.9169C430.53 96.9169 429.36 97.1125 428.191 97.3081V133.881C424.286 134.663 419.991 135.054 415.893 135.054C378.808 135.054 348.945 104.936 348.945 67.9715C348.945 31.0077 378.613 0.693359 415.699 0.693359C422.725 0.693359 429.554 1.86682 435.995 3.82259L416.086 23.7714L428.191 35.8972L470.74 78.5327L472.494 80.2932L479.718 87.725Z" fill="url(#paint0_linear_2119_155)"/>
<path d="M0.742188 86.7477L6.988 83.6187C10.3061 91.246 17.9182 95.3531 27.6774 95.3531C38.2172 95.3531 46.2195 89.8771 46.2195 80.4893C46.2195 70.3193 37.0461 68.3636 27.0918 66.2122C15.576 63.67 2.49883 60.345 2.49883 45.0902C2.49883 33.1599 13.6242 23.9678 26.8966 23.9678C37.8268 23.9678 47.7812 29.2484 51.88 39.2228L45.8294 42.352C42.3159 34.9201 35.6798 30.813 26.7014 30.813C17.7231 30.813 9.91577 36.6803 9.91577 44.699C9.91577 54.869 19.2845 56.8247 29.434 58.9761C40.9497 61.5187 53.8318 64.8433 53.8318 80.294C53.4414 93.7886 42.1207 102.394 27.6774 102.394C15.576 102.394 5.03621 96.9177 0.742188 86.7477Z" fill="white"/>
<path d="M66.5078 101.608V25.1377H73.7293V60.1458H119.012V25.1377H126.234V101.608H119.012V66.7955H73.7293V101.412H66.5078V101.608Z" fill="white"/>
<path d="M152.198 25.1377V101.608H144.977V25.1377H152.198Z" fill="white"/>
<path d="M165.273 101.611L176.204 32.1813C177.179 26.7051 181.083 23.7715 185.963 23.7715C190.257 23.7715 194.16 25.9228 195.526 30.8122L211.922 88.8984C212.312 90.6585 212.702 91.2454 213.679 91.2454C214.654 91.2454 215.045 90.4629 215.435 88.8984L231.83 31.0078C233.197 26.1184 237.1 23.7715 241.395 23.7715C246.079 23.7715 249.983 26.7051 250.958 32.3769L260.913 101.22H253.691L244.322 34.3326C243.932 31.7902 243.346 30.2255 241.199 30.2255C239.638 30.2255 238.467 31.5946 237.881 33.9415L220.9 92.2234C219.924 95.7437 216.997 97.6995 213.679 97.6995C210.555 97.6995 207.433 95.9393 206.457 92.4191L189.476 33.7459C188.695 31.399 187.914 30.2255 186.353 30.2255C184.791 30.2255 183.425 31.5946 183.035 34.3326L172.69 101.415H165.273V101.611Z" fill="white"/>
<path d="M288.056 33.1599C290.008 26.9014 294.497 23.9678 300.352 23.9678C306.013 23.9678 310.697 26.9014 312.649 33.1599L334.119 101.612H326.702L320.261 80.294L280.834 80.4893L274.003 101.612H266.586L288.056 33.1599ZM282.591 73.4487H317.919L306.208 35.3112C305.232 32.182 303.28 30.6174 300.352 30.6174C297.229 30.6174 295.473 32.182 294.497 35.3112L282.591 73.4487Z" fill="white"/>
<path d="M494.555 63.2788C494.555 41.374 511.729 23.9678 532.614 23.9678C545.497 23.9678 556.815 30.4218 562.865 40.9831L557.013 44.5034C551.939 36.0935 542.763 30.813 532.614 30.813C516.025 30.813 502.166 45.0902 502.166 63.2788C502.166 81.6629 515.827 95.94 532.614 95.94C542.763 95.94 551.939 90.8548 557.013 82.445L562.865 85.9657C556.815 96.5268 545.497 102.981 532.614 102.981C511.729 102.785 494.555 85.3788 494.555 63.2788Z" fill="white"/>
<path d="M584.72 33.1599C586.672 26.9014 591.162 23.9678 597.018 23.9678C602.875 23.9678 607.364 26.9014 609.312 33.1599L630.782 101.612H623.369L616.927 80.294L577.5 80.4893L570.668 101.612H563.25L584.72 33.1599ZM579.255 73.4487H614.584L602.875 35.3112C601.899 32.182 599.946 30.6174 597.018 30.6174C593.896 30.6174 592.138 32.182 591.162 35.3112L579.255 73.4487Z" fill="white"/>
<path d="M641.734 101.608V25.1377H663.793C683.311 25.1377 696.581 33.7431 696.581 51.5404C696.581 69.9246 682.722 78.1388 663.987 78.1388H648.958V101.804H641.734V101.608ZM648.958 31.9829V71.0982H663.793C677.846 71.0982 688.97 65.4266 688.97 51.3448C688.97 37.8502 678.624 31.7873 663.793 31.7873H648.958V31.9829Z" fill="white"/>
<path d="M713.943 25.1377V101.608H706.719V25.1377H713.943Z" fill="white"/>
<path d="M777.179 31.9829H752.784V101.608H745.56V31.9829H721.359V25.1377H777.179V31.9829Z" fill="white"/>
<path d="M793.775 33.1599C795.727 26.9014 800.216 23.9678 806.069 23.9678C811.925 23.9678 816.415 26.9014 818.367 33.1599L839.837 101.612H832.226L825.784 80.2936L786.357 80.4893L779.722 101.807H772.305L793.775 33.1599ZM788.309 73.4487H823.635L811.925 35.3113C810.949 32.182 808.997 30.6174 806.069 30.6174C802.947 30.6174 801.192 32.182 800.216 35.3113L788.309 73.4487Z" fill="white"/>
<path d="M857.978 94.7628H897.796V101.608H857.978C852.512 101.608 850.758 98.8699 850.758 94.3719V25.1377H857.978V94.7628Z" fill="white"/>
</g>
<defs>
<linearGradient id="paint0_linear_2119_155" x1="355.817" y1="126.559" x2="456.248" y2="26.3292" gradientUnits="userSpaceOnUse">
<stop stop-color="#AEC6E2"/>
<stop offset="1" stop-color="#3B4B5D"/>
</linearGradient>
<clipPath id="clip0_2119_155">
<rect width="897.058" height="134.361" fill="white" transform="translate(0.742188 0.693359)"/>
</clipPath>
</defs>
</svg>
