<svg width="486" height="156" viewBox="0 0 486 156" fill="none" xmlns="http://www.w3.org/2000/svg">
<path d="M14.5671 86.7738V155.663H0.4375V86.7738H14.5671ZM31.202 86.5889C33.6787 86.5889 36.0178 87.157 38.2288 88.289C40.4351 89.4253 42.3472 90.9713 43.9604 92.9356C45.5736 94.9 46.8547 97.2123 47.7941 99.8814C48.7336 102.55 49.208 105.418 49.208 108.483C49.208 111.672 48.7383 114.614 47.7941 117.314C46.8499 120.014 45.5736 122.326 43.9604 124.26C42.3472 126.189 40.4209 127.695 38.1861 128.766C35.9514 129.84 33.5411 130.378 30.96 130.378H26.035C27.2212 129.58 28.322 128.462 29.3468 127.021C30.3669 125.581 31.2589 123.912 32.0133 122.009C32.7677 120.111 33.3466 118.01 33.7499 115.711C34.1532 113.412 34.3572 111.007 34.3572 108.492C34.3572 105.915 34.1532 103.48 33.7499 101.181C33.3466 98.8816 32.7677 96.7983 32.0133 94.9264C31.2589 93.0546 30.3717 91.3985 29.3468 89.9582C28.322 88.518 27.2212 87.3993 26.035 86.6021H29.9921H31.202V86.5889Z" fill="#A4B0B2"/>
<path fill-rule="evenodd" clip-rule="evenodd" d="M55.1739 144.442C56.4123 146.407 57.8926 148.415 59.6149 150.468C61.3372 152.524 63.273 154.255 65.4271 155.665H38.5391C40.3658 154.009 42.0501 152.124 43.5874 150.01C45.1199 147.895 46.4532 145.918 47.5824 144.077C48.9252 141.932 50.1398 139.725 51.2168 137.453C52.3983 139.844 53.7173 142.174 55.1739 144.442ZM87.4709 155.665H102.649L71.7233 84.6611L64.5351 103.331L87.4661 155.665H87.4709Z" fill="#A4B0B2"/>
<path d="M125.239 86.957V155.662H111.109V86.957H125.239ZM162.058 140.303C162.058 143.858 162.746 147.033 164.117 149.821C165.488 152.614 167.305 154.591 169.569 155.754H162.3C159.121 155.754 156.459 155.265 154.305 154.283C152.151 153.305 150.428 152.063 149.138 150.557C147.847 149.055 146.932 147.381 146.391 145.545C145.855 143.704 145.584 141.955 145.584 140.303C145.584 136.806 144.882 133.679 143.482 130.922C142.083 128.165 140.308 126.2 138.154 125.038H138.073C139.416 124.364 140.659 123.399 141.788 122.14C142.918 120.884 143.886 119.426 144.697 117.77C145.504 116.114 146.135 114.273 146.595 112.252C147.05 110.23 147.283 108.111 147.283 105.905C147.283 101.492 146.433 97.5805 144.74 94.1759C143.046 90.7713 140.825 88.3664 138.078 86.957H145.428C148.44 86.957 151.041 87.556 153.218 88.7496C155.401 89.9476 157.19 91.4804 158.589 93.3479C159.989 95.2197 161.014 97.2722 161.659 99.5096C162.304 101.747 162.627 103.879 162.627 105.9C162.627 107.922 162.371 110.054 161.858 112.291C161.346 114.529 160.568 116.599 159.519 118.497C158.471 120.4 157.161 121.963 155.605 123.188C154.044 124.417 152.241 125.029 150.196 125.029H152.782C154.234 125.029 155.538 125.505 156.696 126.456C157.854 127.407 158.822 128.632 159.605 130.134C160.383 131.636 160.99 133.292 161.422 135.102C161.854 136.912 162.067 138.643 162.067 140.299L162.058 140.303Z" fill="#A4B0B2"/>
<path d="M186.597 86.7734C184.172 88.4295 182.033 90.5612 180.177 93.1643C178.322 95.7717 176.747 98.2998 175.452 100.753C173.943 103.634 172.595 106.611 171.414 109.676V86.7734H186.592H186.597ZM208.802 155.663H194.672V86.9584H208.802V155.663ZM232.378 109.676C230.708 105.999 228.986 102.748 227.211 99.9294C225.437 97.1106 223.791 94.719 222.286 92.7547C220.512 90.4864 218.761 88.5572 217.039 86.9628H232.378V109.681V109.676Z" fill="#A4B0B2"/>
<path d="M252.002 133.403C252.97 136.288 254.156 139.076 255.556 141.771C256.795 144.101 258.299 146.541 260.078 149.083C261.852 151.628 263.954 153.817 266.374 155.658H252.002H243.766C245.54 154.064 246.968 152.011 248.045 149.497C249.122 146.982 249.957 144.528 250.546 142.137C251.191 139.318 251.675 136.407 251.998 133.398L252.002 133.403ZM243.846 86.7688H265.325L298.59 129.17L298.832 155.658L243.846 86.7688ZM297.945 103.876C297.409 102.035 296.626 100.105 295.606 98.0793C294.69 96.3616 293.48 94.4941 291.971 92.4681C290.463 90.4465 288.498 88.5129 286.079 86.6719H298.756H305.133C303.624 88.5746 302.414 90.5345 301.499 92.5562C300.583 94.5778 299.857 96.4188 299.316 98.0749C298.723 100.097 298.268 102.03 297.945 103.871V103.876Z" fill="#A4B0B2"/>
<path fill-rule="evenodd" clip-rule="evenodd" d="M329.036 155.572H314.906V86.7749H329.036V155.572ZM341.875 116.756C343.275 115.716 344.712 114.351 346.193 112.664C347.673 110.977 348.897 108.973 349.865 106.639V132.669C348.788 130.339 347.497 128.379 345.989 126.785C344.48 125.19 343.056 123.873 341.709 122.83C340.096 121.667 338.478 120.685 336.865 119.887C338.587 119.029 340.257 117.989 341.87 116.76L341.875 116.756ZM360.042 132.299V155.753H342.762C345.021 153.546 347.227 151.185 349.381 148.67C351.213 146.525 353.106 144.041 355.075 141.218C357.039 138.399 358.695 135.422 360.042 132.295V132.299ZM343.166 86.7705H359.881V109.396C358.643 106.516 357.191 103.692 355.521 100.935C354.121 98.6052 352.37 96.1519 350.273 93.5753C348.171 90.9988 345.804 88.7305 343.166 86.7705Z" fill="#A4B0B2"/>
<path d="M386.309 86.957V155.662H372.18V86.957H386.309ZM423.128 140.303C423.128 143.858 423.816 147.033 425.187 149.821C426.558 152.614 428.376 154.591 430.639 155.754H423.37C420.191 155.754 417.529 155.265 415.375 154.283C413.221 153.305 411.499 152.063 410.208 150.557C408.918 149.055 408.002 147.381 407.461 145.545C406.925 143.704 406.655 141.955 406.655 140.303C406.655 136.806 405.952 133.679 404.553 130.922C403.153 128.165 401.378 126.2 399.224 125.038H399.144C400.486 124.364 401.73 123.399 402.859 122.14C403.988 120.884 404.956 119.426 405.767 117.77C406.574 116.114 407.205 114.273 407.665 112.252C408.121 110.23 408.353 108.111 408.353 105.905C408.353 101.492 407.504 97.5805 405.81 94.1759C404.116 90.7713 401.896 88.3664 399.148 86.957H406.498C409.511 86.957 412.111 87.556 414.289 88.7496C416.471 89.9476 418.26 91.4804 419.66 93.3479C421.059 95.2197 422.084 97.2722 422.729 99.5096C423.375 101.747 423.697 103.879 423.697 105.9C423.697 107.922 423.441 110.054 422.929 112.291C422.416 114.529 421.638 116.599 420.59 118.497C419.541 120.4 418.232 121.963 416.675 123.188C415.114 124.417 413.311 125.029 411.266 125.029H413.852C415.304 125.029 416.609 125.505 417.767 126.456C418.924 127.407 419.892 128.632 420.675 130.134C421.453 131.636 422.06 133.292 422.492 135.102C422.924 136.912 423.138 138.643 423.138 140.299L423.128 140.303Z" fill="#A4B0B2"/>
<path d="M437.672 134.602C438.801 136.69 440.016 138.575 441.306 140.258C442.597 141.944 443.944 143.477 445.344 144.856C446.744 146.234 448.143 147.446 449.543 148.489C450.943 149.533 452.29 150.454 453.581 151.247C456.594 153.088 459.687 154.497 462.866 155.479H437.672V134.602ZM467.71 115.377C470.401 116.667 472.825 118.306 474.979 120.297C477.133 122.292 478.922 124.56 480.35 127.102C481.778 129.647 482.841 132.391 483.539 135.333C484.236 138.276 484.478 141.31 484.265 144.437L457.538 132.114V132.021C454.848 130.797 452.262 129.11 449.785 126.961C447.308 124.816 445.154 122.393 443.328 119.693C441.496 116.998 440.068 114.1 439.048 111.003C438.023 107.907 437.624 104.793 437.838 101.666L467.715 115.368L467.71 115.377ZM484.587 103.146C484.212 104.251 483.657 105.203 482.931 105.996C482.205 106.793 481.399 107.392 480.507 107.788C479.62 108.189 478.675 108.4 477.679 108.431C476.683 108.462 475.7 108.264 474.733 107.832C473.765 107.405 472.93 106.775 472.227 105.947C471.525 105.119 470.989 104.185 470.614 103.141C470.239 102.102 470.035 101.01 470.007 99.8778C469.978 98.7459 470.182 97.6271 470.614 96.5216C471.207 94.9272 471.463 93.531 471.383 92.3374C471.302 91.1438 471.098 90.1176 470.775 89.2587C470.401 88.3382 469.86 87.541 469.162 86.8671C470.401 86.8055 471.691 86.898 473.039 87.1446C474.168 87.3913 475.435 87.8053 476.834 88.3866C478.234 88.968 479.634 89.8753 481.033 91.0998C485.014 94.7202 486.2 98.7326 484.587 103.15V103.146Z" fill="#A4B0B2"/>
<path d="M16.2278 69.5829H0.4375L41.6023 0.944336H57.3926L16.2278 69.5829Z" fill="white"/>
<path d="M17.599 4.57062C15.9858 5.9448 14.4817 7.40267 13.0868 8.93101C11.6919 10.4593 10.4013 12.0361 9.21989 13.6569C8.03847 15.2778 6.98989 16.8546 6.07892 18.3829C3.87738 21.9945 1.9985 25.7559 0.4375 29.6714V0.950195H22.7517C20.925 1.98964 19.2074 3.19644 17.5942 4.57503L17.599 4.57062Z" fill="white"/>
<path d="M90.2652 69.4887C87.1479 69.4887 84.0734 68.5858 81.0415 66.78C78.0049 64.9742 75.2957 62.4989 72.9044 59.3453C70.5131 56.1962 68.582 52.5229 67.1064 48.3343C65.6308 44.1457 64.8906 39.6619 64.8906 34.892C64.8906 30.1836 65.6688 25.7308 67.225 21.5421C68.7813 17.3535 70.7978 13.6979 73.265 10.5751C75.7322 7.4568 78.5126 4.97711 81.6014 3.14046C84.6902 1.30382 87.7884 0.387695 90.9057 0.387695C89.8286 1.79711 88.7421 3.64697 87.6413 5.93727C86.5406 8.23198 85.5347 10.879 84.619 13.874C83.7033 16.8735 82.9536 20.1459 82.3653 23.6915C81.7722 27.2415 81.478 30.972 81.478 34.8876C81.478 38.8031 81.7342 42.5513 82.2419 46.1276C82.7496 49.7084 83.4376 52.9941 84.2964 55.9936C85.1551 58.993 86.0946 61.6532 87.1147 63.9788C88.1348 66.3043 89.1834 68.141 90.2557 69.4843L90.2652 69.4887Z" fill="white"/>
<path d="M103.013 0.391602C106.126 0.391602 109.2 1.29451 112.237 3.10032C115.268 4.90613 117.997 7.38142 120.412 10.535C122.827 13.6886 124.772 17.3574 126.252 21.546C127.728 25.7391 128.468 30.2183 128.468 34.9883C128.468 39.7011 127.69 44.1495 126.134 48.3381C124.578 52.5312 122.561 56.1824 120.094 59.3052C117.622 62.4235 114.841 64.9032 111.757 66.7398C108.669 68.5765 105.566 69.4926 102.453 69.4926C103.473 68.1492 104.546 66.3126 105.675 63.9871C106.804 61.6615 107.824 59.0013 108.735 56.0019C109.646 53.0068 110.4 49.7299 110.989 46.1844C111.577 42.6388 111.876 38.9039 111.876 34.9883C111.876 31.0728 111.606 27.3246 111.069 23.7483C110.533 20.1675 109.845 16.8818 109.015 13.8824C108.18 10.8873 107.231 8.24028 106.154 5.94557C105.077 3.65087 104.033 1.80102 103.013 0.39601V0.391602Z" fill="white"/>
<path d="M141.038 47.2852C142.006 50.1612 143.187 52.9448 144.582 55.6359C145.816 57.9615 147.32 60.3927 149.095 62.9297C150.869 65.471 152.961 67.6556 155.377 69.4922H141.038H132.82C134.595 67.9022 136.013 65.8542 137.091 63.3437C138.163 60.8376 138.998 58.3887 139.586 56.0015C140.232 53.1871 140.715 50.2802 141.038 47.2852Z" fill="white"/>
<path d="M53.7668 56.0015C54.3599 58.3887 55.1902 60.8332 56.2625 63.3437C57.3396 65.8542 58.7582 67.9022 60.5327 69.4922H52.315H37.9766C40.3916 67.6556 42.4887 65.471 44.2585 62.9297C46.0283 60.3927 47.5371 57.9615 48.7707 55.6359C50.1656 52.9448 51.347 50.1612 52.315 47.2852C52.6376 50.2846 53.1215 53.1915 53.7668 56.0015Z" fill="white"/>
<path d="M132.148 0.763672H153.575L186.764 43.0682L187.006 69.4947L132.148 0.763672Z" fill="white"/>
<path d="M186.127 17.8291C185.591 15.9924 184.813 14.0677 183.793 12.0461C182.877 10.3327 181.672 8.46527 180.168 6.44805C178.664 4.43082 176.704 2.50168 174.289 0.665039H186.938H193.301C191.797 2.56335 190.587 4.5189 189.676 6.53613C188.76 8.55335 188.039 10.39 187.503 12.0417C186.91 14.0589 186.454 15.988 186.132 17.8247L186.127 17.8291Z" fill="white"/>
<path fill-rule="evenodd" clip-rule="evenodd" d="M218.706 0.761434V69.4925H204.609V0.761434H218.706ZM230.387 30.4913C231.516 29.3902 232.707 27.9676 233.969 26.2234C235.232 24.4793 236.37 22.3872 237.395 19.9383V46.1843C236.427 43.982 235.312 42.1014 234.05 40.5422C232.788 38.983 231.592 37.6837 230.468 36.6443C229.125 35.4815 227.782 34.5037 226.44 33.7065C227.73 32.8521 229.044 31.7818 230.387 30.4957V30.4913ZM231.436 0.668945H248.593V25.4438C247.302 22.0172 245.798 18.7447 244.08 15.6264C242.576 12.9353 240.778 10.2001 238.681 7.41212C236.588 4.62852 234.169 2.38227 231.431 0.668945H231.436Z" fill="white"/>
<path fill-rule="evenodd" clip-rule="evenodd" d="M275.12 0.761434V69.4925H261.023V0.761434H275.12ZM286.801 30.4913C287.93 29.3902 289.121 27.9676 290.383 26.2234C291.646 24.4793 292.784 22.3872 293.809 19.9383V46.1843C292.841 43.982 291.726 42.1014 290.464 40.5422C289.202 38.983 288.006 37.6837 286.882 36.6443C285.539 35.4815 284.196 34.5037 282.854 33.7065C284.144 32.8521 285.458 31.7818 286.801 30.4957V30.4913ZM287.85 0.668945H305.007V25.4438C303.716 22.0172 302.212 18.7447 300.494 15.6264C298.99 12.9353 297.192 10.2001 295.095 7.41212C293.002 4.62852 290.583 2.38227 287.845 0.668945H287.85Z" fill="white"/>
</svg>
