<svg width="486" height="156" viewBox="0 0 486 156" fill="none" xmlns="http://www.w3.org/2000/svg">
<g opacity="0.5">
<path d="M14.5632 86.7738V155.663H0.433594V86.7738H14.5632ZM31.1981 86.5889C33.6748 86.5889 36.0139 87.157 38.2249 88.289C40.4312 89.4253 42.3433 90.9713 43.9565 92.9356C45.5697 94.9 46.8508 97.2123 47.7902 99.8814C48.7296 102.55 49.2041 105.418 49.2041 108.483C49.2041 111.672 48.7344 114.614 47.7902 117.314C46.846 120.014 45.5697 122.326 43.9565 124.26C42.3433 126.189 40.417 127.695 38.1822 128.766C35.9475 129.84 33.5372 130.378 30.9561 130.378H26.0311C27.2173 129.58 28.318 128.462 29.3429 127.021C30.363 125.581 31.255 123.912 32.0094 122.009C32.7638 120.111 33.3427 118.01 33.746 115.711C34.1493 113.412 34.3533 111.007 34.3533 108.492C34.3533 105.915 34.1493 103.48 33.746 101.181C33.3427 98.8816 32.7638 96.7983 32.0094 94.9264C31.255 93.0546 30.3677 91.3985 29.3429 89.9582C28.318 88.518 27.2173 87.3993 26.0311 86.6021H29.9882H31.1981V86.5889Z" fill="white"/>
<path fill-rule="evenodd" clip-rule="evenodd" d="M55.17 144.442C56.4083 146.407 57.8887 148.415 59.611 150.468C61.3333 152.524 63.2691 154.255 65.4232 155.665H38.5352C40.3619 154.009 42.0462 152.124 43.5835 150.01C45.116 147.895 46.4493 145.918 47.5785 144.077C48.9212 141.932 50.1359 139.725 51.2129 137.453C52.3944 139.844 53.7134 142.174 55.17 144.442V144.442ZM87.467 155.665H102.645L71.7194 84.6611L64.5312 103.331L87.4622 155.665H87.467Z" fill="white"/>
<path d="M125.239 86.957V155.662H111.109V86.957H125.239ZM162.058 140.303C162.058 143.858 162.746 147.033 164.117 149.821C165.488 152.614 167.305 154.591 169.569 155.754H162.3C159.121 155.754 156.459 155.265 154.305 154.283C152.151 153.305 150.428 152.063 149.138 150.557C147.847 149.055 146.932 147.381 146.391 145.545C145.855 143.704 145.584 141.955 145.584 140.303C145.584 136.806 144.882 133.679 143.482 130.922C142.083 128.165 140.308 126.2 138.154 125.038H138.073C139.416 124.364 140.659 123.399 141.788 122.14C142.918 120.884 143.886 119.426 144.697 117.77C145.504 116.114 146.135 114.273 146.595 112.252C147.05 110.23 147.283 108.111 147.283 105.905C147.283 101.492 146.433 97.5805 144.74 94.1759C143.046 90.7713 140.825 88.3664 138.078 86.957H145.428C148.44 86.957 151.041 87.556 153.218 88.7496C155.401 89.9476 157.19 91.4804 158.589 93.3479C159.989 95.2197 161.014 97.2722 161.659 99.5096C162.304 101.747 162.627 103.879 162.627 105.9C162.627 107.922 162.371 110.054 161.858 112.291C161.346 114.529 160.568 116.599 159.519 118.497C158.471 120.4 157.161 121.963 155.605 123.188C154.044 124.417 152.241 125.029 150.196 125.029H152.782C154.234 125.029 155.538 125.505 156.696 126.456C157.854 127.407 158.822 128.632 159.605 130.134C160.383 131.636 160.99 133.292 161.422 135.102C161.854 136.912 162.067 138.643 162.067 140.299L162.058 140.303Z" fill="white"/>
<path d="M186.593 86.7734C184.169 88.4295 182.029 90.5612 180.174 93.1643C178.318 95.7717 176.743 98.2998 175.448 100.753C173.939 103.634 172.592 106.611 171.41 109.676V86.7734H186.588H186.593ZM208.798 155.663H194.669V86.9584H208.798V155.663ZM232.374 109.676C230.704 105.999 228.982 102.748 227.208 99.9294C225.433 97.1106 223.787 94.719 222.283 92.7547C220.508 90.4864 218.757 88.5572 217.035 86.9628H232.374V109.681V109.676Z" fill="white"/>
<path d="M252.002 133.403C252.97 136.288 254.156 139.076 255.556 141.771C256.795 144.101 258.299 146.541 260.078 149.083C261.852 151.628 263.954 153.817 266.374 155.658H252.002H243.766C245.54 154.064 246.968 152.011 248.045 149.497C249.122 146.982 249.957 144.528 250.546 142.137C251.191 139.318 251.675 136.407 251.998 133.398L252.002 133.403ZM243.846 86.7688H265.325L298.59 129.17L298.832 155.658L243.846 86.7688V86.7688ZM297.945 103.876C297.409 102.035 296.626 100.105 295.606 98.0793C294.69 96.3616 293.48 94.4941 291.971 92.4681C290.463 90.4465 288.498 88.5129 286.079 86.6719H298.756H305.133C303.624 88.5746 302.414 90.5345 301.499 92.5562C300.583 94.5778 299.857 96.4188 299.316 98.0749C298.723 100.097 298.268 102.03 297.945 103.871V103.876Z" fill="white"/>
<path fill-rule="evenodd" clip-rule="evenodd" d="M329.028 155.572H314.898V86.7749H329.028V155.572ZM341.867 116.756C343.267 115.716 344.705 114.351 346.185 112.664C347.665 110.977 348.889 108.973 349.857 106.639V132.669C348.78 130.339 347.49 128.379 345.981 126.785C344.472 125.19 343.049 123.873 341.701 122.83C340.088 121.667 338.47 120.685 336.857 119.887C338.579 119.029 340.249 117.989 341.862 116.76L341.867 116.756ZM360.035 132.299V155.753H342.754C345.013 153.546 347.219 151.185 349.373 148.67C351.205 146.525 353.098 144.041 355.067 141.218C357.031 138.399 358.687 135.422 360.035 132.295V132.299ZM343.158 86.7705H359.873V109.396C358.635 106.516 357.183 103.692 355.513 100.935C354.113 98.6052 352.362 96.1519 350.265 93.5753C348.163 90.9988 345.796 88.7305 343.158 86.7705V86.7705Z" fill="white"/>
<path d="M386.305 86.957V155.662H372.176V86.957H386.305ZM423.124 140.303C423.124 143.858 423.812 147.033 425.183 149.821C426.555 152.614 428.372 154.591 430.635 155.754H423.366C420.187 155.754 417.525 155.265 415.371 154.283C413.217 153.305 411.495 152.063 410.204 150.557C408.914 149.055 407.998 147.381 407.457 145.545C406.921 143.704 406.651 141.955 406.651 140.303C406.651 136.806 405.948 133.679 404.549 130.922C403.149 128.165 401.375 126.2 399.22 125.038H399.14C400.483 124.364 401.726 123.399 402.855 122.14C403.984 120.884 404.952 119.426 405.763 117.77C406.57 116.114 407.201 114.273 407.661 112.252C408.117 110.23 408.349 108.111 408.349 105.905C408.349 101.492 407.5 97.5805 405.806 94.1759C404.112 90.7713 401.892 88.3664 399.145 86.957H406.494C409.507 86.957 412.107 87.556 414.285 88.7496C416.467 89.9476 418.256 91.4804 419.656 93.3479C421.055 95.2197 422.08 97.2722 422.726 99.5096C423.371 101.747 423.693 103.879 423.693 105.9C423.693 107.922 423.437 110.054 422.925 112.291C422.412 114.529 421.634 116.599 420.586 118.497C419.537 120.4 418.228 121.963 416.671 123.188C415.11 124.417 413.307 125.029 411.262 125.029H413.848C415.3 125.029 416.605 125.505 417.763 126.456C418.92 127.407 419.888 128.632 420.671 130.134C421.449 131.636 422.057 133.292 422.488 135.102C422.92 136.912 423.134 138.643 423.134 140.299L423.124 140.303Z" fill="white"/>
<path d="M437.668 134.602C438.797 136.69 440.012 138.575 441.302 140.258C442.593 141.944 443.94 143.477 445.34 144.856C446.74 146.234 448.139 147.446 449.539 148.489C450.939 149.533 452.286 150.454 453.577 151.247C456.59 153.088 459.683 154.497 462.862 155.479H437.668V134.602V134.602ZM467.707 115.377C470.397 116.667 472.821 118.306 474.975 120.297C477.129 122.292 478.918 124.56 480.346 127.102C481.774 129.647 482.837 132.391 483.535 135.333C484.232 138.276 484.474 141.31 484.261 144.437L457.534 132.114V132.021C454.844 130.797 452.258 129.11 449.781 126.961C447.304 124.816 445.15 122.393 443.324 119.693C441.492 116.998 440.064 114.1 439.044 111.003C438.019 107.907 437.621 104.793 437.834 101.666L467.711 115.368L467.707 115.377ZM484.583 103.146C484.208 104.251 483.653 105.203 482.927 105.996C482.201 106.793 481.395 107.392 480.503 107.788C479.616 108.189 478.671 108.4 477.675 108.431C476.679 108.462 475.697 108.264 474.729 107.832C473.761 107.405 472.926 106.775 472.223 105.947C471.521 105.119 470.985 104.185 470.61 103.141C470.235 102.102 470.031 101.01 470.003 99.8778C469.974 98.7459 470.178 97.6271 470.61 96.5216C471.203 94.9272 471.46 93.531 471.379 92.3374C471.298 91.1438 471.094 90.1176 470.772 89.2587C470.397 88.3382 469.856 87.541 469.158 86.8671C470.397 86.8055 471.687 86.898 473.035 87.1446C474.164 87.3913 475.431 87.8053 476.831 88.3866C478.23 88.968 479.63 89.8753 481.03 91.0998C485.01 94.7202 486.196 98.7326 484.583 103.15V103.146Z" fill="white"/>
<path d="M16.2239 69.5829H0.433594L41.5984 0.944336H57.3887L16.2239 69.5829Z" fill="white"/>
<path d="M17.5951 4.57062C15.9819 5.9448 14.4778 7.40267 13.0829 8.93101C11.688 10.4593 10.3974 12.0361 9.21598 13.6569C8.03456 15.2778 6.98599 16.8546 6.07501 18.3829C3.87348 21.9945 1.99459 25.7559 0.433594 29.6714V0.950195H22.7478C20.9211 1.98964 19.2035 3.19644 17.5903 4.57503L17.5951 4.57062Z" fill="white"/>
<path d="M90.2613 69.4887C87.144 69.4887 84.0695 68.5858 81.0376 66.78C78.001 64.9742 75.2918 62.4989 72.9005 59.3453C70.5092 56.1962 68.5781 52.5229 67.1025 48.3343C65.6269 44.1457 64.8867 39.6619 64.8867 34.892C64.8867 30.1836 65.6649 25.7308 67.2211 21.5421C68.7774 17.3535 70.7938 13.6979 73.2611 10.5751C75.7283 7.4568 78.5087 4.97711 81.5975 3.14046C84.6863 1.30382 87.7845 0.387695 90.9018 0.387695C89.8247 1.79711 88.7382 3.64697 87.6374 5.93727C86.5367 8.23198 85.5308 10.879 84.6151 13.874C83.6994 16.8735 82.9497 20.1459 82.3614 23.6915C81.7683 27.2415 81.4741 30.972 81.4741 34.8876C81.4741 38.8031 81.7303 42.5513 82.238 46.1276C82.7457 49.7084 83.4337 52.9941 84.2924 55.9936C85.1512 58.993 86.0907 61.6532 87.1108 63.9788C88.1309 66.3043 89.1795 68.141 90.2518 69.4843L90.2613 69.4887Z" fill="white"/>
<path d="M103.009 0.391602C106.122 0.391602 109.196 1.29451 112.233 3.10032C115.265 4.90613 117.993 7.38142 120.408 10.535C122.823 13.6886 124.768 17.3574 126.249 21.546C127.724 25.7391 128.464 30.2184 128.464 34.9883C128.464 39.7011 127.686 44.1495 126.13 48.3381C124.574 52.5312 122.557 56.1824 120.09 59.3052C117.618 62.4235 114.838 64.9032 111.754 66.7398C108.665 68.5765 105.562 69.4926 102.449 69.4926C103.469 68.1492 104.542 66.3126 105.671 63.9871C106.8 61.6615 107.82 59.0013 108.731 56.0019C109.642 53.0068 110.397 49.73 110.985 46.1844C111.573 42.6388 111.872 38.9039 111.872 34.9883C111.872 31.0728 111.602 27.3246 111.066 23.7483C110.529 20.1675 109.841 16.8818 109.011 13.8824C108.176 10.8873 107.227 8.24028 106.15 5.94557C105.073 3.65087 104.029 1.80102 103.009 0.39601V0.391602Z" fill="white"/>
<path d="M141.034 47.2852C142.002 50.1612 143.184 52.9448 144.578 55.6359C145.812 57.9615 147.316 60.3927 149.091 62.9297C150.865 65.471 152.958 67.6556 155.373 69.4922H141.034H132.816C134.591 67.9022 136.01 65.8542 137.087 63.3437C138.159 60.8376 138.994 58.3887 139.582 56.0015C140.228 53.1871 140.712 50.2802 141.034 47.2852V47.2852Z" fill="white"/>
<path d="M53.7629 56.0015C54.356 58.3887 55.1863 60.8332 56.2586 63.3437C57.3357 65.8542 58.7543 67.9022 60.5288 69.4922H52.311H37.9727C40.3877 67.6556 42.4848 65.471 44.2546 62.9297C46.0244 60.3927 47.5332 57.9615 48.7668 55.6359C50.1617 52.9448 51.3431 50.1612 52.311 47.2852C52.6337 50.2846 53.1176 53.1915 53.7629 56.0015V56.0015Z" fill="white"/>
<path d="M132.145 0.763672H153.572L186.761 43.0682L187.002 69.4947L132.145 0.763672Z" fill="white"/>
<path d="M186.123 17.8291C185.587 15.9924 184.809 14.0677 183.789 12.0461C182.873 10.3327 181.668 8.46527 180.164 6.44805C178.66 4.43082 176.7 2.50168 174.285 0.665039H186.934H193.297C191.793 2.56335 190.583 4.5189 189.672 6.53613C188.756 8.55335 188.035 10.39 187.499 12.0417C186.906 14.0589 186.45 15.988 186.128 17.8247L186.123 17.8291Z" fill="white"/>
<path fill-rule="evenodd" clip-rule="evenodd" d="M218.706 0.761434V69.4925H204.609V0.761434H218.706ZM230.387 30.4913C231.516 29.3902 232.707 27.9676 233.969 26.2234C235.232 24.4793 236.37 22.3872 237.395 19.9383V46.1843C236.427 43.982 235.312 42.1014 234.05 40.5422C232.788 38.983 231.592 37.6837 230.468 36.6443C229.125 35.4815 227.782 34.5037 226.44 33.7065C227.73 32.8521 229.044 31.7818 230.387 30.4957V30.4913ZM231.436 0.668945H248.593V25.4438C247.302 22.0172 245.798 18.7447 244.08 15.6264C242.576 12.9353 240.778 10.2001 238.681 7.41212C236.588 4.62852 234.169 2.38227 231.431 0.668945H231.436Z" fill="white"/>
<path fill-rule="evenodd" clip-rule="evenodd" d="M275.116 0.761434V69.4925H261.02V0.761434H275.116ZM286.797 30.4913C287.927 29.3902 289.117 27.9676 290.38 26.2234C291.642 24.4793 292.78 22.3872 293.805 19.9383V46.1843C292.837 43.982 291.722 42.1014 290.46 40.5422C289.198 38.983 288.002 37.6837 286.878 36.6443C285.535 35.4815 284.193 34.5037 282.85 33.7065C284.14 32.8521 285.455 31.7818 286.797 30.4957V30.4913ZM287.846 0.668945H305.003V25.4438C303.712 22.0172 302.208 18.7447 300.49 15.6264C298.986 12.9353 297.188 10.2001 295.091 7.41212C292.999 4.62852 290.579 2.38227 287.841 0.668945H287.846Z" fill="white"/>
</g>
</svg>
